<svg xmlns="http://www.w3.org/2000/svg" xmlns:xlink="http://www.w3.org/1999/xlink" width="22.279" height="18.375" viewBox="0 0 22.279 18.375"><defs><style>.a{fill:url(#a);}</style><linearGradient id="a" x1="0.5" x2="0.5" y2="1" gradientUnits="objectBoundingBox"><stop offset="0" stop-color="#fff"/><stop offset="0.5" stop-color="#fff"/><stop offset="1" stop-color="#fff"/></linearGradient></defs><path class="a" d="M17.957,17.642H15.833l-3.349-3.349,3.349-3.349h2.125s0,2.758,0,2.9c0,0-.027.2.113.217a.219.219,0,0,0,.212-.111l4.2-4.157c.074-.074.1-.1.1-.189s-.014-.069-.1-.159L18.255,5.212c-.106-.106-.157-.087-.231-.063s-.066.019-.066.209V8.264H15.278a1.34,1.34,0,0,0-.947.392L10.589,12.4,6.847,8.657A1.34,1.34,0,0,0,5.9,8.264H1.88C.534,8.264.309,8.936.309,9.605s.224,1.338,1.572,1.338H5.345l3.349,3.349L5.345,17.642H1.88c-1.348,0-1.571.674-1.571,1.344s.222,1.336,1.571,1.336H5.9a1.34,1.34,0,0,0,.947-.392l3.742-3.742,3.742,3.742a1.34,1.34,0,0,0,.947.392h2.679v2.847c0,.172.011.292.1.328s.126-.047.263-.185L22.4,19.231c.138-.139.152-.127.152-.26s.012-.112-.152-.27-4.048-3.854-4.048-3.854c-.106-.1-.182-.144-.28-.106s-.113.115-.113.257v2.645Z" transform="translate(-0.309 -5.131)"/></svg>