<svg xmlns="http://www.w3.org/2000/svg" width="185.37" height="87.755" viewBox="0 0 185.37 87.755"><defs><style>.a{fill:#ccc;}.b{fill:#f7b248;}.c{fill:#2f2e41;}.d{fill:#3f3d56;}</style></defs><g transform="translate(15.793 7.001)"><path class="a" d="M361.272,622.8a3.669,3.669,0,0,1,0-7.318h50.388a2.925,2.925,0,0,0-2.588-1.66H315.44a5.334,5.334,0,0,0,0,10.636h93.633a2.925,2.925,0,0,0,2.588-1.659Z" transform="translate(-266.245 -543.875)"/><path class="a" d="M733.124,632.323H681.452a.3.3,0,1,1,0-.6h51.671a.3.3,0,1,1,0,.6Z" transform="translate(-588.088 -558.702)"/><path class="a" d="M733.124,643.616H681.452a.3.3,0,1,1,0-.6h51.672a.3.3,0,1,1,0,.6Z" transform="translate(-588.088 -568.054)"/><path class="a" d="M733.124,654.909H681.452a.3.3,0,0,1,0-.6h51.671a.3.3,0,1,1,0,.6Z" transform="translate(-588.088 -577.406)"/><path class="b" d="M279.614,562.857a3.669,3.669,0,0,1,0-7.318H330a2.925,2.925,0,0,0-2.588-1.659H233.782a5.334,5.334,0,0,0,0,10.637h93.633A2.925,2.925,0,0,0,330,562.857Z" transform="translate(-200.235 -494.239)"/><path class="a" d="M651.466,572.383H599.794a.3.3,0,1,1,0-.6h51.672a.3.3,0,0,1,0,.6Z" transform="translate(-521.796 -509.053)"/><path class="a" d="M651.466,583.676H599.794a.3.3,0,0,1,0-.6h51.671a.3.3,0,1,1,0,.6Z" transform="translate(-521.796 -518.407)"/><path class="a" d="M651.466,594.969H599.794a.3.3,0,1,1,0-.6h51.672a.3.3,0,0,1,0,.6Z" transform="translate(-521.796 -527.77)"/><path class="a" d="M197.956,500.916a3.669,3.669,0,0,1,0-7.318h50.389a2.925,2.925,0,0,0-2.588-1.659H152.124a5.334,5.334,0,0,0,0,10.637h93.633a2.925,2.925,0,0,0,2.588-1.66Z" transform="translate(-133.169 -442.929)"/><path class="a" d="M569.808,510.442H518.137a.3.3,0,1,1,0-.6h51.672a.3.3,0,0,1,0,.6Z" transform="translate(-454.889 -457.753)"/><path class="a" d="M569.808,521.735H518.137a.3.3,0,1,1,0-.6h51.672a.3.3,0,0,1,0,.6Z" transform="translate(-454.889 -467.107)"/><path class="a" d="M569.808,533.028H518.137a.3.3,0,1,1,0-.6h51.672a.3.3,0,0,1,0,.6Z" transform="translate(-454.889 -476.46)"/><g transform="translate(102.527 -7.001)"><path class="b" d="M820.913,382.789a1.117,1.117,0,0,1-1.113-1.044l-.166-2.532a1.117,1.117,0,0,1,1.042-1.188l19.836-1.3a2.386,2.386,0,0,1,.312,4.762l-19.836,1.3Z" transform="translate(-819.632 -350.539)"/><path class="c" d="M843.778,382a1.119,1.119,0,0,1-1.116-1.076l-.141-3.782a1.117,1.117,0,0,1,1.075-1.158l16.312-.61a1.118,1.118,0,0,1,1.158,1.075l.141,3.782a1.117,1.117,0,0,1-1.075,1.158L843.82,382Z" transform="translate(-838.585 -349.425)"/><path class="c" d="M943.426,504.069h-2.537a1.119,1.119,0,0,1-1.117-1.117V481.8a1.119,1.119,0,0,1,1.117-1.117h2.537a1.118,1.118,0,0,1,1.117,1.117v21.147A1.118,1.118,0,0,1,943.426,504.069Z" transform="translate(-919.117 -436.671)"/><path class="c" d="M882.476,448.245l-2.17-1.315a1.119,1.119,0,0,1-.377-1.535l10.962-18.085a1.119,1.119,0,0,1,1.535-.376l2.17,1.315a1.119,1.119,0,0,1,.376,1.535L884.01,447.868A1.119,1.119,0,0,1,882.476,448.245Z" transform="translate(-869.43 -392)"/><circle class="b" cx="8.767" cy="8.767" r="8.767" transform="translate(11.687 4.47)"/><path class="c" d="M905.359,291.2a2.081,2.081,0,0,1-.759-.446,1.4,1.4,0,0,1-.409-1.107.941.941,0,0,1,.418-.724,1.217,1.217,0,0,1,1.16-.014l-.016-3.423.344,0,.019,4.024-.265-.167a1.041,1.041,0,0,0-1.056-.13.6.6,0,0,0-.262.467,1.056,1.056,0,0,0,.3.825,2.842,2.842,0,0,0,1.565.577l-.055.339A5.669,5.669,0,0,1,905.359,291.2Z" transform="translate(-889.65 -274.965)"/><rect class="c" width="0.344" height="1.852" transform="translate(12.513 10.686) rotate(-82.477)"/><rect class="c" width="0.344" height="1.852" transform="translate(18.308 11.451) rotate(-82.477)"/><path class="c" d="M902.945,391.838H888.16a1.463,1.463,0,0,1-1.461-1.461l3.1-23.735a1.46,1.46,0,0,1,1.461-1.45H896.5a7.914,7.914,0,0,1,7.9,7.9v17.281A1.463,1.463,0,0,1,902.945,391.838Z" transform="translate(-875.169 -340.998)"/><path class="b" d="M962.368,398.6a1.118,1.118,0,0,1-.166,1.2l-1.659,1.92a1.117,1.117,0,0,1-1.576.115l-15.042-13a2.386,2.386,0,1,1,3.12-3.611l15.042,13A1.108,1.108,0,0,1,962.368,398.6Z" transform="translate(-921.872 -357.114)"/><path class="c" d="M952.473,386.337a1.119,1.119,0,0,1-.166,1.2l-2.833,3.28a1.119,1.119,0,0,1-1.576.115l-12.352-10.672a1.117,1.117,0,0,1-.115-1.576l2.833-3.279a1.117,1.117,0,0,1,1.576-.115l12.352,10.672A1.116,1.116,0,0,1,952.473,386.337Z" transform="translate(-915.297 -349.136)"/><path class="c" d="M904.761,232.345c-1.172-.97-2.739-.053-4.064-.183a3.135,3.135,0,0,1-2.567-2.441A3.88,3.88,0,0,1,899.568,226a5.586,5.586,0,0,1,4.2-1.139,10.56,10.56,0,0,1,4.681,1.864,20.941,20.941,0,0,1,3.745,3.053,8.06,8.06,0,0,1,2.167,3.822,5.3,5.3,0,0,1-.657,3.959,4.163,4.163,0,0,1-1.6,1.372c-.671.345-1.388.6-2.036.985a2.912,2.912,0,0,0-1.588,3,1.684,1.684,0,0,0,.4.713c.227.242.62-.091.393-.334a1.42,1.42,0,0,1-.2-1.527,2.8,2.8,0,0,1,1.217-1.391c.679-.405,1.432-.662,2.129-1.033A4.644,4.644,0,0,0,914.1,237.9a5.745,5.745,0,0,0,.825-4.118,8.124,8.124,0,0,0-2.049-4.033,20.3,20.3,0,0,0-3.784-3.222,11.987,11.987,0,0,0-4.829-2.126,6.42,6.42,0,0,0-4.5.812,4.742,4.742,0,0,0-2.225,3.644,3.823,3.823,0,0,0,1.849,3.394,3.285,3.285,0,0,0,1.97.417,14.973,14.973,0,0,1,2.2-.251,1.537,1.537,0,0,1,.912.349c.256.212.548-.213.295-.424Z" transform="translate(-884.142 -224.308)"/><path class="c" d="M879.528,525.726c0-.019.007-.039.011-.058a1.109,1.109,0,0,1,.487-.7l2.132-1.375a1.119,1.119,0,0,1,1.545.333l6.577,10.2a1.118,1.118,0,0,1-.333,1.545l-2.132,1.375a1.119,1.119,0,0,1-1.545-.333l-6.578-10.2A1.109,1.109,0,0,1,879.528,525.726Z" transform="translate(-869.219 -472.039)"/></g><path class="d" d="M404.973,782.04H220.21a.409.409,0,0,1,0-.79H404.973a.409.409,0,0,1,0,.79Z" transform="translate(-235.7 -701.285)"/></g></svg>