<svg xmlns="http://www.w3.org/2000/svg" xmlns:xlink="http://www.w3.org/1999/xlink" width="243.046" height="201.103" viewBox="0 0 243.046 201.103"><defs><style>.a,.j,.x{fill:none;stroke-miterlimit:10;}.a,.j{stroke:#535461;}.a{stroke-width:2px;}.b{fill:#f7b248;}.c{fill:#b65256;}.d{fill:#b66f7b;}.e,.i{opacity:0.1;}.f{fill:url(#a);}.g{fill:url(#b);}.h{fill:url(#c);}.k{fill:url(#d);}.l{fill:#ffd77c;}.m{fill:#ffc950;}.n{fill:#cecee0;}.o,.v{fill:#fff;}.o{opacity:0.3;}.p{fill:#fcc1cb;}.q{fill:#855a61;}.r{opacity:0.15;}.s{opacity:0.05;}.t{fill:#eb7580;}.u{fill:#c3c7e1;}.w{fill:url(#e);}.x{stroke:#eb7580;stroke-width:4px;}.y{opacity:0.25;}</style><linearGradient id="a" y1="0.5" x2="0.999" y2="0.5" gradientUnits="objectBoundingBox"><stop offset="0" stop-color="gray" stop-opacity="0.251"/><stop offset="0.54" stop-color="gray" stop-opacity="0.122"/><stop offset="1" stop-color="gray" stop-opacity="0.102"/></linearGradient><linearGradient id="b" x1="0" y1="0.501" x2="1" y2="0.501" xlink:href="#a"/><linearGradient id="c" x1="-0.001" y1="0.501" x2="1" y2="0.501" xlink:href="#a"/><linearGradient id="d" x1="0.5" y1="1" x2="0.5" y2="0" xlink:href="#a"/><linearGradient id="e" x1="0.5" y1="1" x2="0.5" y2="0" xlink:href="#a"/></defs><g transform="translate(0.007 -0.097)"><path class="a" d="M351.287,466.743s-3.42-11.606.642-20.153a18.334,18.334,0,0,0,1.483-11.5,30.837,30.837,0,0,0-1.627-5.4" transform="translate(-292.922 -334.291)"/><path class="b" d="M352.038,401.329c0,1.424-2.579,5.548-2.579,5.548s-2.579-4.126-2.579-5.548a2.579,2.579,0,0,1,5.158,0Z" transform="translate(-290.651 -311.33)"/><path class="b" d="M368.489,427.566c-.774,1.194-5.179,3.257-5.179,3.257s.08-4.864.854-6.058a2.579,2.579,0,1,1,4.325,2.8Z" transform="translate(-302.844 -329.688)"/><path class="b" d="M365.065,477.629c-1.271.64-6.115.2-6.115.2s2.525-4.157,3.794-4.8a2.579,2.579,0,0,1,2.321,4.6Z" transform="translate(-299.608 -366.283)"/><path class="b" d="M355.974,517.734c-1.145.846-5.994,1.228-5.994,1.228s1.785-4.524,2.93-5.37a2.579,2.579,0,0,1,3.064,4.142Z" transform="translate(-292.952 -396.232)"/><path class="b" d="M339.8,439.985c1.032.99,5.775,2.019,5.775,2.019s-1.163-4.722-2.184-5.713a2.579,2.579,0,1,0-3.59,3.693Z" transform="translate(-284.738 -338.575)"/><path class="b" d="M327.515,485.024c1.271.64,6.115.2,6.115.2s-2.525-4.157-3.794-4.8a2.579,2.579,0,1,0-2.321,4.6Z" transform="translate(-275.154 -371.698)"/><path class="b" d="M325.146,532.334c1.145.846,5.994,1.228,5.994,1.228s-1.785-4.524-2.93-5.37a2.579,2.579,0,0,0-3.064,4.142Z" transform="translate(-273.82 -407.066)"/><path class="b" d="M146.383,524.226c8.534,1.805,16.71,5.045,25.213,7s17.69,2.543,25.729-.846c3.523-1.486,6.739-3.7,10.4-4.794,9.15-2.736,18.639,1.939,27.547,5.385a111.956,111.956,0,0,0,36.388,7.456c6.267.219,12.949-.217,18.069-3.84,1.836-1.289,3.412-2.976,5.385-4.059,3.9-2.141,8.769-1.638,12.929-.1s7.931,4.013,12,5.813c10.437,4.622,22.319,4.593,33.252,7.874a55.038,55.038,0,0,1,12.057,5.251c2.28,1.341,4.568,2.974,5.648,5.39,2.063,4.642-1.117,9.945-4.815,13.432-8.178,7.706-19.111,11.639-29.711,15.371l-34.67,12.2a170.618,170.618,0,0,1-19.908,6.11,145.987,145.987,0,0,1-21.262,2.672c-14.378,1-29.6,1.212-42.24-5.72-7.786-4.273-14.368-11.154-23.039-13.084-7.149-1.589-14.646.475-21.9-.5-9.4-1.256-17.367-7.415-24.243-13.948-6.19-5.893-12.008-12.379-15.828-20.037-3.051-6.115-5.826-14.958-3.92-21.832C131.43,522.338,140.3,522.936,146.383,524.226Z" transform="translate(-128.84 -403.851)"/><path class="c" d="M307.084,618.523l-.134.142a3.462,3.462,0,0,1-.485.42c-1.06.748-2.04.348-2.925-.444s-1.375-1.7-.774-2.816a3.319,3.319,0,0,1,.346-.516h0c.052-.064.108-.132.168-.2a6.187,6.187,0,0,1,.872-.792,7.385,7.385,0,0,1,.73-.488,7.028,7.028,0,0,1,.683-.351,5.1,5.1,0,0,1,1.1-.358,1.817,1.817,0,0,1,1.586.276,1.79,1.79,0,0,1,.449,1.519,4.879,4.879,0,0,1-.2,1.032,7.109,7.109,0,0,1-.4,1.032h0c-.108.224-.227.444-.353.653A6.162,6.162,0,0,1,307.084,618.523Z" transform="translate(-257.719 -470.371)"/><path class="d" d="M317.29,616.1a6.873,6.873,0,0,0-2.94-2.468,5.1,5.1,0,0,1,1.1-.358,4.926,4.926,0,0,1,2.035,1.805A4.875,4.875,0,0,1,317.29,616.1Z" transform="translate(-266.511 -470.525)"/><path class="d" d="M312.451,619.814c-.64-1-1.978-2.809-3.611-3.306a7.391,7.391,0,0,1,.73-.487c.828.206,2.081.913,3.224,3.141h0A5.607,5.607,0,0,1,312.451,619.814Z" transform="translate(-262.422 -472.565)"/><path class="d" d="M303.51,622.293c1.645.407,3.023,2.205,3.706,3.26a3.47,3.47,0,0,0,.485-.42c-1.457-2.932-3.11-3.337-3.843-3.353h0Z" transform="translate(-258.467 -476.84)"/><g class="e" transform="translate(134.147 183.923)"><path class="f" d="M654.013,774.151a1.856,1.856,0,0,0-1.122-1.181,1.892,1.892,0,0,0-1.584.49,5.247,5.247,0,0,0-.843.846,7.217,7.217,0,0,0-.462.642,7.612,7.612,0,0,0-.441.789,6.36,6.36,0,0,0-.428,1.135c-.023.088-.044.175-.059.258h0a3.416,3.416,0,0,0-.075.64c-.021,1.289.869,1.909,2.035,2.215s2.267.219,2.889-.962a3.569,3.569,0,0,0,.258-.611c.018-.062.039-.126.054-.193a6.349,6.349,0,0,0,.18-1.143c.018-.258.026-.516.021-.774h0a7.318,7.318,0,0,0-.116-1.124A5.018,5.018,0,0,0,654.013,774.151Z" transform="translate(-648.999 -772.932)"/></g><g class="e" transform="translate(223.155 143.094)"><path class="g" d="M999.093,617.153a2.944,2.944,0,0,0-.284-.467l-.1-.132a5.245,5.245,0,0,0-.663-.681c-.157-.137-.325-.258-.5-.389h0a6.053,6.053,0,0,0-.8-.477,4.145,4.145,0,0,0-.838-.312,1.535,1.535,0,0,0-1.336.162,1.562,1.562,0,0,0-.454,1.29,4.334,4.334,0,0,0,.147.975,5.972,5.972,0,0,0,.2.622,6.279,6.279,0,0,0,.307.681,5.254,5.254,0,0,0,.542.843c.046.059.1.113.142.168h0a2.825,2.825,0,0,0,.387.364,2.3,2.3,0,0,0,3.252-2.646Z" transform="translate(-994.117 -614.621)"/></g><g class="e" transform="translate(123.173 162.246)"><path class="h" d="M609.635,691.005l-3.185-2.125A5.744,5.744,0,0,0,609.635,691.005Z" transform="translate(-606.45 -688.88)"/></g><path class="b" d="M910.01,397.225c3.193,11.675-10.427,44.937-10.427,44.937s-28.656-21.7-31.851-33.37a21.922,21.922,0,1,1,42.278-11.567Z" transform="translate(-676.492 -297.86)"/><path class="i" d="M910.01,397.225c3.193,11.675-10.427,44.937-10.427,44.937s-28.656-21.7-31.851-33.37a21.922,21.922,0,1,1,42.278-11.567Z" transform="translate(-676.492 -297.86)"/><path class="j" d="M930.37,385.79s17.839,26.93,16.506,60.293" transform="translate(-723.656 -301.713)"/><path class="b" d="M1010.832,524.683s-16.176-8.8-14.128,23.683c0,0,13.494-.482,18.283-11.49a9.543,9.543,0,0,0-3.918-12.057Z" transform="translate(-772.749 -403.978)"/><path class="j" d="M1011.584,528s-2.089,16.862-14.394,23.627" transform="translate(-773.243 -407.246)"/><path class="k" d="M481.676,128.211l-6.066,1.382h0l-2.718.423a7.879,7.879,0,0,1-5.947-1.426c-2.138-1.612-3.76-4.555-.4-9.666,6.107-9.285,7.7-12.477,3.451-15.928a29.273,29.273,0,0,0-2.631-1.906,6.684,6.684,0,0,0,3.244-1.676,8.085,8.085,0,0,0,1.364-2.342l2.62-5.96a15.762,15.762,0,0,0,1.6-5.186,6.608,6.608,0,0,0,0-.846,17.006,17.006,0,0,0-.622-4.32l-1.5-6.381a7.112,7.112,0,0,0-2.352-4.384l-2.538-2.644c-3.353-3.492-7.291-7.242-12.122-7.183a17.725,17.725,0,0,0-4.936,1.011l-6.793,2.04a7.914,7.914,0,0,0-2.889,1.333c-1.805,1.547-1.872,4.3-3.157,6.29-1.666,2.579-5.385,3.943-5.695,7a3.952,3.952,0,0,0,0,.655c-.139,2.063,1.411,3.938,1.547,5.989-.077,1.271-.732,2.5-.637,3.758a3.439,3.439,0,0,0,.018.714c.083.6.343,1.171.407,1.772a5.513,5.513,0,0,1-1.382,2.651c-4.139.366-8.093,1.939-9.076,5.47-1.328,4.779-16.859,22.438-16.859,22.438l-3.716,1.87s-9.558-8.23-10.089-1.594,6.9,13.274,13.274,9.824c0,0,6.909-2.3,12.7-4.191a9.393,9.393,0,0,0,5.885-5.633l.879,8.784S417.9,139.928,416.294,156a50.333,50.333,0,0,0-.258,5.042,56.022,56.022,0,0,0,2.19,16.008l11.415,2.125s.219.046.609.116c2.723,4.96,6.027,11.394,6.027,13.424,0,0,3.185,7.433,2.388,10.355-.774,2.865-4.885,10.337-3.028,20.153l-2.551,22.415,5.558,1.346.021.157h.634l.24.057.016-.057h5.506l.57.477c-.023-.165-.052-.322-.083-.477h.021A15.781,15.781,0,0,1,446.9,241.3a103.839,103.839,0,0,1,.284-18.146,30.517,30.517,0,0,1,4.552-8.24l5.854-9.509a25.272,25.272,0,0,0,3-15.3,5.041,5.041,0,0,1,.034-1.547c.026-.147,0-.173,0-.173a130.371,130.371,0,0,0-.477-14.523,11.535,11.535,0,0,1,4.281-3.18s-.044-.152-.124-.426c.165-.072.258-.106.258-.106s-5.31-18.585-10.355-20.442c0,0-1.957-7.833-.83-12.9a7.124,7.124,0,0,1,.7-1.7l.16-.2c.634,1.259,3.17,5.674,7.276,4.978,4.779-.8,16.194-3.982,16.194-3.982s-.031-.2-.072-.536a19.912,19.912,0,0,1,5.382-.792c1.859.258,11.149-3.982,9.285-8.769S481.676,128.211,481.676,128.211Z" transform="translate(-325.452 -60.07)"/><path class="l" d="M654.567,768.251c-.018.064-.036.129-.054.188a3.466,3.466,0,0,1-.242.593c-.6,1.148-1.658,1.238-2.806.936s-2-.887-1.976-2.153a3.322,3.322,0,0,1,.072-.622h0c.016-.083.036-.165.059-.258a6.188,6.188,0,0,1,.415-1.1,7.39,7.39,0,0,1,.428-.774,7.023,7.023,0,0,1,.449-.624,5.1,5.1,0,0,1,.82-.82,1.832,1.832,0,0,1,1.547-.475,1.77,1.77,0,0,1,1.091,1.148,4.88,4.88,0,0,1,.294,1.011,7.116,7.116,0,0,1,.111,1.094h0c0,.258,0,.5-.018.743A6.166,6.166,0,0,1,654.567,768.251Z" transform="translate(-515.215 -581.713)"/><path class="m" d="M658.752,766.812a7.016,7.016,0,0,0-3.742-.861,5.1,5.1,0,0,1,.82-.82,4.978,4.978,0,0,1,2.628.673,4.875,4.875,0,0,1,.294,1.008Z" transform="translate(-519.313 -583.214)"/><path class="m" d="M656.329,772.573c-1.032-.6-3.041-1.6-4.709-1.308a7.384,7.384,0,0,1,.428-.774c.83-.193,2.267-.132,4.3,1.331h0A4.272,4.272,0,0,1,656.329,772.573Z" transform="translate(-516.797 -587.139)"/><path class="m" d="M649.5,778.864c1.651-.384,3.693.591,4.782,1.217a3.466,3.466,0,0,0,.242-.593c-2.631-1.947-4.289-1.547-4.952-1.246h0Z" transform="translate(-515.224 -592.762)"/><path class="n" d="M991.391,610.7l.1.129a2.865,2.865,0,0,1,.276.451,2.236,2.236,0,0,1-3.159,2.579,2.743,2.743,0,0,1-.377-.353h0q-.07-.077-.139-.162a5.1,5.1,0,0,1-.516-.818,6.112,6.112,0,0,1-.3-.66,5.793,5.793,0,0,1-.193-.6,4.214,4.214,0,0,1-.142-.947,1.536,1.536,0,0,1,.441-1.253,1.466,1.466,0,0,1,1.29-.16,4.029,4.029,0,0,1,.815.3,5.874,5.874,0,0,1,.774.464h0c.168.119.33.245.482.377A5.093,5.093,0,0,1,991.391,610.7Z" transform="translate(-765.636 -467.231)"/><path class="o" d="M989.453,609.4a5.681,5.681,0,0,0-2.411,2.063,4.209,4.209,0,0,1-.142-.946,4.126,4.126,0,0,1,1.738-1.413A4.033,4.033,0,0,1,989.453,609.4Z" transform="translate(-765.607 -467.43)"/><path class="o" d="M991.674,612.419a6.507,6.507,0,0,0-3.185,2.481,6.112,6.112,0,0,1-.3-.66c.281-.647,1.032-1.571,3-2.2h0C991.36,612.161,991.522,612.288,991.674,612.419Z" transform="translate(-766.564 -469.612)"/><path class="o" d="M992.309,619.59c.557-1.289,2.21-2.161,3.159-2.579a2.863,2.863,0,0,0-.276-.451c-2.579.789-3.144,2.079-3.263,2.672h0Z" transform="translate(-769.339 -472.966)"/><path class="p" d="M709.7,317.076l5.893-1.346s8.511-6.963,10.316-2.321-7.221,8.769-9.027,8.511-7.221,1.29-7.221,1.29Z" transform="translate(-559.868 -246.815)"/><rect class="q" width="22.18" height="22.18" transform="translate(117.038 21.979)"/><rect class="r" width="22.18" height="22.18" transform="translate(117.038 21.979)"/><path class="p" d="M555.341,483.847s5.321,17.476,4.531,20.736c0,0,1.308,7.737-.111,10.316s-7.19,8.872-7.492,18.884L549.69,556.51l6.267,1.519a15.332,15.332,0,0,1,2.582-5.215s2.927-18.662,9.254-26.152l5.687-9.238a24.56,24.56,0,0,0,2.914-14.858,4.9,4.9,0,0,1,.031-1.509c.023-.142,0-.168,0-.168s.279-13.2-1-16.694S555.341,483.847,555.341,483.847Z" transform="translate(-441.155 -373.515)"/><path class="s" d="M555.341,483.847s5.321,17.476,4.531,20.736c0,0,1.308,7.737-.111,10.316s-7.19,8.872-7.492,18.884L549.69,556.51l6.267,1.519a15.332,15.332,0,0,1,2.582-5.215s2.927-18.662,9.254-26.152l5.687-9.238a24.56,24.56,0,0,0,2.914-14.858,4.9,4.9,0,0,1,.031-1.509c.023-.142,0-.168,0-.168s.279-13.2-1-16.694S555.341,483.847,555.341,483.847Z" transform="translate(-441.155 -373.515)"/><path class="i" d="M526.66,481.225s9.285,15.732,9.285,19.085c0,0,3.095,7.221,2.321,10.058s-4.9,10.316-2.837,20.117l2.837,22.7h6.448a15.332,15.332,0,0,1,1.29-5.674s-1.547-18.827,2.837-27.6l3.353-10.316a24.517,24.517,0,0,0-.753-15.345,3.727,3.727,0,0,1-.279-1.419h0s-2.837-12.9-4.9-15.99S526.66,481.225,526.66,481.225Z" transform="translate(-424.065 -368.724)"/><path class="p" d="M525.66,481.225s9.285,15.732,9.285,19.085c0,0,3.095,7.221,2.321,10.058s-4.9,10.316-2.837,20.117l2.837,22.7h6.448a15.332,15.332,0,0,1,1.29-5.674s-1.547-18.827,2.837-27.6l3.353-10.316a24.517,24.517,0,0,0-.753-15.345,3.727,3.727,0,0,1-.279-1.419h0s-2.837-12.9-4.9-15.99S525.66,481.225,525.66,481.225Z" transform="translate(-423.323 -368.724)"/><path class="p" d="M612.555,164.837s-2.579,9.542-1.29,12.379-4.126,12.637-4.126,12.637l-7.479-19.085A11.967,11.967,0,0,0,601.207,162Z" transform="translate(-478.238 -135.639)"/><path class="t" d="M481.054,195.813a42.338,42.338,0,0,1-8.382-.129c-5.158-.516-11.735.645-13.024,5.287s-16.377,21.793-16.377,21.793l-3.611,1.805s1.547,4.384,3.095,8c0,0,6.706-2.239,12.338-4.07a9.125,9.125,0,0,0,5.715-5.475h0l1.032,10.316,23.727,4.384,2.837-2.063s2.579,5.932,7.221,5.158,15.732-3.869,15.732-3.869-.774-5.158,0-6.448l-4.666.717a7.655,7.655,0,0,1-5.777-1.385c-2.079-1.568-3.652-4.426-.389-9.39,5.932-9.027,7.479-12.122,3.353-15.474s-11.477-6.835-11.477-6.835l-4,13.024Z" transform="translate(-359.503 -160.553)"/><path class="i" d="M509.448,194l-4.944.91s11.907,25.138,4.944,39.581c0,0-10.93-.988-13.847-3.587,0,0-15.812,17.514-8.075,44.852l11.09,2.063s8.769,1.805,12.9,0,6.963-.516,6.963-.516,5.674,2.321,8-2.063a12.127,12.127,0,0,1,5.932-5.674s-5.158-18.053-10.058-19.859c0,0-2.579-10.316,0-14.7l1.032-1.29s8.253-3.353,6.963-15.216l-.258-20.632-2.321-.516s1.032,21.922-5.416,20.117S509.448,194,509.448,194Z" transform="translate(-393.442 -159.387)"/><path class="u" d="M532.4,267.566a12.126,12.126,0,0,0-5.932,5.674c-2.321,4.384-8,2.063-8,2.063s-2.837-1.289-6.963.516-12.9,0-12.9,0l-11.09-2.063a57.087,57.087,0,0,1-1.633-7.737,52.71,52.71,0,0,1-.487-6.107,50.121,50.121,0,0,1,.24-6.089C487.209,238.2,495.6,228.9,495.6,228.9l.064.054a4.211,4.211,0,0,0,.364.279c.121.085.258.165.392.245,3.734,2.172,13.027,3.01,13.027,3.01,6.963-14.443-4.944-39.581-4.944-39.581l4.944-.91s6.448,21.664,12.9,23.469,5.416-20.117,5.416-20.117l2.321.516.258,20.632c1.29,11.864-6.963,15.216-6.963,15.216l-1.032,1.29c-2.579,4.384,0,14.7,0,14.7C527.244,249.513,532.4,267.566,532.4,267.566Z" transform="translate(-393.443 -157.902)"/><path class="p" d="M411.385,296.317s-9.285-8-9.8-1.547,6.706,12.9,12.9,9.543Z" transform="translate(-331.228 -232.302)"/><path class="i" d="M602,171.118a11.09,11.09,0,0,0,10.984.395c.472-2.54,1.045-4.666,1.045-4.666l-11.348-2.837A12.271,12.271,0,0,1,602,171.118Z" transform="translate(-479.974 -137.131)"/><path class="i" d="M522.965,242.51s.774,4.9-1.805,12.379" transform="translate(-419.983 -195.386)"/><path class="i" d="M539.16,297.51s4.642,5.416,9.285,6.706" transform="translate(-433.341 -236.201)"/><path class="i" d="M466.16,290.572s4.642.258,7.479-1.805,3.869,1.805,3.869,1.805" transform="translate(-379.168 -229.263)"/><path class="i" d="M575.6,409.629a31.248,31.248,0,0,0-6.834,1.676c-3.353,1.29-11.09.258-11.606-1.805" transform="translate(-446.699 -319.308)"/><g class="e" transform="translate(101.808 34.098)"><path d="M587.248,215.469a2.419,2.419,0,0,0,1.357.015l-.067-.015c-6.448-1.805-12.9-23.469-12.9-23.469l-1.222.224C575.124,194.522,581.185,213.775,587.248,215.469Z" transform="translate(-561.316 -192)"/><path d="M536.647,338.677l.059-.132c-2.94-.346-10.3-1.393-12.617-3.456,0,0-.175.2-.48.573C527.337,337.839,536.647,338.677,536.647,338.677Z" transform="translate(-523.61 -298.186)"/><path d="M569.01,514.249a12.628,12.628,0,0,1-4.57.794,14.7,14.7,0,0,0,5.86-.794,11.089,11.089,0,0,1,3.683-.939A10.47,10.47,0,0,0,569.01,514.249Z" transform="translate(-553.91 -430.43)"/><path d="M622.151,257.355s-2.579-10.316,0-14.7l1.032-1.29s8.253-3.353,6.963-15.216l-.258-20.632L627.567,205v.289l1.032.227.258,20.632c1.29,11.864-6.963,15.216-6.963,15.216l-1.032,1.29c-2.579,4.384,0,14.7,0,14.7,4.9,1.805,10.058,19.859,10.058,19.859a12.126,12.126,0,0,0-5.932,5.674,4.849,4.849,0,0,1-4.093,2.649,5.185,5.185,0,0,0,5.383-2.649,12.126,12.126,0,0,1,5.932-5.674S627.052,259.16,622.151,257.355Z" transform="translate(-594.929 -201.647)"/></g><circle class="p" cx="11.09" cy="11.09" r="11.09" transform="translate(117.038 12.952)"/><path class="i" d="M571.986,87.534c.428-.317.727-.854,1.248-.965a1.333,1.333,0,0,1,1.091.366c1.256,1.06,1.243,2.994.872,4.6s-1,3.242-.614,4.838a6,6,0,0,1,.392,1.805c-.09,1.29-1.571,2.123-1.805,3.4s.812,2.649.206,3.786c-.232.436-.668.727-.939,1.143-1.075,1.648.967,3.58,1.266,5.524a1.7,1.7,0,0,0,.335,1.032,1.362,1.362,0,0,0,1.261.116l4.364-1.055a5.885,5.885,0,0,0,5.37-4.129l2.543-5.793a15.233,15.233,0,0,0,1.547-5.039,15.7,15.7,0,0,0-.593-4.5l-1.452-6.19A6.937,6.937,0,0,0,584.8,82.2l-2.466-2.579c-3.265-3.389-7.087-7.03-11.791-6.974a17.8,17.8,0,0,0-4.8.983l-6.6,2.017a7.771,7.771,0,0,0-2.806,1.29c-1.751,1.493-1.805,4.175-3.067,6.11-1.617,2.507-5.23,3.83-5.532,6.8-.222,2.184,1.581,4.155,1.506,6.35-.046,1.333-.789,2.613-.609,3.936.085.619.369,1.2.407,1.829.106,1.725-1.589,2.956-2.383,4.49a1.643,1.643,0,0,0-.227,1.06c.113.549.653.89,1.155,1.132a12.72,12.72,0,0,0,6.543,1.233,4.126,4.126,0,0,0,2.048-.6,3.616,3.616,0,0,0,1.256-3.226,35.885,35.885,0,0,0-.681-3.551c-.83-4.993,2.089-9.777,5.068-13.87,1.346-1.847,2.716-3.056,5.006-2.321C568.308,86.756,570.418,88.695,571.986,87.534Z" transform="translate(-438.729 -69.331)"/><path class="q" d="M571.986,85.534c.428-.317.727-.854,1.248-.965a1.333,1.333,0,0,1,1.091.366c1.256,1.06,1.243,2.994.872,4.6s-1,3.242-.614,4.838a6,6,0,0,1,.392,1.805c-.09,1.29-1.571,2.123-1.805,3.4s.812,2.649.206,3.786c-.232.436-.668.727-.939,1.143-1.075,1.648.967,3.58,1.266,5.524a1.7,1.7,0,0,0,.335,1.032,1.362,1.362,0,0,0,1.261.116l4.364-1.055a5.885,5.885,0,0,0,5.37-4.129l2.543-5.793a15.233,15.233,0,0,0,1.547-5.039,15.7,15.7,0,0,0-.593-4.5l-1.452-6.19A6.937,6.937,0,0,0,584.8,80.2l-2.466-2.579c-3.265-3.389-7.087-7.03-11.791-6.974a17.8,17.8,0,0,0-4.8.983l-6.6,2.017a7.771,7.771,0,0,0-2.806,1.29c-1.751,1.493-1.805,4.175-3.067,6.11-1.617,2.507-5.23,3.83-5.532,6.8-.222,2.184,1.581,4.155,1.506,6.35-.046,1.333-.789,2.613-.609,3.936.085.619.369,1.2.407,1.829.106,1.725-1.589,2.956-2.383,4.49a1.643,1.643,0,0,0-.227,1.06c.113.549.653.89,1.155,1.132a12.72,12.72,0,0,0,6.543,1.233,4.126,4.126,0,0,0,2.048-.6,3.616,3.616,0,0,0,1.256-3.226,35.885,35.885,0,0,0-.681-3.551c-.83-4.993,2.089-9.777,5.068-13.87,1.346-1.847,2.716-3.056,5.006-2.321C568.308,84.756,570.418,86.695,571.986,85.534Z" transform="translate(-438.729 -67.847)"/><path class="i" d="M494.053,346.811c-2.785,6.858-5.48,10.866-7.683,13.207,1.563-15.619,9.955-24.919,9.955-24.919l.064.054A28.6,28.6,0,0,1,494.053,346.811Z" transform="translate(-394.166 -264.096)"/><path class="i" d="M608.16,681.51a5.581,5.581,0,0,0,3.095,2.063" transform="translate(-484.546 -521.165)"/><path class="i" d="M573.07,756.87s5.478.235,6.143,5.143" transform="translate(-458.506 -577.089)"/><path class="v" d="M545.971,658.348l-5-5v-6.19s4.949,1.393,5.416-5.1l-4.794-4.642h0c-1.016-.972-11.711-10.659-24.5.077h17.022c-1.068,1.313-2.205,3.451-.869,5.646,2.164,3.557-3.74,11.5-6.339,13.455a66.383,66.383,0,0,0-6.8,6.78,7.588,7.588,0,0,0-.58-1.1c-1.932-2.974-6.641-1.181-5.986,2.3a2.948,2.948,0,0,0,.622,1.359,2.9,2.9,0,0,0,2.246,1.014h2.672c-.31,2.837.351,6.706,5.506,8.351h16.547s.464-4.642-6.03-5.568c0,0,6.339-.155,6.03-10.205,0,0,1.7,2.009,3.557,1.393v2.791s3.079-.593,2.4-3.433A4.126,4.126,0,0,0,545.971,658.348Z" transform="translate(-414.284 -484.778)"/><path class="w" d="M758.783,300.646h-3.443a15.113,15.113,0,0,0-12.661-14.311,11.49,11.49,0,0,0,3.268-1.437c2.063-1.411,2.117-3.508.949-4.126s-3.773.064-5.179,1.854a4.93,4.93,0,0,0-.949,2,4.928,4.928,0,0,0-.949-2c-1.406-1.79-4.01-2.486-5.179-1.854s-1.119,2.729.949,4.126a11.136,11.136,0,0,0,3,1.357,15.1,15.1,0,0,0-13.251,14.386H722.16v4.624h3.5l.113.815h.129l1.055,5.073,1.016,4.9,1.032,4.972h22.66l.647-3.121.941-4.534,1.516-7.294h.655l.113-.815h3.239ZM740.34,287.3a13.688,13.688,0,0,1,13.411,13.341h-1.885c.08-.206.155-.413.214-.619a5.286,5.286,0,0,0,.2-1.088,1.93,1.93,0,0,0-.459-1.6,1.827,1.827,0,0,0-1.62-.291,5.1,5.1,0,0,0-1.127.377c-.124.057-.258.119-.369.183l-.041-.023a4.038,4.038,0,0,0-.833-.317,1.486,1.486,0,0,0-1.326.168,1.155,1.155,0,0,0-.353.547,1.494,1.494,0,0,0-.82-.655,1.83,1.83,0,0,0-1.571.5,5.3,5.3,0,0,0-.838.864,7.4,7.4,0,0,0-.456.658,7.849,7.849,0,0,0-.436.807c-.077.162-.144.325-.206.487h-2.6a7.647,7.647,0,0,0-.108-1.032,5.267,5.267,0,0,0-.3-1.065,1.88,1.88,0,0,0-1.114-1.21,1.7,1.7,0,0,0-1.408.379,1.267,1.267,0,0,0-.258-.371,1.815,1.815,0,0,0-1.62-.291,5.1,5.1,0,0,0-1.127.377,7.1,7.1,0,0,0-.7.371,7.525,7.525,0,0,0-.745.516c-.1.077-.193.157-.286.237-.088-.049-.173-.1-.258-.144a4.04,4.04,0,0,0-.833-.317,1.486,1.486,0,0,0-1.326.168,1.628,1.628,0,0,0-.451,1.32,4.568,4.568,0,0,0,.144,1,.432.432,0,0,0,.021.077h-1.927A13.679,13.679,0,0,1,740.34,287.3Z" transform="translate(-569.145 -223.61)"/><path class="l" d="M772.567,353.251c-.018.064-.036.129-.054.188a3.467,3.467,0,0,1-.242.593c-.6,1.148-1.658,1.238-2.806.936s-2-.887-1.976-2.154a3.316,3.316,0,0,1,.072-.622h0c.016-.083.036-.165.059-.258a6.192,6.192,0,0,1,.415-1.1,7.394,7.394,0,0,1,.428-.774,7.015,7.015,0,0,1,.449-.624,5.1,5.1,0,0,1,.82-.82,1.832,1.832,0,0,1,1.547-.475,1.77,1.77,0,0,1,1.091,1.148,4.882,4.882,0,0,1,.294,1.011,7.122,7.122,0,0,1,.111,1.094h0c0,.258,0,.5-.018.743a6.166,6.166,0,0,1-.191,1.117Z" transform="translate(-602.782 -273.744)"/><path class="m" d="M776.752,351.812a7.015,7.015,0,0,0-3.742-.861,5.1,5.1,0,0,1,.82-.82,4.979,4.979,0,0,1,2.628.673A4.875,4.875,0,0,1,776.752,351.812Z" transform="translate(-606.88 -275.245)"/><path class="m" d="M774.329,357.573c-1.032-.6-3.041-1.6-4.709-1.308a7.369,7.369,0,0,1,.428-.774c.83-.193,2.267-.132,4.3,1.331h0A4.278,4.278,0,0,1,774.329,357.573Z" transform="translate(-604.364 -279.17)"/><path class="m" d="M767.5,363.864c1.651-.384,3.693.591,4.782,1.217a3.472,3.472,0,0,0,.242-.593c-2.631-1.947-4.289-1.547-4.952-1.246h0Z" transform="translate(-602.791 -284.793)"/><path class="c" d="M818.084,352.522l-.134.142a3.467,3.467,0,0,1-.485.42c-1.06.748-2.04.348-2.925-.444s-1.375-1.7-.774-2.816a3.312,3.312,0,0,1,.346-.516h0c.052-.064.108-.132.168-.2a6.191,6.191,0,0,1,.872-.792,7.384,7.384,0,0,1,.73-.487,7.015,7.015,0,0,1,.683-.351,5.1,5.1,0,0,1,1.1-.358,1.818,1.818,0,0,1,1.586.276,1.791,1.791,0,0,1,.449,1.519,4.878,4.878,0,0,1-.2,1.032,7.113,7.113,0,0,1-.4,1.032h0c-.108.224-.227.444-.353.652A6.166,6.166,0,0,1,818.084,352.522Z" transform="translate(-636.929 -272.974)"/><path class="d" d="M828.29,350.1a6.872,6.872,0,0,0-2.94-2.468,5.1,5.1,0,0,1,1.1-.358,1.958,1.958,0,0,1,1.836,2.827Z" transform="translate(-645.721 -273.127)"/><path class="d" d="M823.451,353.814c-.64-1-1.978-2.809-3.611-3.306a7.39,7.39,0,0,1,.73-.487c.828.206,2.081.913,3.224,3.141h0A5.611,5.611,0,0,1,823.451,353.814Z" transform="translate(-641.632 -275.168)"/><path class="d" d="M814.51,356.293c1.645.408,3.023,2.205,3.706,3.26a3.465,3.465,0,0,0,.485-.42c-1.457-2.932-3.11-3.337-3.843-3.353h0Z" transform="translate(-637.677 -279.443)"/><path class="l" d="M801.567,353.251c-.018.064-.036.129-.054.188a3.463,3.463,0,0,1-.242.593c-.6,1.148-1.658,1.238-2.806.936s-2-.887-1.976-2.154a3.316,3.316,0,0,1,.072-.622h0c.015-.083.036-.165.059-.258a6.191,6.191,0,0,1,.415-1.1,7.4,7.4,0,0,1,.428-.774,7.015,7.015,0,0,1,.449-.624,5.1,5.1,0,0,1,.82-.82,1.832,1.832,0,0,1,1.547-.475,1.77,1.77,0,0,1,1.091,1.148,4.875,4.875,0,0,1,.294,1.011,7.122,7.122,0,0,1,.111,1.094h0c0,.258,0,.5-.018.743A6.166,6.166,0,0,1,801.567,353.251Z" transform="translate(-624.303 -273.744)"/><path class="m" d="M805.752,351.812a7.015,7.015,0,0,0-3.742-.861,5.1,5.1,0,0,1,.82-.82,4.979,4.979,0,0,1,2.628.673,4.875,4.875,0,0,1,.294,1.008Z" transform="translate(-628.401 -275.245)"/><path class="m" d="M803.329,357.573c-1.032-.6-3.041-1.6-4.709-1.308a7.388,7.388,0,0,1,.428-.774c.83-.193,2.267-.132,4.3,1.331h0A4.266,4.266,0,0,1,803.329,357.573Z" transform="translate(-625.885 -279.17)"/><path class="m" d="M796.5,363.864c1.651-.384,3.693.591,4.781,1.217a3.458,3.458,0,0,0,.242-.593c-2.631-1.947-4.289-1.547-4.952-1.246h0Z" transform="translate(-624.312 -284.793)"/><path class="n" d="M818.391,349.7l.1.129a2.859,2.859,0,0,1,.276.451,2.236,2.236,0,0,1-3.159,2.579,2.739,2.739,0,0,1-.377-.353h0q-.07-.077-.139-.162a5.1,5.1,0,0,1-.516-.818,6.111,6.111,0,0,1-.3-.66,5.792,5.792,0,0,1-.193-.6,4.21,4.21,0,0,1-.142-.947,1.536,1.536,0,0,1,.441-1.253,1.466,1.466,0,0,1,1.289-.16,4.029,4.029,0,0,1,.815.3,5.874,5.874,0,0,1,.774.464h0c.168.119.33.245.482.377a5.093,5.093,0,0,1,.65.655Z" transform="translate(-637.254 -273.544)"/><path class="o" d="M816.453,348.4a5.682,5.682,0,0,0-2.411,2.063,4.21,4.21,0,0,1-.142-.947,4.126,4.126,0,0,1,1.738-1.413A4.029,4.029,0,0,1,816.453,348.4Z" transform="translate(-637.224 -273.743)"/><path class="o" d="M818.674,351.419a6.508,6.508,0,0,0-3.185,2.481,6.1,6.1,0,0,1-.3-.66c.281-.647,1.032-1.571,3-2.2h0C818.36,351.161,818.522,351.288,818.674,351.419Z" transform="translate(-638.182 -275.925)"/><path class="o" d="M819.309,358.59c.557-1.29,2.21-2.161,3.159-2.579a2.859,2.859,0,0,0-.276-.451c-2.579.789-3.144,2.079-3.263,2.672h0Z" transform="translate(-640.957 -279.279)"/><path class="n" d="M752.392,352.7l.1.129a2.86,2.86,0,0,1,.276.451,2.236,2.236,0,0,1-3.159,2.579,2.737,2.737,0,0,1-.377-.353h0q-.07-.077-.139-.162a5.106,5.106,0,0,1-.516-.818,6.111,6.111,0,0,1-.3-.66,5.806,5.806,0,0,1-.193-.6,4.22,4.22,0,0,1-.142-.947,1.536,1.536,0,0,1,.441-1.253,1.466,1.466,0,0,1,1.29-.16,4.029,4.029,0,0,1,.815.3,5.879,5.879,0,0,1,.774.464h0c.168.119.33.245.482.377A5.1,5.1,0,0,1,752.392,352.7Z" transform="translate(-588.276 -275.77)"/><path class="o" d="M750.453,351.4a5.681,5.681,0,0,0-2.411,2.063,4.214,4.214,0,0,1-.142-.947,4.127,4.127,0,0,1,1.738-1.413A4.03,4.03,0,0,1,750.453,351.4Z" transform="translate(-588.246 -275.97)"/><path class="o" d="M752.674,354.419a6.508,6.508,0,0,0-3.185,2.481,6.1,6.1,0,0,1-.3-.66c.281-.647,1.032-1.571,3-2.2h0C752.36,354.161,752.522,354.288,752.674,354.419Z" transform="translate(-589.203 -278.151)"/><path class="o" d="M753.309,361.59c.557-1.29,2.21-2.161,3.159-2.579a2.865,2.865,0,0,0-.276-.451c-2.579.789-3.144,2.079-3.263,2.672h0Z" transform="translate(-591.979 -281.506)"/><path class="c" d="M758.084,352.522l-.134.142a3.463,3.463,0,0,1-.485.42c-1.06.748-2.04.348-2.925-.444s-1.375-1.7-.774-2.816a3.315,3.315,0,0,1,.346-.516h0c.052-.064.108-.132.168-.2a6.191,6.191,0,0,1,.872-.792,7.4,7.4,0,0,1,.73-.487,7.015,7.015,0,0,1,.683-.351,5.1,5.1,0,0,1,1.1-.358,1.818,1.818,0,0,1,1.586.276,1.79,1.79,0,0,1,.449,1.519,4.874,4.874,0,0,1-.2,1.032,7.114,7.114,0,0,1-.4,1.032h0c-.108.224-.227.444-.353.652a6.166,6.166,0,0,1-.671.89Z" transform="translate(-592.403 -272.974)"/><path class="d" d="M768.29,350.1a6.872,6.872,0,0,0-2.94-2.468,5.1,5.1,0,0,1,1.1-.358,1.958,1.958,0,0,1,1.836,2.827Z" transform="translate(-601.196 -273.127)"/><path class="d" d="M763.451,353.814c-.64-1-1.978-2.809-3.611-3.306a7.385,7.385,0,0,1,.73-.487c.828.206,2.081.913,3.224,3.141h0A5.611,5.611,0,0,1,763.451,353.814Z" transform="translate(-597.107 -275.168)"/><path class="d" d="M754.51,356.293c1.645.408,3.023,2.205,3.706,3.26a3.462,3.462,0,0,0,.485-.42c-1.457-2.932-3.11-3.337-3.843-3.353h0Z" transform="translate(-593.151 -279.443)"/><path class="b" d="M749.861,335.9a14.359,14.359,0,1,1,14.7-14.355A14.553,14.553,0,0,1,749.861,335.9Zm0-27.622a13.265,13.265,0,1,0,13.153,13.264A13.224,13.224,0,0,0,749.861,308.278Z" transform="translate(-578.792 -243.384)"/><path class="b" d="M635.237,305.44l-2.313,10.791-.923,4.3-.632,2.961h-22.18l-1.014-4.72-1-4.65-1.859-8.684Z" transform="translate(-449.21 -226.593)"/><path class="i" d="M606.766,311.535h29.022l.449-3.095H606.32Z" transform="translate(-449.952 -228.819)"/><rect class="b" width="35.849" height="4.384" transform="translate(153.273 77.557)"/><path class="o" d="M767.122,397.517l-.921,4.294c-5.888.121-13.135-.09-15.593-1.682-2.267-1.467-5.571-.934-8.232-.077l-1-4.642c3.152-1.148,8.369-2.409,11.291.343C755.152,398.087,761.757,398.2,767.122,397.517Z" transform="translate(-583.408 -307.879)"/><path class="x" d="M773.436,288.489a4.534,4.534,0,0,1,.928,3.928,14.018,14.018,0,0,1-5.07-1.761c-2.025-1.339-2.063-3.33-.928-3.928S772.059,286.789,773.436,288.489Z" transform="translate(-602.878 -228.038)"/><path class="x" d="M794.377,288.489a4.534,4.534,0,0,0-.928,3.928,14.019,14.019,0,0,0,5.07-1.762c2.025-1.339,2.063-3.33.928-3.928S795.754,286.789,794.377,288.489Z" transform="translate(-621.96 -228.038)"/><line class="x" x2="4.384" y2="3.998" transform="translate(171.327 63.986)"/><line class="x" x1="4.384" y2="3.998" transform="translate(166.942 63.986)"/><path class="p" d="M738.16,325.352s4.9-3.8,6.448-.761c0,0-5.158,2.28-6.448,1.9Z" transform="translate(-581.018 -255.423)"/><path class="a" d="M203.18,436.7s-6.363-21.6,1.189-37.5a34.112,34.112,0,0,0,2.76-21.406,57.384,57.384,0,0,0-3.03-10.058" transform="translate(-182.152 -288.311)"/><path class="b" d="M204.588,314.7c0,2.649-4.794,10.316-4.794,10.316S195,317.353,195,314.7a4.794,4.794,0,1,1,9.586,0Z" transform="translate(-177.938 -245.32)"/><path class="b" d="M235.185,364.091c-1.439,2.223-9.635,6.061-9.635,6.061s.15-9.05,1.589-11.273a4.794,4.794,0,1,1,8.047,5.21Z" transform="translate(-200.613 -280.042)"/><path class="b" d="M228.836,456.737c-2.365,1.191-11.376.369-11.376.369s4.7-7.737,7.061-8.929a4.794,4.794,0,1,1,4.318,8.561Z" transform="translate(-194.609 -347.628)"/><path class="b" d="M211.912,531.253c-2.128,1.573-11.152,2.285-11.152,2.285s3.322-8.418,5.45-9.994a4.794,4.794,0,1,1,5.7,7.709Z" transform="translate(-182.216 -403.242)"/><path class="b" d="M182.588,387.7c1.9,1.844,10.747,3.755,10.747,3.755s-2.166-8.787-4.065-10.633a4.794,4.794,0,0,0-6.68,6.876Z" transform="translate(-167.714 -297.081)"/><path class="b" d="M159.475,471.067c2.365,1.192,11.376.369,11.376.369s-4.689-7.74-7.061-8.918a4.794,4.794,0,1,0-4.318,8.561Z" transform="translate(-149.621 -358.269)"/><path class="b" d="M154.02,558.42c2.128,1.573,11.152,2.285,11.152,2.285s-3.317-8.418-5.452-9.991a4.794,4.794,0,1,0-5.7,7.709Z" transform="translate(-146.087 -423.404)"/><path class="y" d="M204.588,314.7c0,2.649-4.794,10.316-4.794,10.316S195,317.353,195,314.7a4.794,4.794,0,1,1,9.586,0Z" transform="translate(-177.938 -245.32)"/><path class="y" d="M235.185,364.091c-1.439,2.223-9.635,6.061-9.635,6.061s.15-9.05,1.589-11.273a4.794,4.794,0,1,1,8.047,5.21Z" transform="translate(-200.613 -280.042)"/><path class="y" d="M228.836,456.737c-2.365,1.191-11.376.369-11.376.369s4.7-7.737,7.061-8.929a4.794,4.794,0,1,1,4.318,8.561Z" transform="translate(-194.609 -347.628)"/><path class="y" d="M211.912,531.253c-2.128,1.573-11.152,2.285-11.152,2.285s3.322-8.418,5.45-9.994a4.794,4.794,0,1,1,5.7,7.709Z" transform="translate(-182.216 -403.242)"/><path class="y" d="M182.588,387.7c1.9,1.844,10.747,3.755,10.747,3.755s-2.166-8.787-4.065-10.633a4.794,4.794,0,0,0-6.68,6.876Z" transform="translate(-167.714 -297.081)"/><path class="y" d="M159.475,471.067c2.365,1.192,11.376.369,11.376.369s-4.689-7.74-7.061-8.918a4.794,4.794,0,1,0-4.318,8.561Z" transform="translate(-149.621 -358.269)"/><path class="y" d="M154.02,558.42c2.128,1.573,11.152,2.285,11.152,2.285s-3.317-8.418-5.452-9.991a4.794,4.794,0,1,0-5.7,7.709Z" transform="translate(-146.087 -423.404)"/><path class="a" d="M694.823,514.28a47.861,47.861,0,0,0-2.321,30.544c4.441,16.555,3.03,36.365-1.4,41.265" transform="translate(-546.014 -397.065)"/><circle class="b" cx="1.865" cy="1.865" r="1.865" transform="translate(146.944 115.348)"/><path class="a" d="M694.94,545.449s7.01,1.264,8.875-1.289" transform="translate(-548.945 -419.238)"/><path class="a" d="M680.877,543.456s-4.222-4.666-3.985-7.456" transform="translate(-535.544 -413.183)"/><path class="a" d="M691,579.448s3.835,1.011,7.335-6.448" transform="translate(-546.021 -440.64)"/><path class="a" d="M670.547,593.092s-9.543-6.141-8.379-10.1" transform="translate(-524.551 -448.054)"/><path class="a" d="M700.72,615.538s6.685-5.932,5.986-11.768" transform="translate(-553.234 -463.475)"/><path class="a" d="M679.786,647.857s-8.511-2.378-8.253-6.107" transform="translate(-531.571 -491.659)"/><path class="a" d="M705.85,661.5s5.362-4.967,6.061-8" transform="translate(-557.041 -500.379)"/><path class="a" d="M690.8,689.4s-5.5-6.422-5.736-9.684" transform="translate(-541.613 -519.837)"/><path class="a" d="M707.3,708.8s6.154-6.84,6.628-10.1" transform="translate(-558.117 -533.922)"/><circle class="b" cx="1.865" cy="1.865" r="1.865" transform="translate(139.483 121.412)"/><circle class="b" cx="1.865" cy="1.865" r="1.865" transform="translate(137.384 148.223)"/><circle class="b" cx="1.865" cy="1.865" r="1.865" transform="translate(135.754 133.069)"/><circle class="b" cx="1.865" cy="1.865" r="1.865" transform="translate(153.005 123.044)"/><circle class="b" cx="1.865" cy="1.865" r="1.865" transform="translate(153.005 151.721)"/><circle class="b" cx="1.865" cy="1.865" r="1.865" transform="translate(149.975 130.503)"/><circle class="b" cx="1.865" cy="1.865" r="1.865" transform="translate(153.704 164.077)"/><circle class="b" cx="1.865" cy="1.865" r="1.865" transform="translate(141.116 159.182)"/><circle class="b" cx="1.865" cy="1.865" r="1.865" transform="translate(151.839 138.431)"/><circle class="y" cx="1.865" cy="1.865" r="1.865" transform="translate(146.944 115.348)"/><circle class="y" cx="1.865" cy="1.865" r="1.865" transform="translate(139.483 121.412)"/><circle class="y" cx="1.865" cy="1.865" r="1.865" transform="translate(137.384 148.223)"/><circle class="y" cx="1.865" cy="1.865" r="1.865" transform="translate(135.754 133.069)"/><circle class="y" cx="1.865" cy="1.865" r="1.865" transform="translate(153.005 123.044)"/><circle class="y" cx="1.865" cy="1.865" r="1.865" transform="translate(153.005 151.721)"/><circle class="y" cx="1.865" cy="1.865" r="1.865" transform="translate(149.975 130.503)"/><circle class="y" cx="1.865" cy="1.865" r="1.865" transform="translate(153.704 164.077)"/><circle class="y" cx="1.865" cy="1.865" r="1.865" transform="translate(141.116 159.182)"/><circle class="y" cx="1.865" cy="1.865" r="1.865" transform="translate(151.839 138.431)"/></g></svg>