<svg xmlns="http://www.w3.org/2000/svg" width="185.375" height="64.92" viewBox="0 0 185.375 64.92"><defs><style>.a{fill:#f7b248;}.b{fill:#2f2e41;}.c{fill:none;stroke:#2f2e41;stroke-linecap:round;stroke-linejoin:round;stroke-width:0.2px;}.d{fill:#ccc;}.e{fill:#3f3d56;}</style></defs><g transform="translate(-24.983 -241.681)"><g transform="translate(26.426 241.682)"><path class="a" d="M323.488,484.818a1.046,1.046,0,0,1-.318-.05,1.033,1.033,0,0,1-.608-.514l-1-1.948a1.041,1.041,0,0,1,.448-1.4l16.24-8.373a1.041,1.041,0,0,1,1.4.448l1,1.948a1.041,1.041,0,0,1-.448,1.4l-16.24,8.373A1.033,1.033,0,0,1,323.488,484.818Z" transform="translate(-301.332 -454.149)"/><path class="b" d="M329.425,502.349a1.044,1.044,0,0,1,.11.192l1.716,3.748a1.04,1.04,0,0,1-.531,1.372l-5.772,2.017a2.6,2.6,0,0,1-3.19-1.313l.067-.033-.067.032a2.6,2.6,0,0,1,1.077-3.409l5.322-2.943A1.041,1.041,0,0,1,329.425,502.349Z" transform="translate(-301.378 -479.271)"/><circle class="a" cx="7.949" cy="7.949" r="7.949" transform="translate(7.387 5.923)"/><path class="a" d="M270.344,666.005h-2.192a1.041,1.041,0,0,1-1.04-1.04V646.694a1.041,1.041,0,0,1,1.04-1.04h2.192a1.041,1.041,0,0,1,1.04,1.04v18.272A1.041,1.041,0,0,1,270.344,666.005Z" transform="translate(-255.072 -601.654)"/><path class="a" d="M302.344,666.005h-2.192a1.041,1.041,0,0,1-1.04-1.04V646.694a1.041,1.041,0,0,1,1.04-1.04h2.192a1.041,1.041,0,0,1,1.04,1.04v18.272A1.041,1.041,0,0,1,302.344,666.005Z" transform="translate(-282.319 -601.654)"/><path class="b" d="M239.936,524.946c0,6.481-6.1,8.571-12.577,8.571s-10.892-2.09-10.892-8.571,4.362-17.527,10.843-17.527S239.936,518.465,239.936,524.946Z" transform="translate(-211.949 -483.953)"/><path class="b" d="M.008,5.057,0,4.76a2.457,2.457,0,0,0,1.406-.318A.913.913,0,0,0,1.76,3.77a.522.522,0,0,0-.171-.43.9.9,0,0,0-.919-.008l-.246.113L.895,0l.294.04-.4,2.93a1.049,1.049,0,0,1,.992.143.813.813,0,0,1,.276.667,1.208,1.208,0,0,1-.475.9A2.734,2.734,0,0,1,.008,5.057Z" transform="translate(14.462 12.141) rotate(-17)"/><rect class="b" width="1.6" height="0.297" transform="translate(17.077 11.648) rotate(-17)"/><rect class="b" width="1.6" height="0.297" transform="translate(12.248 13.125) rotate(-17)"/><path class="b" d="M195.042,361.117a3.6,3.6,0,0,1,2.779-1.421,12.728,12.728,0,0,1,3.553.351,9.481,9.481,0,0,0,3.978.167,3.922,3.922,0,0,0,2.666-2.153,5.016,5.016,0,0,0,.292-3.345,6.08,6.08,0,0,0-1.989-3.018,10.2,10.2,0,0,0-6.876-2.264,11.626,11.626,0,0,0-6.74,2.37,10.947,10.947,0,0,0-3.883,6.086,11.412,11.412,0,0,0,.553,7.178c.536,1.243,1.311,2.364,1.909,3.576a5.319,5.319,0,0,1,.639,3.7,3.431,3.431,0,0,1-2.317,2.385,2.433,2.433,0,0,1-2.706-1.1,2.035,2.035,0,0,1,3.246-2.456,2.125,2.125,0,0,1,.425,1.558c-.041.28.388.4.43.118a2.514,2.514,0,0,0-4.687-1.623,2.716,2.716,0,0,0,.41,2.919,2.845,2.845,0,0,0,2.9,1.043,3.84,3.84,0,0,0,2.581-2.3,4.956,4.956,0,0,0-.217-3.761c-.529-1.278-1.314-2.425-1.935-3.656A10.412,10.412,0,0,1,189,361.909a11.257,11.257,0,0,1,1.606-7.131,10.463,10.463,0,0,1,5.763-4.38,10.935,10.935,0,0,1,7.235.191c2.264.892,4.451,2.836,4.424,5.448a4.015,4.015,0,0,1-1.28,3,4.779,4.779,0,0,1-3.726.826c-1.292-.14-2.546-.517-3.843-.613a6,6,0,0,0-3.353.564,3.353,3.353,0,0,0-1.165,1.08C194.5,361.131,194.884,361.355,195.042,361.117Z" transform="translate(-186.05 -349.429)"/><path class="a" d="M212.786,561.6a1.048,1.048,0,0,1-.157-.012l-2.167-.33a1.041,1.041,0,0,1-.871-1.184l2.749-18.064a1.041,1.041,0,0,1,1.184-.871l2.167.33a1.041,1.041,0,0,1,.871,1.184l-2.749,18.064A1.041,1.041,0,0,1,212.786,561.6Z" transform="translate(-206.084 -512.649)"/><path class="b" d="M219.472,540.026a1.042,1.042,0,0,1-.22-.024l-4.041-.813a1.04,1.04,0,0,1-.8-1.235l1.759-5.856a2.6,2.6,0,0,1,2.937-1.81l-.013.073.013-.073a2.6,2.6,0,0,1,2.126,2.875l-.745,6.035A1.042,1.042,0,0,1,219.472,540.026Z" transform="translate(-210.179 -503.39)"/><path class="c" d="M1.418,0,2.836,1.418H0Z" transform="matrix(-0.946, 0.326, -0.326, -0.946, 18.466, 18.397)"/></g><g transform="translate(75.108 275.215)"><path class="d" d="M360.7,622.7a3.628,3.628,0,0,1,0-7.235h49.82a2.892,2.892,0,0,0-2.559-1.641H315.384a5.274,5.274,0,0,0,0,10.516H407.96a2.892,2.892,0,0,0,2.559-1.641Z" transform="translate(-280.617 -593.12)"/><path class="d" d="M732.537,632.316H681.449a.3.3,0,1,1,0-.59h51.088a.3.3,0,1,1,0,.59Z" transform="translate(-603.01 -607.983)"/><path class="d" d="M732.537,643.609H681.449a.3.3,0,1,1,0-.591h51.088a.3.3,0,1,1,0,.591Z" transform="translate(-603.011 -617.356)"/><path class="d" d="M732.537,654.9H681.449a.3.3,0,0,1,0-.591h51.088a.3.3,0,1,1,0,.591Z" transform="translate(-603.01 -626.729)"/><path class="a" d="M279.041,562.755a3.628,3.628,0,0,1,0-7.235h49.82a2.892,2.892,0,0,0-2.559-1.641H233.726a5.274,5.274,0,0,0,0,10.516H326.3a2.892,2.892,0,0,0,2.559-1.641Z" transform="translate(-214.43 -543.369)"/><path class="d" d="M650.879,572.376H599.791a.3.3,0,1,1,0-.591h51.088a.3.3,0,0,1,0,.591Z" transform="translate(-536.546 -558.218)"/><path class="d" d="M650.879,583.669H599.791a.3.3,0,0,1,0-.591h51.088a.3.3,0,1,1,0,.591Z" transform="translate(-536.546 -567.594)"/><path class="d" d="M650.879,594.962H599.791a.3.3,0,1,1,0-.591h51.088a.3.3,0,0,1,0,.591Z" transform="translate(-536.546 -576.978)"/><path class="d" d="M197.383,500.815a3.628,3.628,0,0,1,0-7.235H247.2a2.892,2.892,0,0,0-2.559-1.641H152.068a5.274,5.274,0,0,0,0,10.516h92.576a2.892,2.892,0,0,0,2.559-1.641Z" transform="translate(-147.199 -491.939)"/><path class="d" d="M569.221,510.435H518.133a.3.3,0,1,1,0-.591h51.088a.3.3,0,1,1,0,.591Z" transform="translate(-469.471 -506.799)"/><path class="d" d="M569.221,521.728H518.133a.3.3,0,1,1,0-.591h51.088a.3.3,0,0,1,0,.591Z" transform="translate(-469.471 -516.172)"/><path class="d" d="M569.221,533.022H518.133a.3.3,0,1,1,0-.591h51.088a.3.3,0,0,1,0,.591Z" transform="translate(-469.471 -525.548)"/></g><path class="e" d="M414.956,782.031H230.232a.4.4,0,0,1,0-.781H414.956a.4.4,0,0,1,0,.781Z" transform="translate(-204.924 -475.43)"/><g transform="translate(72.271 244.014)"><path class="a" d="M360.7,622.7a3.628,3.628,0,0,1,0-7.235h49.82a2.892,2.892,0,0,0-2.559-1.641H315.384a5.274,5.274,0,0,0,0,10.516H407.96a2.892,2.892,0,0,0,2.559-1.641Z" transform="translate(-280.617 -593.12)"/><path class="d" d="M732.537,632.316H681.449a.3.3,0,1,1,0-.59h51.088a.3.3,0,1,1,0,.59Z" transform="translate(-603.01 -607.983)"/><path class="d" d="M732.537,643.609H681.449a.3.3,0,1,1,0-.591h51.088a.3.3,0,1,1,0,.591Z" transform="translate(-603.011 -617.356)"/><path class="d" d="M732.537,654.9H681.449a.3.3,0,0,1,0-.591h51.088a.3.3,0,1,1,0,.591Z" transform="translate(-603.01 -626.729)"/><path class="d" d="M279.041,562.755a3.628,3.628,0,0,1,0-7.235h49.82a2.892,2.892,0,0,0-2.559-1.641H233.726a5.274,5.274,0,0,0,0,10.516H326.3a2.892,2.892,0,0,0,2.559-1.641Z" transform="translate(-214.43 -543.369)"/><path class="d" d="M650.879,572.376H599.791a.3.3,0,1,1,0-.591h51.088a.3.3,0,0,1,0,.591Z" transform="translate(-536.546 -558.218)"/><path class="d" d="M650.879,583.669H599.791a.3.3,0,0,1,0-.591h51.088a.3.3,0,1,1,0,.591Z" transform="translate(-536.546 -567.594)"/><path class="d" d="M650.879,594.962H599.791a.3.3,0,1,1,0-.591h51.088a.3.3,0,0,1,0,.591Z" transform="translate(-536.546 -576.978)"/><path class="a" d="M197.383,500.815a3.628,3.628,0,0,1,0-7.235H247.2a2.892,2.892,0,0,0-2.559-1.641H152.068a5.274,5.274,0,0,0,0,10.516h92.576a2.892,2.892,0,0,0,2.559-1.641Z" transform="translate(-147.199 -491.939)"/><path class="d" d="M569.221,510.435H518.133a.3.3,0,1,1,0-.591h51.088a.3.3,0,1,1,0,.591Z" transform="translate(-469.471 -506.799)"/><path class="d" d="M569.221,521.728H518.133a.3.3,0,1,1,0-.591h51.088a.3.3,0,0,1,0,.591Z" transform="translate(-469.471 -516.172)"/><path class="d" d="M569.221,533.022H518.133a.3.3,0,1,1,0-.591h51.088a.3.3,0,0,1,0,.591Z" transform="translate(-469.471 -525.548)"/></g></g></svg>