<svg xmlns="http://www.w3.org/2000/svg" width="249.67" height="232.572" viewBox="0 0 249.67 232.572"><defs><style>.a{fill:#e6e6e6;}.b{fill:#2f2e41;}.c{fill:#f7b248;}.d{fill:#ccc;}.e{fill:#3f3d56;}.f{opacity:0.1;isolation:isolate;}</style></defs><path class="a" d="M426.865,381.105c-1.214,0-2.44-.019-3.643-.057l.027-.874c1.728.054,3.492.069,5.228.045l.012.875Q427.678,381.105,426.865,381.105Zm6.888-.2-.051-.873c1.731-.1,3.483-.246,5.21-.426l.091.87c-1.74.182-3.506.327-5.25.43Zm-15.79-.136c-1.745-.134-3.509-.309-5.242-.522l.107-.868c1.72.211,3.47.385,5.2.517Zm26.265-.962-.131-.865c1.72-.261,3.452-.564,5.149-.9l.17.858c-1.71.34-3.455.645-5.188.908Zm-36.718-.32c-1.724-.292-3.464-.628-5.172-1l.186-.855c1.695.368,3.422.7,5.133.991Zm47.048-1.733-.21-.849c1.688-.417,3.385-.879,5.045-1.371l.249.839c-1.673.5-3.383.961-5.083,1.381Zm-57.341-.5c-1.691-.45-3.393-.945-5.058-1.471l.264-.834c1.653.522,3.341,1.013,5.019,1.459Zm67.438-2.494-.287-.826c1.638-.569,3.285-1.185,4.9-1.83l.325.813c-1.624.65-3.284,1.27-4.935,1.844Zm-77.495-.685c-1.642-.6-3.3-1.255-4.912-1.936l.34-.807c1.6.676,3.244,1.322,4.874,1.922Zm87.263-3.223-.362-.8c1.573-.715,3.154-1.478,4.7-2.268l.4.779c-1.557.8-3.15,1.564-4.735,2.285Zm-96.99-.872c-1.579-.752-3.164-1.553-4.71-2.379l.412-.772c1.535.82,3.107,1.614,4.674,2.361Zm106.351-3.913-.433-.76c1.508-.861,3.014-1.766,4.475-2.69l.467.739C486.822,364.283,485.3,365.195,483.784,366.062ZM368.13,365c-1.5-.893-3.005-1.835-4.469-2.8l.481-.731c1.453.957,2.945,1.892,4.435,2.778Zm124.545-4.567-.5-.717c1.42-.992,2.838-2.032,4.213-3.089l.533.694C495.535,358.39,494.106,359.437,492.675,360.437ZM359.325,359.2c-1.412-1.026-2.823-2.1-4.193-3.194l.546-.684c1.36,1.086,2.76,2.152,4.161,3.169Zm141.7-5.182-.564-.669c1.324-1.117,2.642-2.281,3.917-3.46l.594.643c-1.285,1.188-2.612,2.361-3.947,3.487ZM351.09,352.629c-1.315-1.152-2.622-2.35-3.883-3.561l.606-.631c1.252,1.2,2.549,2.391,3.854,3.534Zm157.662-5.758-.623-.614c1.221-1.237,2.428-2.517,3.588-3.8l.65.585c-1.169,1.3-2.385,2.587-3.615,3.833ZM343.49,345.336c-1.207-1.269-2.4-2.58-3.542-3.9l.661-.573c1.135,1.308,2.317,2.609,3.515,3.868ZM515.8,339.045l-.676-.555c1.1-1.342,2.188-2.726,3.228-4.116l.7.524C518.009,336.3,516.915,337.693,515.8,339.045Zm-179.216-1.661c-1.084-1.369-2.151-2.783-3.171-4.2l.71-.511c1.013,1.408,2.072,2.811,3.147,4.17ZM522.116,330.6l-.724-.491c.976-1.437,1.931-2.915,2.84-4.4l.746.458C524.062,327.667,523.1,329.157,522.116,330.6Zm-191.675-1.763c-.953-1.461-1.886-2.965-2.773-4.471l.754-.444c.88,1.494,1.806,2.987,2.753,4.437Zm197.193-7.223-.766-.423c.84-1.52,1.656-3.081,2.426-4.64l.784.388c-.776,1.57-1.6,3.143-2.445,4.675ZM325.1,319.779c-.816-1.542-1.607-3.125-2.352-4.7l.791-.373c.739,1.566,1.524,3.137,2.334,4.667Zm207.2-7.619-.8-.351c.7-1.592,1.367-3.223,1.99-4.846l.817.314C533.684,308.913,533.009,310.556,532.307,312.161Zm-211.689-1.888c-.671-1.61-1.313-3.257-1.909-4.9l.822-.3c.591,1.626,1.229,3.26,1.894,4.858ZM536.09,302.3l-.83-.275c.546-1.645,1.061-3.327,1.531-5l.842.237c-.474,1.685-.993,3.379-1.543,5.037Zm-219.067-1.917c-.521-1.667-1.01-3.371-1.454-5.063l.846-.222c.441,1.68.926,3.37,1.443,5.025Zm221.919-8.222-.852-.2c.392-1.686.75-3.408,1.065-5.118l.86.158c-.317,1.723-.678,3.458-1.073,5.158ZM314.351,290.2c-.365-1.709-.7-3.45-.981-5.175l.863-.144c.284,1.713.612,3.44.974,5.136Zm226.5-8.392-.867-.119c.235-1.714.434-3.461.591-5.194l.871.079c-.158,1.746-.358,3.507-.6,5.234Zm-228.222-2c-.206-1.732-.376-3.5-.5-5.243L313,274.5c.127,1.734.295,3.484.5,5.2ZM541.8,271.318l-.874-.039c.078-1.734.118-3.492.118-5.226h.875c0,1.747-.04,3.519-.118,5.265Zm-229.942-2.013c-.03-1.073-.045-2.167-.045-3.252q0-1.01.017-2.016l.875.015q-.017,1-.017,2c0,1.077.015,2.163.045,3.228Zm229.179-4.473c-.018-1.735-.076-3.493-.172-5.226l.873-.049c.1,1.746.156,3.518.174,5.265Zm-228.124-6-.873-.055c.109-1.748.26-3.514.448-5.248l.87.094c-.186,1.721-.336,3.473-.444,5.208ZM540.455,254.4c-.175-1.725-.392-3.47-.646-5.187l.866-.128c.255,1.73.475,3.489.651,5.227Zm-226.417-5.957-.865-.134c.268-1.731.58-3.475.926-5.186l.857.173C314.613,244.989,314.3,246.72,314.038,248.438Zm224.888-4.381c-.334-1.707-.71-3.425-1.119-5.106l.85-.207c.412,1.694.792,3.426,1.128,5.145ZM316.11,238.194l-.849-.213c.425-1.695.9-3.4,1.4-5.079l.838.252C317,234.817,316.532,236.512,316.11,238.194ZM536.454,233.9c-.488-1.666-1.021-3.342-1.585-4.981l.827-.285c.568,1.652,1.106,3.341,1.6,5.02ZM319.122,228.17l-.825-.29c.581-1.654,1.209-3.316,1.866-4.939l.811.328c-.652,1.611-1.275,3.26-1.852,4.9Zm213.934-4.154c-.638-1.61-1.322-3.226-2.032-4.8l.8-.359c.716,1.589,1.4,3.218,2.047,4.84Zm-210.007-5.557-.8-.365c.731-1.591,1.508-3.187,2.312-4.743l.777.4C324.546,215.3,323.774,216.88,323.049,218.459Zm205.725-3.953c-.783-1.545-1.613-3.092-2.466-4.6l.761-.431c.86,1.519,1.7,3.079,2.485,4.635Zm-200.923-5.35-.758-.437c.873-1.516,1.793-3.033,2.736-4.509l.737.471c-.935,1.465-1.849,2.97-2.715,4.474Zm195.783-3.734c-.925-1.472-1.893-2.938-2.877-4.358l.719-.5c.992,1.431,1.968,2.908,2.9,4.391Zm-190.151-5.085-.715-.5c1.009-1.431,2.063-2.856,3.135-4.238l.691.536C335.53,197.5,334.483,198.918,333.483,200.338Zm184.2-3.5c-1.054-1.381-2.152-2.754-3.264-4.08l.671-.562c1.12,1.337,2.227,2.72,3.289,4.111Zm-177.789-4.768-.666-.567c1.132-1.329,2.312-2.653,3.506-3.933l.64.6C342.187,189.441,341.016,190.754,339.893,192.074Zm171.078-3.241c-1.175-1.279-2.395-2.547-3.623-3.768l.617-.621c1.238,1.231,2.466,2.508,3.651,3.8Zm-163.946-4.4-.612-.625c1.251-1.224,2.546-2.434,3.848-3.6l.583.653c-1.292,1.153-2.577,2.354-3.819,3.569Zm156.532-2.966c-1.288-1.168-2.618-2.32-3.953-3.424l.558-.674c1.344,1.112,2.685,2.273,3.982,3.451ZM354.82,177.47l-.552-.678c1.353-1.1,2.752-2.189,4.157-3.23l.521.7C357.551,175.3,356.163,176.376,354.82,177.47ZM495.5,174.8c-1.39-1.046-2.82-2.073-4.25-3.052l.494-.722c1.441.986,2.882,2.02,4.282,3.075ZM363.212,171.25l-.488-.726c1.448-.974,2.939-1.929,4.432-2.837l.455.748C366.129,169.336,364.649,170.283,363.212,171.25Zm123.653-2.358c-1.479-.915-3-1.807-4.513-2.652l.426-.764c1.528.851,3.058,1.75,4.548,2.672Zm-114.734-3.067-.42-.768c1.532-.838,3.1-1.652,4.669-2.418l.384.786c-1.554.76-3.113,1.567-4.634,2.4Zm105.59-2.027c-1.557-.776-3.152-1.525-4.74-2.227l.354-.8c1.6.707,3.208,1.463,4.777,2.244ZM381.5,161.241l-.348-.8c1.6-.694,3.239-1.36,4.868-1.978l.311.818C384.716,159.892,383.091,160.553,381.5,161.241Zm86.64-1.677c-1.62-.628-3.278-1.228-4.928-1.781l.279-.83c1.663.558,3.333,1.162,4.966,1.8Zm-76.881-2.028-.273-.831c1.663-.545,3.359-1.058,5.042-1.525l.234.843C394.595,156.485,392.911,156.994,391.261,157.535Zm66.96-1.3c-1.669-.476-3.371-.919-5.059-1.317l.2-.851c1.7.4,3.416.847,5.1,1.326Zm-56.888-1.494-.195-.853c1.7-.389,3.441-.744,5.161-1.054l.156.861c-1.707.308-3.43.66-5.121,1.046Zm46.716-.9c-1.7-.32-3.439-.6-5.158-.846l.121-.866c1.732.243,3.481.53,5.2.852Zm-36.43-.952-.116-.867c1.732-.231,3.493-.425,5.235-.577l.076.872c-1.728.151-3.476.343-5.2.573Zm26.08-.5c-1.723-.162-3.477-.288-5.214-.371l.043-.874c1.749.085,3.517.211,5.253.374Zm-15.667-.407-.037-.874c1.608-.067,3.247-.1,4.871-.1h.4l0,.875h-.393c-1.612,0-3.239.034-4.835.1Z" transform="translate(-299.058 -151)"/><path class="b" d="M608.349,661.977V614.135a2.531,2.531,0,0,1,2.528-2.528h5.74a2.531,2.531,0,0,1,2.528,2.528v47.842a2.531,2.531,0,0,1-2.528,2.528h-5.74a2.531,2.531,0,0,1-2.528-2.528Z" transform="translate(-480.267 -432.469)"/><path class="b" d="M579.156,661.977V614.135a2.531,2.531,0,0,1,2.528-2.528h5.74a2.531,2.531,0,0,1,2.528,2.528v47.842a2.531,2.531,0,0,1-2.528,2.528h-5.74a2.531,2.531,0,0,1-2.528-2.528Z" transform="translate(-462.428 -432.469)"/><rect class="b" width="27.908" height="30.921" rx="6" transform="translate(113.849 165.871)"/><path class="a" d="M439.961,377.432s-11.729,5.449-21.655,9.062c-6.159-13.9-15.033-13.384-15.033-13.384l-5.38,3.7.97,5.556-.265,9.084-1.411,4.762,2.025.366,1.144.207.172-.156a11.753,11.753,0,0,0-.343,3.463l50.886-7.937S449.309,383.958,439.961,377.432Z" transform="translate(-351.23 -286.726)"/><rect class="c" width="10.407" height="52.509" rx="5.204" transform="matrix(-0.594, -0.804, 0.804, -0.594, 78.503, 168.714)"/><rect class="c" width="10.407" height="52.509" rx="5.204" transform="matrix(0.883, -0.469, 0.469, 0.883, 132.131, 133.227)"/><path class="d" d="M640.56,501.9l-8.281,5.49a2.474,2.474,0,0,1-3.385-.845l-9.146-17.233a2.474,2.474,0,0,1,1.2-3.277l5.636-2.991a2.474,2.474,0,0,1,3.385.845l11.79,14.735A2.474,2.474,0,0,1,640.56,501.9Z" transform="translate(-487.081 -353.703)"/><path class="d" d="M527.557,496.572l5.382,7.148a2.333,2.333,0,0,0,3.3.1l14.225-13.352a2.334,2.334,0,0,0,.1-3.3l-3.928-4.185a2.333,2.333,0,0,0-3.3-.1l-15.679,10.389a2.333,2.333,0,0,0-.1,3.3Z" transform="translate(-430.51 -353.423)"/><rect class="d" width="30.749" height="60.078" rx="6" transform="translate(112.429 128.755)"/><circle class="c" cx="20.814" cy="20.814" r="20.814" transform="translate(106.837 83.509)"/><path class="b" d="M605.045,416.306a7.158,7.158,0,0,1-4.118-.981,3.162,3.162,0,0,1-1.245-2.362,2.127,2.127,0,0,1,.723-1.747,2.744,2.744,0,0,1,2.6-.374l-1.05-7.672.771-.106,1.234,9.019-.643-.3a2.354,2.354,0,0,0-2.406.021,1.367,1.367,0,0,0-.448,1.126,2.39,2.39,0,0,0,.926,1.761,6.432,6.432,0,0,0,3.681.831Z" transform="translate(-474.968 -305.032)"/><rect class="b" width="4.189" height="0.778" transform="translate(118.985 98.799)"/><rect class="b" width="4.189" height="0.778" transform="translate(132.208 98.799)"/><path class="b" d="M560.145,343.862c-3.373-.385-5.986-3.617-6.273-6.9-.341-3.9,1.931-7.607,5.048-9.8a21.553,21.553,0,0,1,11.251-3.456,30.923,30.923,0,0,1,21.137,6.967c2.945,2.446,5.695,5.561,6.737,9.324a9.031,9.031,0,0,1-2.46,9.259,6.213,6.213,0,0,1-4.768,1.468,11.85,11.85,0,0,1-5.55-2.468c-3.168-2.3-5.77-5.513-9.63-6.717-2.83-.883-6.5-.106-8.233,2.454a4.658,4.658,0,0,0-.744,1.952.6.6,0,0,0,.407.718.587.587,0,0,0,.718-.407c.454-3.224,4.418-4.427,7.2-3.691,4.056,1.073,6.779,4.693,10.106,6.992a12.282,12.282,0,0,0,5.885,2.349,7.308,7.308,0,0,0,5.135-1.578,9.986,9.986,0,0,0,3.3-9.582c-.728-4.025-3.437-7.475-6.41-10.146a32.065,32.065,0,0,0-21.913-8.1,23.975,23.975,0,0,0-11.946,3.117,13.046,13.046,0,0,0-6.44,9.735,9.191,9.191,0,0,0,4.954,8.964,7.757,7.757,0,0,0,2.486.7c.745.085.739-1.082,0-1.167Z" transform="translate(-446.245 -255.804)"/><path class="d" d="M398.933,396.088l2.469-.794c.265-.507-.22-.182.011-.675,6.247-13.328.474-21.505.474-21.505l-4.467,3.075c-.011-.025-.02-.051-.031-.077,0,0-.794-1.764-2.028-.441a31.308,31.308,0,0,1-.441,21.166l5.027,2.293,1.94-2.293.044-.22-3.472-.316Z" transform="translate(-349.844 -286.73)"/><path class="e" d="M469.285,466.972c-19.843-4.41-38.319,4.718-38.319,4.718l-.05-.045-7.358-6.569-28.75-46.918,7.011.044c19.49-11.641,46.918-10.054,46.918-10.054C460.554,421.553,469.285,466.972,469.285,466.972Z" transform="translate(-349.775 -308.094)"/><path class="f" d="M430.915,487.487l-7.358-6.569L394.807,434l7.011.044S429.763,470.951,430.915,487.487Z" transform="translate(-349.775 -323.937)"/><ellipse class="c" cx="11.377" cy="7.232" rx="11.377" ry="7.232" transform="translate(69.252 116.451) rotate(-17.052)"/><path class="d" d="M324.261,357.084c-1.584,5.857-7.011,9.484-7.011,9.484s-2.858-5.868-1.274-11.725,7.011-9.484,7.011-9.484S325.845,351.228,324.261,357.084Z" transform="translate(-301.31 -269.77)"/><path class="d" d="M300.218,357.084c1.584,5.857,7.011,9.484,7.011,9.484s2.858-5.868,1.274-11.725-7.011-9.484-7.011-9.484S298.634,351.228,300.218,357.084Z" transform="translate(-291.681 -269.77)"/><path class="e" d="M289.884,365.062c4.348,4.232,4.879,10.738,4.879,10.738s-6.518-.356-10.865-4.588-4.879-10.738-4.879-10.738S285.536,360.83,289.884,365.062Z" transform="translate(-279.019 -279.006)"/><path class="e" d="M324.379,365.062c-4.348,4.232-4.879,10.738-4.879,10.738s6.518-.356,10.865-4.588,4.879-10.738,4.879-10.738S328.726,360.83,324.379,365.062Z" transform="translate(-303.756 -279.006)"/><path class="d" d="M885.261,527.084c-1.584,5.857-7.011,9.484-7.011,9.484s-2.858-5.868-1.274-11.725,7.011-9.484,7.011-9.484S886.845,521.228,885.261,527.084Z" transform="translate(-644.128 -373.654)"/><path class="d" d="M861.218,527.084c1.584,5.857,7.011,9.484,7.011,9.484s2.858-5.868,1.274-11.725-7.011-9.484-7.011-9.484S859.634,521.228,861.218,527.084Z" transform="translate(-634.499 -373.654)"/><path class="e" d="M850.884,535.062c4.348,4.232,4.879,10.738,4.879,10.738s-6.518-.356-10.865-4.588-4.879-10.738-4.879-10.738S846.536,530.83,850.884,535.062Z" transform="translate(-621.836 -382.891)"/><path class="e" d="M885.379,535.062c-4.348,4.232-4.879,10.738-4.879,10.738s6.518-.356,10.865-4.588,4.878-10.738,4.878-10.738S889.726,530.83,885.379,535.062Z" transform="translate(-646.574 -382.891)"/><rect class="e" width="90.229" height="0.778" transform="translate(83.214 231.794)"/></svg>