<svg xmlns="http://www.w3.org/2000/svg" xmlns:xlink="http://www.w3.org/1999/xlink" width="634.021" height="162.941" viewBox="0 0 634.021 162.941"><defs><style>.a{clip-path:url(#a);}.b{fill:#ffdcba;}</style><clipPath id="a"><path d="M31.75,150.688H665.771V286.331H31.75Zm0,0" transform="translate(-31.75 -150.688)"/></clipPath></defs><g transform="translate(-64.52 -296.908)"><g class="a" transform="translate(64.52 306.215)"><path class="b" d="M556.472,174.784c9.4-.468,18.749-1.191,28.124-1.762,18.8-1.04,37.4-2.754,56.1-4.191-.913,4.8-1.77,9.788.929,13.915,0,0,2.9-.373,6.477-1.064,3.588-.651,7.89-1.429,10.764-1.953,24.29,7.089,20.94,23.75,10.28,37.166-2.77,2.834-5.9,6.033-9.462,9.3-2.993.071-5.993.135-8.962.2-13.5.373-26.814,1.024-40.238,2.151-13.344.81-26.743,1.9-40.317,3.1-27.1,2.111-35.126,4.493-64.425,4.858-41.1-.643,40.817-3.2,0,0,48.469-1.7-30.323,3.485,18.98.794,12.344-.619,4.89-1.238,17.154-1.85q18.444-.667,36.7-1.334c12.209-.445,24.3-.492,36.411-.683,12.153-.286,24.163-.2,36.221-.079-9.089,6.827-20.1,12.613-33.451,14.55q-47.747,3.132-94.359,6.184c-.143-2.286-24.33,1.873-45.723,3.247-21.377,1.222-42.444-2.985-63.647-2.493-42.421,1.127-126.88,14.272-127.468,15.781-.214.024-.421.04-.619.056.2-.016.4-.032.619-.056-.524,1.334-.127,2.3,5.318,1.921-5.445.381-5.842-.587-5.318-1.921,86.024-8.287,146.8-12.216,233.3-16.273C452.771,258.831,406.977,264.118,341,269.6c-65.965,5.445-132.31,10.954-200.735,15.154-5.819.357-17.5,1.064-23.33,1.421-23.584-5.414-47.017-6.319-70.3-4.985,5.422-11.693-18.694-33.046,28.092-31.2-.079-2.27-.238-6.811-.325-9.081-23.552-4.318-39.761-14.217-44.929-24.4-2.381-5.072-2.08-10.343,2.183-15.034,4.437-4.715,11.836-8.827,23.433-11.772,52.033-12.082,122.157-7.231,185.907-16.082,46.421-5.374,92.779-10.97,139.4-10.042,64.171,1.857,113.854-6.327,177.85-4.286,11.6-.191,27.315-3.263,41.643-5.541,14.265-2.429,26.989-4.382,33.022-1.77,8.486,2.072,9.3,6.827,8.557,12.359-18.884,2.27-37.666,4.874-56.614,6.676-9.454.961-18.861,2.04-28.3,2.858q-14.169,1.167-28.259,2.326" transform="translate(-35.639 -150.637)"/></g><g transform="translate(159.869 308.511)"><g transform="translate(0 0)"><path d="M60.142,33.215a68.43,68.43,0,0,0-8.97-.254c-8.962.516-17.924,2.723-26.5,5.326,6.5-16.5,9.748-34.046,15.336-50.93,2.723-8.192,5.715-17.281,11.042-24.171,1.167-1.556,4.025-5.064,6.493-4.414,2.08.643,1.04,5.969.651,7.406.524-1.826,2.731-9.232-2.6-7.279-5.715,2.08-9.1,10.391-11.3,15.463,1.945-4.683,4.159-9.875,7.8-13.518,1.556-1.429,5.326-4.287,7.017-1.818,1.556,2.342-.389,7.668-1.04,9.875a88.131,88.131,0,0,1-4.937,12.605c0-.262,1.691-4.421,1.556-4.421-.516-.127-5.064,9.359-5.064,9.486h.127a.932.932,0,0,1-.389.389c-1.04,1.953,1.04,2.866,2.731,2.993,2.6.262,5.453-1.04,7.533-2.6C65.08-16.8,69.755-26.55,69.366-33.432c-.389-5.588-2.469-9.621-7.93-12.605a19.115,19.115,0,0,0-10.391-2.731c-5.2.262-9.224,3.644-12.082,7.8A49.7,49.7,0,0,0,34.026-30.32l-1.818,5.461c-.524,1.429-1.953,3.771-1.691,5.2,0,.254.9-1.691,1.04-1.826-.778,2.469-1.429,5.072-2.207,7.668-.135-.127.389-1.945.254-1.945-.651,0-2.858,8.311-3.12,8.962A90.24,90.24,0,0,0,23.239,7.623a89.226,89.226,0,0,1-2.334,13.121c-.524,2.469-1.3,4.81-1.953,7.279-.389,1.683-2.469,6.366-1.818,8.057a.246.246,0,0,0,.389,0c-.389,1.167-.516,2.207-.9,3.247a20.65,20.65,0,0,0,.516-2.731c-.651.389-.778,3.509-.778,3.382-.778,2.072-3.247,2.072-5.2,2.985a12.675,12.675,0,0,0-4.414,2.985C4.013,48.678.5,53.489,1.806,57.775c.9,3.12,4.414,3.9,7.271,3.509,1.3-.262,5.326-1.564,5.072-3.247-.135-.262-2.08,1.04-2.731,1.294A23.935,23.935,0,0,0,14.15,57c-.135.389,2.469-2.469,2.723-2.858,1.429-1.953,3.12-2.731,5.2-3.771A68.3,68.3,0,0,1,32.987,45.3c8.057-2.858,16.892-3.12,24.552-7.017C59.492,37.375,64.691,33.739,60.142,33.215ZM32.725-23.3a53.245,53.245,0,0,1,7.533-14.812c2.731-3.763,5.85-6.1,10.01-7.009-10.4,2.6-14.034,16.884-18.059,25.719-1.3,3.12-2.469,6.239-3.509,9.621C29.867-14.333,31.3-18.755,32.725-23.3Zm6.89,10.137v.127l-2.993,8.97c.913-3.12,1.953-6.1,2.993-9.224ZM11.284,59.466a.132.132,0,0,1,.135-.135Zm0,0" transform="translate(-1.526 48.802)"/></g></g><g transform="translate(221.605 354.555)"><g transform="translate(0 0)"><path d="M49.762-5.11c0,.127,0,.127-.127,0v-.127c-2.08-3.509-4.81,1.294-5.977,2.985C41.443.74,39.371,3.6,37.029,6.321a70.3,70.3,0,0,0-5.588,7.152,4.045,4.045,0,0,1-.262.9,28.562,28.562,0,0,1-1.945,2.215c-1.175,1.167-2.342,2.469-3.644,3.636C23.646,22.046,12.731,32.31,11.3,25.681c-.778-3.247.262-7.271.913-10.391.389-1.691.778-3.247,1.04-4.937.254-1.3-.135-2.6.516-3.9.389-.778.516-.651,1.429-.913l2.207-.778a23.666,23.666,0,0,0,4.159-1.818,41.95,41.95,0,0,0,5.461-4.025c4.025-3.382,8.311-7.406,10-12.478.9-2.858,1.04-5.977-.778-8.446-1.691-2.207-4.548-3.374-7.152-3.9-7.009-1.294-12.344,2.731-16.368,8.057A52.217,52.217,0,0,0,2.594,3.463C1.689,7.233,1.166,11,.515,14.9S-.517,22.435,1.554,26.07c-.127-1.294-.389-2.469-.389-3.636,0-.651.262-1.3.262-1.818,0-.262-.262-1.04-.262-1.429a13.987,13.987,0,0,1,.524-3.247c.127-1.175,0-2.342.127-3.509A11.352,11.352,0,0,1,2.983,8.924c.4-1.04.524-1.953.913-2.993.389-.9.651-1.945,1.04-2.985A12.035,12.035,0,0,1,6.1.74C5.714,1.907,4.936,2.947,4.674,3.987c-.389,1.556-.127,3.247-.254,4.8-.262,1.691-.786,3.382-1.04,5.2-.262,1.691-1.04,3.247-1.3,4.937-.262,1.564-.778,2.731-.651,4.287a15.541,15.541,0,0,0,.262,2.6,4.779,4.779,0,0,0,1.429,2.469,17.437,17.437,0,0,0,8.573,5.588,8.489,8.489,0,0,0,6.628-.651A34.479,34.479,0,0,0,26.5,26.467c2.207-2.469,3.9-5.2,5.85-7.8,1.818-2.334,4.025-4.541,5.842-6.882l7.017-9.1,4.025-5.326C49.889-3.419,50.278-4.07,49.762-5.11ZM17.542-3.681a1.033,1.033,0,0,0,.127-.389c1.953-4.159,3.382-8.573,6.1-12.605l2.342-3.112a5.94,5.94,0,0,1,2.342-2.08c1.945-.389,2.469,2.985,2.334,4.287l-.516,2.731c-.135.778.127,1.294,0,1.945-.262.778-.913,1.167-1.3,1.818L26.765-8.23A37.56,37.56,0,0,1,15.851.478C16.5-.951,16.891-2.379,17.542-3.681Zm0,0" transform="translate(-0.001 26.143)"/></g></g><g transform="translate(264.435 366.127)"><g transform="translate(0 0)"><path d="M62.177-9.947c-.524-6.493-9.875,5.2-10.4,5.588a24.243,24.243,0,0,1-4.8,3.374c-1.826.786-3.509,2.6-5.334,2.866-1.04.254-3.636.389-4.675-.135-2.207-1.167.135-5.2.778-7.017.135-.254-.389-.127-.127-.9l.778-.524,2.342-2.469c2.207-2.334,5.2-3.374,7.533-5.453a3.923,3.923,0,0,0,1.564-2.207c.516-4.159-5.326-4.294-7.8-2.6-3.9,2.342-6.366,6.1-9.1,9.224L28.655-5.788C26.964-3.843,24.622-2.152,23.328.189c-.524.778-.524,1.691-1.3,2.6a15.447,15.447,0,0,0-2.342,2.6c-1.556,1.953-2.985,4.032-4.414,6.112.127-1.3-.913-10.915-1.429-16.241,0,1.556.127,3.247.127,3.509l-.262-3.9v-.135a40.124,40.124,0,0,0-1.167-6.755l.389.913a6.323,6.323,0,0,0-.127-2.08c-.135-.389-.778-.262-.651.127-.389-.778.262-1.04-.524-1.945-1.04-1.429-3.112-1.3-4.541-.786a9.912,9.912,0,0,0-2.731,1.826c-1.3.778-2.6,1.04-3.12,2.985C.848-9.423,3.19-2.025,2.793-1.374L2.928-1.5A5.942,5.942,0,0,1,3.055-.072c-.127,0-.127-.262-.127-.389a13.96,13.96,0,0,0-.651,1.818c-.389,1.818,0,2.858.127,4.548a20.66,20.66,0,0,1,0,4.025,4.676,4.676,0,0,0,.389,2.08,13.032,13.032,0,0,0,.135,2.08c-.135,1.3-1.04,2.858-1.04,4.421-.262,4.152-.524,9.74,2.985,12.344,2.469,1.818,5.977,2.334,7.93-.651a10.14,10.14,0,0,0,1.167-4.421,28.174,28.174,0,0,1,4.421-10.391c3.9-6.366,9.351-11.042,13.637-17.019C31.639,11.358,48.008,6.945,53.6.578c.913-.913,1.564-2.08,2.469-2.993A31.217,31.217,0,0,0,61-7.606C61.526-8.257,62.431-9.034,62.177-9.947ZM12.93-4.1c-.127,3.112-.262,6.231-.651,9.224.135-2.469-.254-5.326-.127-7.93a35.564,35.564,0,0,0-.127-6.366,11.28,11.28,0,0,0-.651-2.985c-.135-.524-.913-1.3-.913-1.818,0-.389,1.167,1.294,1.3,1.429a7.069,7.069,0,0,1,.651,2.334A23.993,23.993,0,0,1,12.93-4.1Zm-.778,11.3c-.127,0-.262-.135-.127-.524C12.279,6.683,12.279,6.818,12.152,7.207ZM14.1,3.952V2.007A4.722,4.722,0,0,1,14.1,3.952ZM13.708-6.439V-8.391C13.581-8.391,13.708-7.606,13.708-6.439Zm.135,1.556c-.135-.127-.135-.127-.135-.254V-5.4C13.708-5.137,13.843-5.01,13.843-4.883Zm0,0" transform="translate(-1.193 20.449)"/></g></g><g transform="translate(315.933 354.555)"><g transform="translate(0 0)"><path d="M49.762-5.11c0,.127,0,.127-.127,0v-.127c-2.08-3.509-4.81,1.294-5.977,2.985C41.443.74,39.371,3.6,37.029,6.321a70.3,70.3,0,0,0-5.588,7.152,4.045,4.045,0,0,1-.262.9,28.562,28.562,0,0,1-1.945,2.215c-1.175,1.167-2.342,2.469-3.644,3.636C23.646,22.046,12.731,32.31,11.3,25.681c-.778-3.247.262-7.271.913-10.391.389-1.691.778-3.247,1.04-4.937.254-1.3-.135-2.6.516-3.9.389-.778.516-.651,1.429-.913l2.207-.778a23.666,23.666,0,0,0,4.159-1.818,41.95,41.95,0,0,0,5.461-4.025c4.025-3.382,8.311-7.406,10-12.478.9-2.858,1.04-5.977-.778-8.446-1.691-2.207-4.548-3.374-7.152-3.9-7.009-1.294-12.344,2.731-16.368,8.057A52.217,52.217,0,0,0,2.594,3.463C1.689,7.233,1.166,11,.515,14.9S-.517,22.435,1.554,26.07c-.127-1.294-.389-2.469-.389-3.636,0-.651.262-1.3.262-1.818,0-.262-.262-1.04-.262-1.429a13.987,13.987,0,0,1,.524-3.247c.127-1.175,0-2.342.127-3.509A11.352,11.352,0,0,1,2.983,8.924c.4-1.04.524-1.953.913-2.993.389-.9.651-1.945,1.04-2.985A12.035,12.035,0,0,1,6.1.74C5.714,1.907,4.936,2.947,4.674,3.987c-.389,1.556-.127,3.247-.254,4.8-.262,1.691-.786,3.382-1.04,5.2-.262,1.691-1.04,3.247-1.3,4.937-.262,1.564-.778,2.731-.651,4.287a15.541,15.541,0,0,0,.262,2.6,4.779,4.779,0,0,0,1.429,2.469,17.437,17.437,0,0,0,8.573,5.588,8.489,8.489,0,0,0,6.628-.651A34.479,34.479,0,0,0,26.5,26.467c2.207-2.469,3.9-5.2,5.85-7.8,1.818-2.334,4.025-4.541,5.842-6.882l7.017-9.1,4.025-5.326C49.889-3.419,50.278-4.07,49.762-5.11ZM17.542-3.681a1.033,1.033,0,0,0,.127-.389c1.953-4.159,3.382-8.573,6.1-12.605l2.342-3.112a5.94,5.94,0,0,1,2.342-2.08c1.945-.389,2.469,2.985,2.334,4.287l-.516,2.731c-.135.778.127,1.294,0,1.945-.262.778-.913,1.167-1.3,1.818L26.765-8.23A37.56,37.56,0,0,1,15.851.478C16.5-.951,16.891-2.379,17.542-3.681Zm0,0" transform="translate(-0.001 26.143)"/></g></g><g transform="translate(356.318 296.908)"><g transform="translate(0 0)"><path d="M51.98,23.129c-1.818,1.953-2.985,5.2-4.414,7.541-2.215,3.763-4.421,7.4-6.755,11.042C36.39,48.729,31.976,55.874,26.642,62.24c-2.207,2.731-6.882,9.351-11.3,8.835-3.247-.524-3.247-6.1-3.247-8.573a47.843,47.843,0,0,1,.389-6.112c.135-1.167,1.175-5.064.524-6.1l-1.04,3.9a30.805,30.805,0,0,1,.778-4.81c-.127-.254,1.04-3.9,1.3-5.064.651-2.6,1.294-5.2,2.08-7.8.643-2.6,1.294-5.064,2.08-7.533a13.371,13.371,0,0,1,2.985-5.326A236.5,236.5,0,0,0,37.3.522c1.818-2.985,2.985-5.588,5.191-8.057,3.255-3.374,5.461-8.446,7.541-12.6,3.509-6.763,8.184-16.114,7.406-24.036v-.651l-.135-.135C56.528-50.019,51.853-56,46.137-54.178c-2.993.913-5.2,4.032-7.017,6.239l-2.993,4.025c-.651.778-1.556,2.731-2.207,3.771l.127-.127L29.9-33.127l1.04-2.207c-.651-.135-3.509,5.453-3.9,6.1q-2.155,3.7-3.9,7.406a103.6,103.6,0,0,0-6.89,16.106c-1.818,5.588-3.9,11.05-5.85,16.638-1.04,2.985-2.072,6.1-2.985,9.089-.778,2.469-2.6,6.5-2.207,9.1H5.6a22.961,22.961,0,0,0-.913,2.731c.135-.778.135-1.691.262-1.953-.651.913-.516,4.032-.651,4.287C2.606,41.188.661,48.206.137,55.485c-.389,6.882-.389,15.979,5.072,21.044,6.1,5.588,13.121,1.826,18.186-2.985,5.977-5.85,11.05-12.733,15.725-19.488,4.287-6.239,7.66-12.867,11.566-19.1,1.556-2.6,3.247-5.2,4.025-8.057C55.226,24.82,54.972,20.01,51.98,23.129ZM35.739-23.387c2.6-6.231,5.2-12.6,8.835-18.448.913-1.429,6.755-9.224,6.5-2.334v.127c-.262,7.279-4.937,14.939-8.057,21.178L37.557-12.726c-1.818,3.112-4.937,7.009-5.977,10.391.786-2.08,3.12-5.064,4.294-7.017,1.945-3.247,3.636-6.493,5.453-9.74,2.985-5.723,6.239-11.7,8.446-17.932C43.923-19.616,33.008-3.375,23.4,12.088,27.166.649,30.936-11.821,35.739-23.387Zm-4.159-9.089c1.3-2.469,3.644-4.548,4.937-6.89-2.723,5.461-6.1,10.4-8.962,15.59a.785.785,0,0,1,.127-.516C28.857-27.15,30.15-29.753,31.579-32.476ZM7.027,34.7a1.033,1.033,0,0,0-.127.389C5.336,38.72,5.209,43.657,4.431,47.555a17.357,17.357,0,0,0-.4,2.6v-.389l-.389,4.152A101.924,101.924,0,0,1,5.336,39.894v.127c.389-2.985,1.04-5.715,1.564-5.715C7.154,34.171,7.154,34.568,7.027,34.7Zm0,0" transform="translate(0.01 54.512)"/></g></g><g transform="translate(402.332 407.682)"><path/></g><g transform="translate(438.675 310.893)"><g transform="translate(0 0)"><path d="M79.8-21c-.524-4.152-6.89-7.271-10.391-4.8-2.866,1.945-5.461,7.271-7.541,10.391L49.131,3.818c-1.945,2.985-3.9,5.969-5.977,8.835-.516.9-5.453,8.573-5.453,8.573.516.127,1.691-1.691,1.945-1.953C36.137,24.21,31.588,29.41,27.3,34.347c-1.429,1.818-10,13.121-13.121,11.693-1.04-.516-1.3-2.207-1.429-3.12-1.04-6.882,1.556-13.772,2.342-20.393l-.524,1.294.778-3.247c0,.389-.127.778-.127,1.167l.127-.778-.389,3.9A148.832,148.832,0,0,1,22.365,2.254C23.15.436,30.684-18.4,32.239-20.091a5.013,5.013,0,0,0-1.04,1.167,121.215,121.215,0,0,1,8.057-12.994c-.651,1.04-1.818,2.993-1.818,2.993.516.127,5.715-7.017,5.715-7.8,0-.135-.389.127-.778.389,1.3-1.691,2.207-2.6,1.167-5.461-1.556-3.247-6.1-7.271-9.875-5.326A8.393,8.393,0,0,0,31.85-45.3,63.916,63.916,0,0,0,25.1-33.348a8.573,8.573,0,0,1-2.207,2.993c-1.691,1.945-2.6,4.548-3.771,6.755-2.342,4.675-4.159,9.613-6.239,14.423A102.387,102.387,0,0,0,7.687,4.461C7.036,6.286,6.512,8.1,6,9.922s-2.342,5.2-2.08,7.144l.778-1.691C4.044,17.59,3.528,19.924,3,22.266a7.6,7.6,0,0,1,.135-1.691c-.524,0-1.691,5.715-1.953,6.493C.67,29.8.281,32.529.019,35.387c-.127,2.985,0,5.715,1.429,8.446,2.731,4.81,7.668,9.486,12.994,11.177A7.393,7.393,0,0,0,17.3,55.4a4.416,4.416,0,0,0,2.469-1.175c.516-.254,2.6-2.469,1.167-1.429L23.4,50.461a15.158,15.158,0,0,1-1.556,1.683c.651-.254,2.08-2.207,2.08-2.207C28.215,45.262,32.5,40.713,36.4,35.649c4.025-5.461,7.668-11.439,11.3-17.281-1.04,3.12-1.3,6.231-2.207,9.351-.524,1.691-1.04,3.382-1.429,5.072-.262.643-.524,3.763-.262,3.509a1.953,1.953,0,0,1-.127.9.464.464,0,0,0-.135-.389c-.389.127-.389,4.025-.516,4.675a34.81,34.81,0,0,0-1.564,5.588c-.643,5.461-.254,11.828,3.12,16.5a11.546,11.546,0,0,0,8.708,4.675c3.771.127,5.842-1.945,7.8-4.81a25.556,25.556,0,0,0,3.247-5.842c.651-1.818,1.953-5.326,1.167-7.144-.516-1.175-.778-1.3-1.818-.786-1.429.524-3.12,3.644-4.025,4.81-1.3,1.429-3.9,5.064-6.1,5.326-1.3.135-1.04-.127-1.3-1.691a66.588,66.588,0,0,1,0-7.144,3.992,3.992,0,0,0-.651,1.564c.524-4.294,2.342-9.486,3.636-14.034C56.8,33.18,57.966,27.854,59.4,22.528a139.832,139.832,0,0,1,5.85-16.114c.516-1.167,6.366-14.034,7.271-15.2-.9.651-5.58,10.526-7.144,13.772a124.012,124.012,0,0,1,11.3-21.306c.127,0-1.3,2.207-1.04,2.207.389.262,3.509-4.548,3.247-4.675a.491.491,0,0,0-.389.127C79.145-19.313,79.923-19.7,79.8-21ZM45.885,40.713c-1.167,5.326-2.469,12.471-1.429,17.8a53.261,53.261,0,0,1,.262-18.7,72.074,72.074,0,0,1,3.9-14.034C47.187,30.966,47.052,35.514,45.885,40.713ZM24.182-8.661c3.644-8.7,8.835-16.63,14.3-24.163A150.129,150.129,0,0,0,24.706-7.883a163.28,163.28,0,0,0-7.668,20.4,41.85,41.85,0,0,1,1.429-5.453C20.031,1.738,22.111-3.461,24.182-8.661ZM21.2,3.945a186.247,186.247,0,0,1,8.184-18.972C26.524-9.05,22.627.309,21.2,3.945Zm41.19,8.573A26.526,26.526,0,0,1,60.959,15.9l2.334-5.977ZM31.2-18.79v0Zm9.748-17.154a.282.282,0,0,1-.262.262A.282.282,0,0,0,40.947-35.944Zm0,0" transform="translate(0.019 47.63)"/></g></g><g transform="translate(498.896 349.463)"><g transform="translate(0 0)"><path d="M80.057-2.651C79.279-2.524,72.524-.444,72.913.6c0,.127.262.262.389.262-2.207.9-5.064,1.04-7.271,2.469-2.469,1.683-4.81,3.374-7.406,4.8a69.828,69.828,0,0,0,5.969-12.6c.524-1.564,3.509-11.177,1.564-12.217-.262-.127-.389,1.04-.524,1.691.135-5.2-1.556-13.121-8.573-13.645-4.287-.262-8.311,5.064-10.653,7.93-5.326,6.755-10,14.026-14.685,21.044-1.294,1.953-14.288,23-14.288,23s.9-1.294,2.08-2.985c-1.175,1.945-2.342,4.025-3.382,6.1.524-1.945,5.461-17.408,8.581-26.5a5.423,5.423,0,0,0,.516-1.3l.778-2.207v.135c1.175-3.509,2.342-7.017,3.382-10.661,0,.389-.524,2.342-.389,2.342.778.127,1.818-5.326,1.294-5.326l-.389.651c.389-1.953,1.04-2.858-.127-5.072A7.339,7.339,0,0,0,25.1-25.782c-4.294-1.167-6.366,2.342-6.112,5.715,0,.524.651.786.651,1.3a12.662,12.662,0,0,1-.778,2.342C17.95-13.7,17.307-11.1,16.267-8.5c-.524,1.429-5.326,14.939-5.326,14.939a1.3,1.3,0,0,0,.516-.643c-.389,1.167-.778,2.334-1.3,3.509-.127-.135.389-1.04.135-1.04C8.988,8,5.742,18.917,5.48,19.956A50.027,50.027,0,0,1,3.4,27.228c-.389,1.3-.9,2.6-1.3,4.032,0,.127-.643,3.247,0,2.08a3.389,3.389,0,0,0-.254.9c0-.127-.135-.254-.135-.389-.389.135-.643,2.858-.643,2.993A33.694,33.694,0,0,1-.76,40.611,57.508,57.508,0,0,0-4.006,53.732c-1.04,6.763-4.159,16.892-.778,23.131,1.167,2.207,4.81,6.755,7.668,4.025,1.294-1.294,1.294-4.287,1.429-5.842.778-4.287,1.429-8.708,2.334-12.994l1.175-5.977c.127-.262,1.167-5.064.778-4.937a2.793,2.793,0,0,0-.651,1.04C8.6,50.1,9.5,48.152,10.29,45.937a53.508,53.508,0,0,1,3.374-8.962c1.818-2.858,3.382-5.977,5.072-8.835,1.294-2.342,2.469-5.326,3.9-7.279.389-.516,1.167-.778,1.818-1.294A41.323,41.323,0,0,0,27.7,14.63c1.953-3.12,3.636-6.239,5.715-9.1.913-1.3,11.3-15.852,12.344-16.765a2.794,2.794,0,0,0-.778.524,42.808,42.808,0,0,1,3.247-3.509c.127.127-.778.913-.651,1.04.262.127,6.239-4.548,7.279-4.675,2.858-.524,1.818,4.937,1.429,6.366C55.632-8.5,53.941-5.644,52.512-3.04c-.778,1.429-1.556,2.723-2.207,4.152-.127.135-1.167,2.6-.778,2.342L48.749,4.62a3.581,3.581,0,0,0,.389-.9c-.524,0-1.175,2.207-1.3,2.6a17.768,17.768,0,0,1-2.858,3.382c-2.731,3.12-5.2,6.366-7.93,9.351-2.072,2.207-4.8,6.1-7.922,6.89-2.207.516-3.9-.651-2.731,2.858.786,2.469,3.644,8.184,6.755,8.184,2.866,0,6.366-4.287,8.057-6.1,1.953-2.215,4.159-4.287,6.239-6.628.516-.778,6.493-7.93,7.406-8.319h-.127c1.294-.643,2.6-.127,4.414-1.429,1.04-.778,1.556-1.556,2.731-2.334A7.074,7.074,0,0,0,63.562,10.6s0,.135.127.135c1.3-1.3,3.12-.913,4.81-2.08a61.293,61.293,0,0,0,6.493-4.937c2.342-2.08,5.588-3.247,6.628-6.755A5.313,5.313,0,0,0,80.057-2.651ZM13.537,10.6v.135c-.127,1.683-1.3,3.636-1.953,5.191-.9,2.469-1.683,4.937-2.469,7.406-1.683,5.2-3.636,10.4-5.715,15.336A104.946,104.946,0,0,0-1.014,51.915c1.429-6.366,3.763-12.6,5.58-18.575,1.691-5.461,4.294-10.788,6.374-16.114.254-.651,2.723-5.85,2.469-6.882A.393.393,0,0,1,13.537,10.6Zm5.715,3.9a32.227,32.227,0,0,1-1.3,4.287C18.339,17.488,18.736,15.924,19.252,14.5ZM37.049-6.81,34.58-3.175C35.366-4.342,36.144-5.644,37.049-6.81ZM58.227,8.907c.135-.389.786-.516,1.175-.778ZM27.182-6.294a2.893,2.893,0,0,0-.4,1.04ZM26.269-4.08l.516-1.175ZM33.024-.833V-.96c.127-.135.127-.135.127-.262C33.286-1.357,33.151-1.1,33.024-.833ZM26.269-4.08a.658.658,0,0,1-.262.516ZM-1.276,53.09c0-.135,0-.135.127-.262C-1.149,52.955-1.149,52.955-1.276,53.09ZM20.03,12.939a.124.124,0,0,1-.127.127Zm0,0" transform="translate(6.317 28.649)"/></g></g><g transform="translate(581.882 314.065)"><g transform="translate(0 0)"><path d="M41.678-40.674V-40.8c-.651-5.461-8.835-6.755-12.605-3.509-1.945,1.691-1.691,3.374-1.691,5.453-.127,3.644-1.294,7.406-1.818,11.05C22.969-13.646,19.976.516,16.6,14.415c-.778,3.247-1.953,6.366-2.731,9.613-.516,2.469-2.858,9.1-.778,11.177,3.247,3.382,6.231-7.406,7.017-9.351C24.008,15.066,26.6,3.889,30.24-6.89,32.454-13.519,34.534-20.147,37-26.64c1.294-3.382,2.723-6.755,3.9-10.137A19.267,19.267,0,0,0,41.678-40.674ZM17.38,46.246c0-.9.778-2.08,0-3.12-.651-.778-.651-.254-1.3-.389-2.6-1.04-5.064-.389-7.406.786C5.688,45.079.877,50.406,2.695,54.3a12.058,12.058,0,0,0,3.771,3.509c2.469,1.3,3.771-.389,5.326-1.818,1.818-1.691,3.12-2.342,4.032-4.421C16.078,51.057,19.2,46.246,17.38,46.246Zm9.613-59.765v.127A86.086,86.086,0,0,1,25.3-1.953c-.643,3.509-2.723,6.755-3.636,10A36.481,36.481,0,0,0,23.1,2.072a35.224,35.224,0,0,1,1.953-7.922A73.212,73.212,0,0,0,26.993-13.519ZM21.54,8.573a1.008,1.008,0,0,1,.127-.524A1.008,1.008,0,0,0,21.54,8.573Zm0,0" transform="translate(-2.296 46.068)"/></g></g></g></svg>