<svg xmlns="http://www.w3.org/2000/svg" width="173.446" height="89.682" viewBox="0 0 173.446 89.682"><defs><style>.a{fill:#ccc;}.b{fill:#f7b248;}.c{fill:#2f2e41;}</style></defs><g transform="translate(0 0)"><path class="a" d="M373.719,624.2a4.241,4.241,0,0,1,0-8.457h58.236a3.38,3.38,0,0,0-2.991-1.918H313.207a6.165,6.165,0,0,0,0,12.293H428.964a3.381,3.381,0,0,0,2.991-1.918Z" transform="translate(-272.443 -536.431)"/><path class="a" d="M741.217,632.416H681.5a.345.345,0,0,1,0-.69h59.718a.345.345,0,0,1,0,.69Z" transform="translate(-582.144 -550.779)"/><path class="a" d="M741.217,643.709H681.5a.345.345,0,1,1,0-.69h59.718a.345.345,0,1,1,0,.69Z" transform="translate(-582.144 -559.828)"/><path class="a" d="M741.217,655H681.5a.345.345,0,0,1,0-.69h59.718a.345.345,0,0,1,0,.69Z" transform="translate(-582.144 -568.877)"/><path class="b" d="M292.061,564.255a4.241,4.241,0,0,1,0-8.457H350.3a3.381,3.381,0,0,0-2.991-1.918H231.549a6.165,6.165,0,0,0,0,12.293H347.305a3.38,3.38,0,0,0,2.991-1.918Z" transform="translate(-208.993 -488.399)"/><path class="a" d="M659.559,572.476H599.841a.345.345,0,1,1,0-.69h59.718a.345.345,0,0,1,0,.69Z" transform="translate(-518.283 -502.747)"/><path class="a" d="M659.559,583.769H599.841a.345.345,0,1,1,0-.69h59.718a.345.345,0,0,1,0,.69Z" transform="translate(-518.283 -511.797)"/><path class="a" d="M659.559,595.062H599.841a.345.345,0,1,1,0-.69h59.718a.345.345,0,0,1,0,.69Z" transform="translate(-518.283 -520.846)"/><path class="a" d="M210.4,502.314a4.241,4.241,0,0,1,0-8.457h58.236a3.381,3.381,0,0,0-2.991-1.918H149.891a6.165,6.165,0,0,0,0,12.293H265.648a3.38,3.38,0,0,0,2.991-1.918Z" transform="translate(-144.199 -438.765)"/><path class="a" d="M577.9,510.535H518.183a.345.345,0,0,1,0-.69H577.9a.345.345,0,1,1,0,.69Z" transform="translate(-453.692 -453.113)"/><path class="a" d="M577.9,521.828H518.183a.345.345,0,0,1,0-.69H577.9a.345.345,0,1,1,0,.69Z" transform="translate(-453.692 -462.163)"/><path class="a" d="M577.9,533.121H518.183a.345.345,0,0,1,0-.69H577.9a.345.345,0,1,1,0,.69Z" transform="translate(-453.692 -471.212)"/><path class="b" d="M821.113,383.734a1.291,1.291,0,0,1-1.287-1.207l-.192-2.926a1.291,1.291,0,0,1,1.2-1.373l22.926-1.5a2.758,2.758,0,1,1,.36,5.5l-22.925,1.5Z" transform="translate(-693.109 -346.439)"/><path class="c" d="M843.974,383.034a1.293,1.293,0,0,1-1.29-1.243l-.163-4.371a1.291,1.291,0,0,1,1.242-1.339l18.852-.7a1.292,1.292,0,0,1,1.339,1.242l.163,4.371a1.291,1.291,0,0,1-1.242,1.339l-18.852.7Z" transform="translate(-711.45 -345.361)"/><path class="c" d="M944,507.711h-2.932a1.293,1.293,0,0,1-1.291-1.291V481.979a1.293,1.293,0,0,1,1.291-1.291H944a1.293,1.293,0,0,1,1.291,1.291v24.441A1.293,1.293,0,0,1,944,507.711Z" transform="translate(-789.379 -429.749)"/><path class="c" d="M882.9,451.588l-2.508-1.52a1.293,1.293,0,0,1-.435-1.774l12.669-20.9a1.293,1.293,0,0,1,1.774-.435l2.508,1.52a1.293,1.293,0,0,1,.435,1.774l-12.669,20.9A1.293,1.293,0,0,1,882.9,451.588Z" transform="translate(-741.297 -386.546)"/><ellipse class="b" cx="10.133" cy="10.133" rx="10.133" ry="10.133" transform="translate(140.03 5.166)"/><path class="c" d="M905.542,292.085a2.4,2.4,0,0,1-.878-.515,1.616,1.616,0,0,1-.472-1.279,1.087,1.087,0,0,1,.483-.837,1.406,1.406,0,0,1,1.34-.016L906,285.483l.4,0,.022,4.65-.306-.193a1.2,1.2,0,0,0-1.22-.15.7.7,0,0,0-.3.54,1.222,1.222,0,0,0,.351.954,3.285,3.285,0,0,0,1.809.667l-.063.392A6.55,6.55,0,0,1,905.542,292.085Z" transform="translate(-760.864 -273.327)"/><rect class="c" width="0.397" height="2.14" transform="translate(140.985 12.351) rotate(-82.477)"/><rect class="c" width="0.397" height="2.14" transform="translate(147.682 13.235) rotate(-82.477)"/><path class="c" d="M905.475,395.988H888.388A1.691,1.691,0,0,1,886.7,394.3l3.577-27.431a1.687,1.687,0,0,1,1.688-1.676h6.064a9.146,9.146,0,0,1,9.135,9.135V394.3A1.691,1.691,0,0,1,905.475,395.988Z" transform="translate(-746.851 -337.201)"/><path class="b" d="M965.369,400.774a1.293,1.293,0,0,1-.192,1.392l-1.917,2.219a1.291,1.291,0,0,1-1.821.133L944.053,389.5a2.758,2.758,0,1,1,3.606-4.173l17.385,15.02A1.283,1.283,0,0,1,965.369,400.774Z" transform="translate(-792.045 -352.796)"/><path class="c" d="M955.17,388.1a1.293,1.293,0,0,1-.192,1.392l-3.275,3.79a1.293,1.293,0,0,1-1.821.133l-14.276-12.333a1.291,1.291,0,0,1-.133-1.821l3.274-3.79a1.291,1.291,0,0,1,1.822-.133l14.276,12.333A1.288,1.288,0,0,1,955.17,388.1Z" transform="translate(-785.683 -345.078)"/><path class="c" d="M905.886,233.6c-1.355-1.121-3.165-.061-4.7-.211a3.623,3.623,0,0,1-2.967-2.822,4.484,4.484,0,0,1,1.662-4.3,6.457,6.457,0,0,1,4.858-1.316,12.207,12.207,0,0,1,5.41,2.154,24.209,24.209,0,0,1,4.328,3.528,9.315,9.315,0,0,1,2.5,4.418,6.125,6.125,0,0,1-.759,4.576,4.809,4.809,0,0,1-1.853,1.586c-.775.4-1.6.689-2.354,1.138-1.133.678-2.221,2.061-1.835,3.471a1.946,1.946,0,0,0,.458.824c.262.28.717-.105.455-.386a1.641,1.641,0,0,1-.227-1.764,3.234,3.234,0,0,1,1.407-1.607c.785-.469,1.655-.765,2.46-1.194a5.369,5.369,0,0,0,1.938-1.669,6.64,6.64,0,0,0,.953-4.76,9.391,9.391,0,0,0-2.368-4.661,23.461,23.461,0,0,0-4.374-3.724,13.85,13.85,0,0,0-5.581-2.458,7.42,7.42,0,0,0-5.2.938,5.48,5.48,0,0,0-2.572,4.211,4.418,4.418,0,0,0,2.136,3.922,3.8,3.8,0,0,0,2.277.482,17.313,17.313,0,0,1,2.541-.29,1.776,1.776,0,0,1,1.055.4c.3.245.634-.247.34-.49Z" transform="translate(-755.534 -224.308)"/><path class="c" d="M879.531,526.086q.005-.034.013-.067a1.282,1.282,0,0,1,.562-.813l2.464-1.59a1.293,1.293,0,0,1,1.785.385l7.6,11.786a1.292,1.292,0,0,1-.385,1.785l-2.464,1.589a1.293,1.293,0,0,1-1.785-.385l-7.6-11.786A1.282,1.282,0,0,1,879.531,526.086Z" transform="translate(-741.093 -463.984)"/></g></svg>