<svg xmlns="http://www.w3.org/2000/svg" width="334.959" height="236.053" viewBox="0 0 334.959 236.053"><defs><style>.a{fill:#f7b248;}.b{fill:#f2f2f2;}.c{fill:#3f3d56;}.d{fill:#2f2e41;}.e{fill:#a0616a;}.f{fill:#e6e6e6;}.g{fill:#ffb8b8;}.h{fill:#ccc;}</style></defs><circle class="a" cx="18.241" cy="18.241" r="18.241" transform="translate(152.829 199.07)"/><path class="b" d="M532.327,415.2c10.205-3.065,21.055-6.261,29.148-13.547,7.232-6.511,12.115-16.453,9.119-26.217-2.99-9.744-11.946-16.241-21.192-19.473a86.951,86.951,0,0,0-16.216-3.648c-5.962-.868-11.951-1.58-17.936-2.264q-36.355-4.158-72.983-5.08c-12.049-.3-24.1-.3-36.147-.121-10.762.156-22.1.152-32.081-4.422-7.764-3.557-14.81-10.028-16.974-18.532-2.5-9.817,2.109-19.813,8.716-26.923a70.572,70.572,0,0,1,11.752-9.8c4.555-3.146,9.27-6.07,14.086-8.8A196.152,196.152,0,0,1,421.268,262.7c5.054-1.838,10.184-3.423,15.358-4.886a131.41,131.41,0,0,0,12.974-4.155c8.162-3.253,15.926-8.764,18-17.8,1.967-8.562-1.35-17.857-7.164-24.218-6.727-7.359-16.869-10.585-26.593-11.107-10.917-.586-21.581,2.146-31.842,5.614-10.944,3.7-21.651,7.951-32.826,10.946a220.866,220.866,0,0,1-33.785,6.28c-5.584.595-11.338,1.266-16.955.811-4.708-.382-9.392-1.766-12.862-5.107a12.72,12.72,0,0,1-4.138-10.958c.111-.755,1.257-.434,1.147.316-.742,5.058,2.7,9.719,6.933,12.107,4.9,2.759,10.855,2.763,16.307,2.448a213.276,213.276,0,0,0,35.1-5.074,282.074,282.074,0,0,0,33.193-10.247c10.372-3.756,20.976-7.422,32.057-8.235,9.615-.706,19.729.695,28.105,5.72a31.092,31.092,0,0,1,14.5,20.231,23.451,23.451,0,0,1-6.9,22.333c-6.472,5.967-15.347,8.518-23.617,10.867a216.368,216.368,0,0,0-30.69,10.986A192.662,192.662,0,0,0,378.7,285.8c-8.822,6.029-17.528,13.614-20.318,24.369a22.449,22.449,0,0,0,1.115,15.055,27.511,27.511,0,0,0,8.828,10.476c8.851,6.513,20.007,7.85,30.7,7.983,12.008.149,24.017-.256,36.029-.059q36.72.6,73.29,4.47,9.164.97,18.3,2.144A165.513,165.513,0,0,1,543.02,352.9c9.582,2.224,18.905,6.5,24.861,14.624a23.125,23.125,0,0,1,1.97,25.287c-4.573,9-13.139,14.721-22.236,18.481a157.766,157.766,0,0,1-14.971,5.055.6.6,0,0,1-.316-1.147Z" transform="translate(-252.281 -180.668)"/><circle class="b" cx="9.517" cy="9.517" r="9.517" transform="translate(40.406 18.043)"/><circle class="b" cx="9.517" cy="9.517" r="9.517" transform="translate(106.432 36.086)"/><circle class="b" cx="9.517" cy="9.517" r="9.517" transform="translate(162.346)"/><circle class="b" cx="9.517" cy="9.517" r="9.517" transform="translate(197.243 40.448)"/><circle class="b" cx="9.517" cy="9.517" r="9.517" transform="translate(150.053 87.242)"/><circle class="b" cx="9.517" cy="9.517" r="9.517" transform="translate(90.173 109.845)"/><circle class="b" cx="9.517" cy="9.517" r="9.517" transform="translate(153.622 145.139)"/><circle class="b" cx="9.517" cy="9.517" r="9.517" transform="translate(221.829 164.966)"/><circle class="b" cx="9.517" cy="9.517" r="9.517" transform="translate(301.536 160.604)"/><path class="a" d="M524.6,220.371a52.788,52.788,0,0,0-52.257,51.876c0,.263-.005,2.114-.005,4.534a13.383,13.383,0,0,0,13.381,13.382h0a13.39,13.39,0,0,0,13.388-13.4c0-1.649,0-2.789,0-2.859a25.38,25.38,0,1,1,39.069,21.366l0,.006s-19.046,12.261-24.852,29.081h0a37.276,37.276,0,0,0-1.536,10.615c0,1.477.087,14.4.255,24.895a13.8,13.8,0,0,0,13.8,13.571h0a13.8,13.8,0,0,0,13.8-13.884c-.058-9.608-.09-20.8-.09-21.608,0-10.328,9.963-20.619,18.148-27.329a55.043,55.043,0,0,0,18.93-30.138,34.407,34.407,0,0,0,.991-7.468A52.642,52.642,0,0,0,524.6,220.371Z" transform="translate(-355.483 -193.404)"/><path class="c" d="M512.149,746.194H178.134a.472.472,0,0,1,0-.944H512.149a.472.472,0,0,1,0,.944Z" transform="translate(-177.662 -510.141)"/><circle class="d" cx="11.897" cy="11.897" r="11.897" transform="translate(237.317 84.464)"/><path class="e" d="M562.094,553.593h-4.861l-2.313-18.752H562.1Z" transform="translate(-334.865 -322.748)"/><path class="d" d="M543.012,578.626h9.376v5.9H537.109A5.9,5.9,0,0,1,543.012,578.626Z" transform="translate(-324.116 -349.17)"/><path class="e" d="M657.094,553.593h-4.861l-2.313-18.752H657.1Z" transform="translate(-392.192 -322.748)"/><path class="d" d="M638.012,578.626h9.376v5.9H632.109A5.9,5.9,0,0,1,638.012,578.626Z" transform="translate(-381.444 -349.17)"/><circle class="e" cx="9.74" cy="9.74" r="9.74" transform="translate(237.666 88.847)"/><path class="d" d="M763.2,462.48l4.358-10.013a12.445,12.445,0,0,0-2.756-14.117,12.644,12.644,0,0,0-1.218-1.059,12.268,12.268,0,0,0-7.531-2.605,12.761,12.761,0,0,0-5.314,1.182c-.143.063-.282.131-.424.2-.274.131-.543.274-.8.42a12.562,12.562,0,0,0-6.226,9.47l-1.923,16.116c-.484,1.265-17.742,46.948-11.706,81.825a1.772,1.772,0,0,0,1.515,1.455l6.119.833a1.783,1.783,0,0,0,1.987-1.4l10.267-48.939a1.389,1.389,0,0,1,2.7-.091l14.506,51.465a1.773,1.773,0,0,0,1.709,1.3,2.033,2.033,0,0,0,.345-.032l7.475-1.439a1.773,1.773,0,0,0,1.44-1.907C776.615,532.891,770.777,471.533,763.2,462.48Z" transform="translate(-509.989 -322.732)"/><path class="e" d="M706.061,415.986a3.988,3.988,0,0,0,4.2,4.443l5.444,13.083,4.118-6.1-5.8-11.488a4.009,4.009,0,0,0-7.962.067Z" transform="translate(-496.506 -309.294)"/><path class="e" d="M793.325,513.578a3.988,3.988,0,0,0,3.342-5.121l11.454-8.343-6.9-2.582-9.82,8.318a4.009,4.009,0,0,0,1.92,7.728Z" transform="translate(-546.459 -360.656)"/><path class="d" d="M731.679,457.909a6.77,6.77,0,0,1-1.308-.129,6.466,6.466,0,0,1-4.738-3.813l-7.628-9.3a1.785,1.785,0,0,1,.441-2.649l5.427-3.359a1.785,1.785,0,0,1,2.465.591l5.376,8.857,10.3-7.609a3.855,3.855,0,0,1,4.485,6.171l-10.275,9.373A6.446,6.446,0,0,1,731.679,457.909Z" transform="translate(-503.486 -324.968)"/><path class="d" d="M813.195,476.321h-.042a1.788,1.788,0,0,1-1.313-.623l-4.825-5.628a1.784,1.784,0,0,1,.365-2.646l9.034-6.023-8.184-9.84a3.855,3.855,0,0,1,5.9-4.831l9.947,9.721a6.553,6.553,0,0,1-1.457,10.683l-8.13,8.627a1.787,1.787,0,0,1-1.3.56Z" transform="translate(-557.184 -329.393)"/><path class="f" d="M787.108,447.412a1.848,1.848,0,0,1-.232-.015,1.769,1.769,0,0,1-1.471-1.217l-3.625-11.115a1.222,1.222,0,0,1,.632-1.477l.118-.056c.107-.051.212-.1.32-.149a12.917,12.917,0,0,1,5.394-1.2,12.423,12.423,0,0,1,6.805,2.045,1.241,1.241,0,0,1,.357,1.7l-6.8,10.654a1.767,1.767,0,0,1-1.5.825Z" transform="translate(-542.179 -321.223)"/><circle class="d" cx="3.893" cy="3.893" r="3.893" transform="translate(254.7 83.264)"/><path class="d" d="M780.422,361.365h0a10.31,10.31,0,0,0-10.31,10.31v4.362h5.365l2.566-4.362.77,4.362h16.282l-4.362-4.362a10.31,10.31,0,0,0-10.31-10.31Z" transform="translate(-535.173 -278.487)"/><path class="d" d="M834.809,359.073a6.008,6.008,0,0,1,6.536-4.122c2.481.415,4.442,2.409,5.611,4.636a45.661,45.661,0,0,1,2.494,7.109,12.876,12.876,0,0,0,3.883,6.339c1.984,1.547,5.027,1.966,6.975.375a7.978,7.978,0,0,1-14.862,2.848,17.255,17.255,0,0,1-1.6-6.048,13.217,13.217,0,0,0-1.928-5.925c-1.227-1.7-3.524-2.813-5.474-2.038Z" transform="translate(-574.215 -274.583)"/><path class="c" d="M489.212,316.992h0a13.383,13.383,0,0,1-13.381-13.381c0-2.422,0-4.273.005-4.536a52.15,52.15,0,0,1,6.091-23.757,52.267,52.267,0,0,0-10.056,30.1c0,.263-.005,2.114-.005,4.534a13.383,13.383,0,0,0,13.381,13.382h0a13.393,13.393,0,0,0,12.883-9.751A13.333,13.333,0,0,1,489.212,316.992Z" transform="translate(-355.198 -226.563)"/><path class="c" d="M575.177,281.779a25.381,25.381,0,0,1,22.072,35.457,25.378,25.378,0,1,0-42.6-26.563A25.328,25.328,0,0,1,575.177,281.779Z" transform="translate(-405.153 -226.615)"/><path class="c" d="M589.381,508.054h0a13.8,13.8,0,0,1-13.8-13.574c-.168-10.488-.255-23.414-.255-24.892a37.28,37.28,0,0,1,1.536-10.615h0a37.7,37.7,0,0,1,2.179-5.037,43.641,43.641,0,0,0-6.144,11.381h0a37.282,37.282,0,0,0-1.536,10.615c0,1.477.087,14.4.255,24.895a13.8,13.8,0,0,0,13.8,13.571h0a13.8,13.8,0,0,0,13.245-9.931A13.744,13.744,0,0,1,589.381,508.054Z" transform="translate(-415.24 -334.348)"/><path class="g" d="M126.539,554.049H131.4l2.313-18.752h-7.176Z" transform="translate(-76.359 -323.023)"/><path class="d" d="M0,0H15.279V5.9H5.9A5.9,5.9,0,0,1,0,0H0Z" transform="translate(64.417 235.54) rotate(179.997)"/><path class="g" d="M82.539,554.049H87.4L89.714,535.3H82.538Z" transform="translate(-49.807 -323.023)"/><path class="d" d="M0,0H15.28V5.9H5.9A5.9,5.9,0,0,1,0,0H0Z" transform="translate(46.968 235.54) rotate(179.997)"/><path class="d" d="M261.018,621.408l-4.749-.25a1.853,1.853,0,0,1-1.752-1.97l5.676-62.84L286.33,563.4l2.518-.687-7.875,55.63a1.862,1.862,0,0,1-1.728,1.564l-5.119.239a1.854,1.854,0,0,1-1.956-1.9l.928-33.388a.618.618,0,0,0-1.223-.143l-8.945,35.219a1.842,1.842,0,0,1-1.812,1.477C261.085,621.41,261.052,621.41,261.018,621.408Z" transform="translate(-224.038 -396.149)"/><circle class="g" cx="9.74" cy="9.74" r="9.74" transform="translate(41.313 89.303)"/><path class="h" d="M265.486,450.8l1.071,23.106.387,8.406a1.841,1.841,0,0,0,1.219,1.656l25.116,9.1a1.774,1.774,0,0,0,.634.111,1.841,1.841,0,0,0,1.849-1.9l-1.03-41.546a14.645,14.645,0,0,0-12.191-14.148c-.243-.037-.49-.074-.737-.107a14.375,14.375,0,0,0-11.565,3.744,14.766,14.766,0,0,0-4.753,11.578Z" transform="translate(-230.649 -323.147)"/><path class="g" d="M349.654,542.13a3.991,3.991,0,0,1-2.129-6.038l-8.517-11.326,7.35-.455,6.961,10.825a4.01,4.01,0,0,1-3.665,6.994Z" transform="translate(-275.026 -376.816)"/><path class="h" d="M329.105,490.374a1.842,1.842,0,0,1-1.008-1L315.266,458.8a4.942,4.942,0,0,1,9.115-3.826l12.832,30.572a1.855,1.855,0,0,1-.992,2.426l-5.7,2.391a1.841,1.841,0,0,1-1.419.007Z" transform="translate(-260.466 -333.149)"/><path class="c" d="M298.174,508.642l12.325-23.6a1.935,1.935,0,0,1,2.607-.818L331,493.568a1.934,1.934,0,0,1,.818,2.607l-12.325,23.6a1.935,1.935,0,0,1-2.607.818l-17.889-9.343A1.934,1.934,0,0,1,298.174,508.642Z" transform="translate(-250.253 -352.494)"/><path class="g" d="M291.987,504.331a3.991,3.991,0,0,0-6.153-1.769l-11.809-7.833-.02,7.364,11.217,6.31a4.01,4.01,0,0,0,6.765-4.071Z" transform="translate(-235.8 -358.965)"/><path class="h" d="M259.954,475.4l-9.651-7.645A6.806,6.806,0,0,1,247.2,457l8.763-11.484a4,4,0,0,1,6.793,4.078l-6.933,11.341,10.189,4.833a1.853,1.853,0,0,1,.773,2.665l-4.113,6.509a1.857,1.857,0,0,1-1.256.837l-.031,0A1.862,1.862,0,0,1,259.954,475.4Z" transform="translate(-218.697 -328.379)"/><path class="d" d="M280.559,387.773a.846.846,0,0,1,.736-1.118,1.955,1.955,0,0,1,1.378.68,5.488,5.488,0,0,0,1.218,1.046,1.048,1.048,0,0,0,1.379-.249,1.918,1.918,0,0,0-.073-1.488,14.634,14.634,0,0,1-.646-3.874,6.822,6.822,0,0,1,.975-4.143,5.482,5.482,0,0,1,4.7-2,31.563,31.563,0,0,1,5.277.935,1.772,1.772,0,0,0,1.726-.29,2.224,2.224,0,0,0,.089-1.984,13.782,13.782,0,0,0-2.088-4.978,7.494,7.494,0,0,0-4.783-2.693,11.475,11.475,0,0,0-5.339.606,14.314,14.314,0,0,0-7.012,4.885,11.594,11.594,0,0,0-2.212,8.566,10.575,10.575,0,0,0,3.92,6.684Z" transform="translate(-236.865 -282.209)"/><path class="c" d="M577.229,692.01a18.239,18.239,0,0,1-6.769-28.349,18.24,18.24,0,1,0,24.812,26.357A18.23,18.23,0,0,1,577.229,692.01Z" transform="translate(-410.178 -460.906)"/></svg>