<svg xmlns="http://www.w3.org/2000/svg" width="117.454" height="95.95" viewBox="0 0 117.454 95.95"><defs><style>.a,.c{fill:#f7b248;}.a,.g,.k{opacity:0.1;}.b{fill:#3f3d56;}.d{fill:#35323e;}.e{fill:#504f60;}.f{fill:#a1616a;}.h{fill:#464353;}.i{opacity:0.04;}.j{fill:#fff;}.l{fill:#fbbebe;}.m{opacity:0.05;}.n{fill:#f86d70;}.o{opacity:0.07;}</style></defs><g transform="translate(0 0)"><path class="a" d="M223.149,104.137v.217q-.019,1.886-.223,3.762a.134.134,0,0,1,0,.023c-.011.1-.023.207-.035.311-.02.176-.042.35-.066.526a37.821,37.821,0,0,1-1.378,6.308h0a34.021,34.021,0,0,1-3.6,7.92q-.707,1.135-1.507,2.2h0c-.284.375-.575.742-.875,1.1q-.315.379-.643.746l-.136.151a35.451,35.451,0,0,1-3.7,3.52,58.136,58.136,0,0,1-6.82,4.773c-.134.082-.269.164-.4.239a.2.2,0,0,1-.03.018,71.92,71.92,0,0,1-9.93,5.075,45.04,45.04,0,0,1-11.565,3.136,56.912,56.912,0,0,1-16.6-.822,107.9,107.9,0,0,1-13.5-3.226l-.729-.228q-.566-.18-1.132-.368-3.414-1.129-6.752-2.509a88.749,88.749,0,0,1-15.933-8.555q-.956-.643-1.884-1.314-1.3-.934-2.564-1.924l-.521-.4a53.567,53.567,0,0,1-6.192-5.687,31.575,31.575,0,0,1-6.214-9.56q-.342-.85-.626-1.732l-.018-.059c-.1-.3-.184-.6-.265-.908q-.179-.667-.314-1.35c-.019-.087-.036-.174-.051-.263a22.61,22.61,0,0,1-.376-4.652,21.51,21.51,0,0,1,.478-4.063h0a18.328,18.328,0,0,1,1.354-4.012h0a14.459,14.459,0,0,1,2.071-3.194h0a12.216,12.216,0,0,1,1.951-1.824,15.94,15.94,0,0,1,4.224-2.17h0c.7-.251,1.41-.471,2.123-.675.505-.146,1.013-.284,1.519-.421l1.491-.4c.956-.26,1.912-.528,2.854-.817a32.143,32.143,0,0,0,7.409-3.148c.368-.223.743-.468,1.119-.731q.717-.5,1.415-1.083h0c.471-.394.932-.816,1.372-1.263.068-.069.135-.139.2-.209.359-.378.706-.773,1.029-1.184.158-.2.311-.405.456-.613.2-.288.393-.581.57-.882h0a9.028,9.028,0,0,0,1.369-4.917,7.562,7.562,0,0,0-.078-.862c-.155-1.055-.3-2.085-.415-3.093-.461-4.167-.266-7.945,2.861-11.5,3.888-4.413,9.991-5.313,15.547-4.96,16.062,1.016,30.683,10.186,43.533,21.1q1.667,1.415,3.293,2.868.41.366.821.736c2.031,1.83,4.032,3.727,5.895,5.76.151.165.3.33.449.5.091.1.183.2.272.308q.871.986,1.691,2.02a38.259,38.259,0,0,1,3.862,5.855,33.24,33.24,0,0,1,3.391,10.357h0a36.9,36.9,0,0,1,.41,3.964c.02.391.033.783.041,1.173v.375C223.15,103.778,223.15,103.955,223.149,104.137Z" transform="translate(-108.551 -48.512)"/><path class="b" d="M379.892,445.218,377.98,479.25l1.912.025,1.553-34.535Z" transform="translate(-332.812 -391.597)"/><rect class="c" width="23.661" height="5.138" transform="translate(16.369 70.863)"/><path class="b" d="M257.545,679.51v3.226H233.1q-1.3-.934-2.564-1.924v-1.3Z" transform="translate(-215.963 -604.107)"/><path class="d" d="M213.012,516.462c-.067.31-.154.615-.246.92a12,12,0,0,0-.661,2.665c-.085,1.209.239,2.616-.6,3.494-.215.227-.5.4-.688.639a1.12,1.12,0,0,0-.081.12,1.852,1.852,0,0,0-.195.956,16.731,16.731,0,0,0,.135,2.073c.283,2.366.842,4.737.108,6.97a10.75,10.75,0,0,1-.465,1.136,8.882,8.882,0,0,0-.866,2.421,15.256,15.256,0,0,0-.065,1.93q-.566-.181-1.132-.368-3.414-1.129-6.752-2.509c.006-.032.012-.066.017-.1a7.613,7.613,0,0,0-.348-3.188c-.6-2.2-1.444-4.374-1.944-6.587a16.67,16.67,0,0,1-.4-2.629c-.014-.2-.023-.4-.024-.6-.006-.26,0-.521.011-.784.025-.525.048-1.147-.372-1.466a3.219,3.219,0,0,0-.8-.308,4.559,4.559,0,0,1-1.285-1.046,1.683,1.683,0,0,0-1.5-.442c-2.686.615-4.66,2.894-7.16,4.046-.1.045-.194.089-.292.129a4.249,4.249,0,0,0-.917.468,1.044,1.044,0,0,0-.411.58,2.169,2.169,0,0,0,.023.779,3.978,3.978,0,0,1-.054,1.27,3.873,3.873,0,0,1-.128.478c-.1.283-.223.56-.345.837q-.956-.643-1.884-1.315-1.3-.934-2.564-1.924l-.513-.412a53.572,53.572,0,0,1-6.192-5.687,21.665,21.665,0,0,0,.8-2.119c.1-.422.137-.86.276-1.27a4.566,4.566,0,0,1,.66-1.183,16.013,16.013,0,0,1,3.673-3.676,49.779,49.779,0,0,0,4.523-3.117,7.137,7.137,0,0,0,1.383-1.638,1.03,1.03,0,0,0,.063-.12,2.48,2.48,0,0,0,.214-.684c.1-.535.081-1.123.129-1.637a17.465,17.465,0,0,0,4.915.148c1.906-.214,3.77-.743,5.676-.949.143-.017.288-.03.433-.042.611-.049,1.222-.06,1.835-.053.513,0,1.025.023,1.538.039l5.644.191a5.541,5.541,0,0,1,1.845.274,4.032,4.032,0,0,1,1.687,1.405c.056.076.112.153.165.232a7.289,7.289,0,0,1,.87,1.72c.023.062.044.12.065.188.054.166.1.333.142.5.032.133.061.265.087.4a17.134,17.134,0,0,0,.417,1.978c.014.047.03.093.047.139.25.7.664,1.328.977,2a7.43,7.43,0,0,1,.514,1.521A7.518,7.518,0,0,1,213.012,516.462Z" transform="translate(-166.549 -448.402)"/><path class="c" d="M240.583,258.736c-.5-.4-1.236-.108-1.826.152a11.724,11.724,0,0,1-1.525.551.644.644,0,0,1-.335.035c-.239-.057-.339-.341-.517-.513a1.152,1.152,0,0,0-1.215-.066,2.773,2.773,0,0,1-1.221.359c-.456-.036-.853-.373-1.314-.384-.813-.019-1.495.982-2.263.717-.468-.161-.837-.771-1.3-.6-.359.136-.391.632-.607.956a2.307,2.307,0,0,1-1.175.651,3.375,3.375,0,0,0-2.048,3.445,11.875,11.875,0,0,0,.73,2.261c.748,2.186.491,4.651,1.434,6.759.119-.112.186-.154.3-.265a2.765,2.765,0,0,0-.161,1.984c.1.331.261.639.382.963a8.631,8.631,0,0,1,.306,1.111l1.04,4.586a29.778,29.778,0,0,1,.884,5.42,15.819,15.819,0,0,1-.272,3.561c1.883-.312,3.606-1.147,5.515-1.136a15.378,15.378,0,0,1,2.089.215,43,43,0,0,0,6.11.415,2.426,2.426,0,0,0,.937-.131,7.032,7.032,0,0,0,.727-.457,3.214,3.214,0,0,1,1.636-.358c2.556-.047,5.019.889,7.558,1.219a9.1,9.1,0,0,0,.293-6.826,10.188,10.188,0,0,1-.626-1.978,9.995,9.995,0,0,1-.029-1.27,9.214,9.214,0,0,0-.577-3.176,3.264,3.264,0,0,1-.311-1.227,2.788,2.788,0,0,1,.43-1.195,8.293,8.293,0,0,1,3.531-3.855l1.844-1.238a18.194,18.194,0,0,0-1.252-4.736,8.421,8.421,0,0,0-3.051-3.669,10.084,10.084,0,0,0-1.441-.717,6.7,6.7,0,0,0-2.181-.6,11.56,11.56,0,0,0-2.557.325C245.853,260.479,242.706,260.424,240.583,258.736Z" transform="translate(-211.276 -233.441)"/><path class="b" d="M160.873,487.565,160,488.673l-1.654,2.088-1.912,2.413-.534.674h-1.036l-25.655.03-16.066.018h-.717c-.1-.3-.184-.6-.265-.908q-.179-.667-.314-1.35c-.019-.087-.036-.174-.051-.263l5.829-3.811,2.192-.012h0l6.7-.038h0l3.744-.021h1.113l2.5-.013h0l19.017-.109h0l.973-.006h.422l1.117-.006,4.157-.024.8-.3.059.062Z" transform="translate(-111.403 -434.628)"/><path class="e" d="M157.662,448.675l-.1.119-.652.768-1.343,1.586-2.817,3.321-24.951-.637-18.815-.478c-.019-.087-.036-.174-.051-.263a22.61,22.61,0,0,1-.376-4.652l2.086-1.068.478-.246,3.72-1.912,3.265-1.673,8.515,1.107,1.886.245.853.11,1.249.162.105.014,19.582,2.539,2.164.281,1.27.165,3.915.509Z" transform="translate(-108.551 -396.335)"/><path class="b" d="M460.92,534.51l-.02.47-.119,2.652-.643,14.579L460,555.361l-.358,8.107-.2,4.579-.729-.228q-.566-.18-1.132-.368l1.748-31.786.037-.667.77-.239Z" transform="translate(-415.872 -476.435)"/><path class="b" d="M115.852,534.22l-.054,1.227-.079,1.792q-.342-.85-.626-1.732l-.018-.059c-.1-.3-.184-.6-.265-.908Z" transform="translate(-114.062 -476.179)"/><ellipse class="f" cx="5.497" cy="7.409" rx="5.497" ry="7.409" transform="translate(27.542 25.155)"/><ellipse class="g" cx="5.497" cy="7.409" rx="5.497" ry="7.409" transform="translate(27.542 25.155)"/><ellipse class="f" cx="7.648" cy="7.648" rx="7.648" ry="7.648" transform="translate(26.167 20.435)"/><path class="h" d="M330.509,183.626a9.79,9.79,0,0,0-1.387.212,11.233,11.233,0,0,0-3.273,1.587,3.9,3.9,0,0,0-1.209,1.011c-.509.759-.312,1.724-.6,2.567a7.392,7.392,0,0,1-.651,1.224,14.569,14.569,0,0,0-1.293,3.518c-.067.249-.086.586.185.681a.747.747,0,0,0,.464-.053,2.72,2.72,0,0,1,2.581.21c.636.575.582,1.594,1.338,2.031.866.505,2.219-.105,3.005.491.337.256.459.666.735.974.643.717,1.88.682,2.909.538.59-.084,1.314-.14,1.673.275.172.2.221.465.421.642a1.1,1.1,0,0,0,1.365-.171,9.173,9.173,0,0,0,.809-1.142c.568-.717,1.565-1.108,2.151-1.816a4.375,4.375,0,0,0,.772-2.067l.5-2.676a4.407,4.407,0,0,0-.225-3.226c-.217-.344-.529-.64-.717-1-.125-.239-.2-.491-.342-.717a2.978,2.978,0,0,0-.613-.619l-1.179-.976a9.915,9.915,0,0,0-1.289-.956C334.954,183.189,332.433,183.447,330.509,183.626Z" transform="translate(-296.542 -167.33)"/><path class="f" d="M120.886,339.2c-.283.3-.545.626-.848.908a10.287,10.287,0,0,1-.836.669q-.7.526-1.374,1.089a7.7,7.7,0,0,0-1.26,1.258c-.638.857-.94,1.923-1.538,2.808-.528.785-1.273,1.405-1.809,2.184a3.38,3.38,0,0,0-.516,1.084,5.036,5.036,0,0,0-.106,1.146,8.51,8.51,0,0,0,.109,1.887,2.862,2.862,0,0,0,.9,1.63,3.937,3.937,0,0,0,1.6.693,1.443,1.443,0,0,0,.891.025,1.47,1.47,0,0,0,.519-.437l1.454-1.673a11.193,11.193,0,0,1,3.318-2.928c.418-.2.859-.358,1.279-.557a6.886,6.886,0,0,0,3.523-4.523c.12-.467.2-.944.274-1.421l.21-1.307a.417.417,0,0,0,0-.2.43.43,0,0,0-.153-.182,25.351,25.351,0,0,1-2.837-2.677,6.549,6.549,0,0,0-.643-.736c-.3-.239-.278-.221-.641,0A7.678,7.678,0,0,0,120.886,339.2Z" transform="translate(-112.109 -303.201)"/><path class="b" d="M261.393,421.546a.225.225,0,1,0-.4.2l-.119.059,3.563,7.3.644-.314-3.563-7.308Z" transform="translate(-242.668 -376.85)"/><path class="i" d="M120.886,339.2c-.283.3-.545.626-.848.908a10.287,10.287,0,0,1-.836.669q-.7.526-1.374,1.089a7.7,7.7,0,0,0-1.26,1.258c-.638.857-.94,1.923-1.538,2.808-.528.785-1.273,1.405-1.809,2.184a3.38,3.38,0,0,0-.516,1.084,5.036,5.036,0,0,0-.106,1.146,8.51,8.51,0,0,0,.109,1.887,2.862,2.862,0,0,0,.9,1.63,3.937,3.937,0,0,0,1.6.693,1.443,1.443,0,0,0,.891.025,1.47,1.47,0,0,0,.519-.437l1.454-1.673a11.193,11.193,0,0,1,3.318-2.928c.418-.2.859-.358,1.279-.557a6.886,6.886,0,0,0,3.523-4.523c.12-.467.2-.944.274-1.421l.21-1.307a.417.417,0,0,0,0-.2.43.43,0,0,0-.153-.182,25.351,25.351,0,0,1-2.837-2.677,6.549,6.549,0,0,0-.643-.736c-.3-.239-.278-.221-.641,0A7.678,7.678,0,0,0,120.886,339.2Z" transform="translate(-112.109 -303.201)"/><path class="f" d="M461.348,382.2a5.58,5.58,0,0,1-.358,2.243,1.2,1.2,0,0,1-.664.7,1.547,1.547,0,0,1-.584.022,21.111,21.111,0,0,0-6.989.554c.609-1.219.259-2.68.428-4.033.047-.369.131-.733.164-1.1a13.963,13.963,0,0,0-.7-3.888,8.7,8.7,0,0,1,0-3.4,2.271,2.271,0,0,1,.293-.819,1.921,1.921,0,0,1,.672-.584,5.637,5.637,0,0,1,3.2-.541c.733.049,2.2-.02,2.812.43.668.494.879,2.151,1.06,2.917a24.67,24.67,0,0,1,.55,3.569A38.355,38.355,0,0,1,461.348,382.2Z" transform="translate(-411.376 -332.749)"/><path class="j" d="M59.98,436.03l4.3,2.868,19.359-.717L70.854,436.03Z" transform="translate(-52.813 -383.928)"/><path class="c" d="M179.354,285.1c-.706.623-1.3,1.356-1.974,2.02a27.166,27.166,0,0,1-3,2.456,2.232,2.232,0,0,1,1.553,1.565c.045.176.068.358.12.531a2.9,2.9,0,0,0,.664,1.075c1.212,1.366,2.907,2.377,3.622,4.063a.375.375,0,0,0,.143.2.314.314,0,0,0,.185.022,2.533,2.533,0,0,0,1.553-1.1,11.454,11.454,0,0,0,2.031-3.575,6.373,6.373,0,0,0,.03-4.063,10.4,10.4,0,0,0-.94-1.832l-.927-1.544c-.161-.271-.367-.822-.684-.956C181.048,283.67,179.792,284.657,179.354,285.1Z" transform="translate(-166.514 -255.781)"/><path class="c" d="M451.6,340.638l1.017,2.39a7.388,7.388,0,0,0-6.68.926,3.752,3.752,0,0,0-1.373,1.6.7.7,0,0,1-.692-.271,1.387,1.387,0,0,1-.256-.731,5.762,5.762,0,0,1,.6-2.676,3.854,3.854,0,0,1,.609-1.138,3.56,3.56,0,0,1,1.04-.744,23.15,23.15,0,0,1,3.77-1.666,1.129,1.129,0,0,1,1.434.339C451.422,339.278,451.318,339.986,451.6,340.638Z" transform="translate(-403.561 -303.6)"/><path class="f" d="M126.307,412.449c.255.2.478.443.74.637a5.284,5.284,0,0,0,.88.494l1.178.566a6.607,6.607,0,0,0,1.141.464c.5.135,1.034.148,1.54.274.639.158,1.224.486,1.853.676a2.143,2.143,0,0,0,1.893-.174c.329-.247.577-.656.985-.717a1.3,1.3,0,0,1,.75.215l3.066,1.612a2.336,2.336,0,0,1,1.067.874.806.806,0,0,1-.385,1.152,4.191,4.191,0,0,1-.478.027.375.375,0,0,0-.351.271.545.545,0,0,0,.075.281,1.175,1.175,0,0,1,.018,1,.715.715,0,0,1-.868.358c.054.462-.449.786-.9.909a8.116,8.116,0,0,1-3.485-.076,4.779,4.779,0,0,1-1.329-.358c-.2-.1-.382-.221-.583-.311a4.162,4.162,0,0,0-1.779-.2,41.222,41.222,0,0,1-8.286-.981,4.006,4.006,0,0,1-1.464-.478,2.713,2.713,0,0,1-1.01-2.653,7.964,7.964,0,0,1,1.133-2.756l.639-1.127a1.451,1.451,0,0,1,.344-.454C123.636,411.252,125.5,411.8,126.307,412.449Z" transform="translate(-119.114 -368.24)"/><path class="i" d="M126.307,412.449c.255.2.478.443.74.637a5.284,5.284,0,0,0,.88.494l1.178.566a6.607,6.607,0,0,0,1.141.464c.5.135,1.034.148,1.54.274.639.158,1.224.486,1.853.676a2.143,2.143,0,0,0,1.893-.174c.329-.247.577-.656.985-.717a1.3,1.3,0,0,1,.75.215l3.066,1.612a2.336,2.336,0,0,1,1.067.874.806.806,0,0,1-.385,1.152,4.191,4.191,0,0,1-.478.027.375.375,0,0,0-.351.271.545.545,0,0,0,.075.281,1.175,1.175,0,0,1,.018,1,.715.715,0,0,1-.868.358c.054.462-.449.786-.9.909a8.116,8.116,0,0,1-3.485-.076,4.779,4.779,0,0,1-1.329-.358c-.2-.1-.382-.221-.583-.311a4.162,4.162,0,0,0-1.779-.2,41.222,41.222,0,0,1-8.286-.981,4.006,4.006,0,0,1-1.464-.478,2.713,2.713,0,0,1-1.01-2.653,7.964,7.964,0,0,1,1.133-2.756l.639-1.127a1.451,1.451,0,0,1,.344-.454C123.636,411.252,125.5,411.8,126.307,412.449Z" transform="translate(-119.114 -368.24)"/><path class="f" d="M295.988,432.718a19.435,19.435,0,0,1-1.987.548,11.771,11.771,0,0,0-1.8.963,16.084,16.084,0,0,1-5.106,1.507,14.9,14.9,0,0,1-3.226.337,20.746,20.746,0,0,1-4.264-.913,8.154,8.154,0,0,0-4.311-.2A4.853,4.853,0,0,0,272.128,438a7,7,0,0,0-.277,2.691c.294.216.705-.084.865-.412s.247-.731.558-.922c.539.183.67.9,1.115,1.256a2.013,2.013,0,0,0,1,.331l1.816.258a1.486,1.486,0,0,0,1.262-.2c.154-.149.239-.358.38-.519a1.409,1.409,0,0,1,1.2-.332c1.343.134,2.6,1,3.936.8a7.468,7.468,0,0,0,1.323-.421c2.592-.915,5.472-.358,8.169-.883a18.236,18.236,0,0,0,3-.926,6.063,6.063,0,0,0,1.524-.755,3.207,3.207,0,0,0,1.238-2.845,3.252,3.252,0,0,0-1.148-2.108,4.064,4.064,0,0,0-.738-.635C296.869,432.159,296.4,432.526,295.988,432.718Z" transform="translate(-252.318 -386.444)"/><g class="k" transform="translate(25.752 18.145)"><path d="M338.482,213.223c-.2-.177-.249-.446-.421-.642-.358-.415-1.083-.358-1.673-.275-1.029.145-2.271.178-2.909-.538-.276-.308-.4-.717-.735-.974-.786-.6-2.139.014-3.005-.491-.756-.441-.707-1.464-1.338-2.031a2.738,2.738,0,0,0-2.581-.21.747.747,0,0,1-.464.053c-.271-.1-.252-.433-.185-.681a14.569,14.569,0,0,1,1.293-3.518,7.391,7.391,0,0,0,.651-1.224,21.519,21.519,0,0,1,.467-2.331,3.216,3.216,0,0,0-.943.837c-.509.759-.312,1.724-.6,2.567a7.4,7.4,0,0,1-.651,1.224A14.567,14.567,0,0,0,324.1,208.5c-.067.249-.086.586.185.681a.747.747,0,0,0,.464-.053,2.72,2.72,0,0,1,2.581.21c.636.575.582,1.594,1.338,2.031.866.505,2.219-.105,3.005.491.337.256.459.666.735.974.643.717,1.88.682,2.909.538.59-.084,1.314-.14,1.673.275.172.2.221.465.421.642a1.1,1.1,0,0,0,1.365-.171,3.622,3.622,0,0,0,.571-.781A.889.889,0,0,1,338.482,213.223Z" transform="translate(-324.055 -200.36)"/><path d="M461.424,289.005a3.4,3.4,0,0,0-.214.31,6.48,6.48,0,0,0,1.288-1.05,2.533,2.533,0,0,0,.239-.344A6.278,6.278,0,0,0,461.424,289.005Z" transform="translate(-444.82 -277.457)"/></g><path class="b" d="M556.48,446.53l.358,34.3,1.673-.239-.359-34.057Z" transform="translate(-489.982 -393.174)"/><path class="b" d="M640.48,498.53l.359,34.3,1.673-.239-.358-34.057Z" transform="translate(-563.944 -438.96)"/><path class="b" d="M996.859,564.327h0l-.007-.658v-.392l-.063-6.032-.1-9.431-.017-.814H995l.008.784.053,5.051.023,2.187h0l.019,1.771.031,3.062.019,1.806h0v.191l.025,2.373.022,2.092.136-.151q.329-.367.643-.746Z" transform="translate(-889.071 -487.432)"/><path class="c" d="M617.936,545.03l-.956,1.429.956,6.511,8.126,2.224h13.145l7.887.477,3.757-2.572-.65-4.417-2.868-3.653Z" transform="translate(-543.252 -479.903)"/><path class="b" d="M721.275,605.48l-.478,3.97s-2.509,7.783,17.686,7.306,16.73-2.065,16.73-2.065l-.12-4.605s.7,2.18-9.56,1.884-19.837-1.249-19.837-1.249S722.112,611.356,721.275,605.48Z" transform="translate(-647.548 -538.924)"/><path class="l" d="M830.7,303.811a5.774,5.774,0,0,0-2.609,2.666,17.208,17.208,0,0,0-1.237,3.585,31.911,31.911,0,0,0-.862,3.915,11.856,11.856,0,0,0,1,6.95,7.833,7.833,0,0,0,5.425,4.231,9.985,9.985,0,0,0,2.748.032,22.348,22.348,0,0,0,4.853-1.069c1.643-.556,3.353-1.411,4.084-2.987a6.681,6.681,0,0,0,.44-2.962,31.509,31.509,0,0,0-1.232-8.1,6.9,6.9,0,0,0-.946-2.18,6.681,6.681,0,0,0-1.763-1.553C837.808,304.455,834.134,302.248,830.7,303.811Z" transform="translate(-740.143 -272.836)"/><path class="m" d="M830.7,303.811a5.774,5.774,0,0,0-2.609,2.666,17.208,17.208,0,0,0-1.237,3.585,31.911,31.911,0,0,0-.862,3.915,11.856,11.856,0,0,0,1,6.95,7.833,7.833,0,0,0,5.425,4.231,9.985,9.985,0,0,0,2.748.032,22.348,22.348,0,0,0,4.853-1.069c1.643-.556,3.353-1.411,4.084-2.987a6.681,6.681,0,0,0,.44-2.962,31.509,31.509,0,0,0-1.232-8.1,6.9,6.9,0,0,0-.946-2.18,6.681,6.681,0,0,0-1.763-1.553C837.808,304.455,834.134,302.248,830.7,303.811Z" transform="translate(-740.143 -272.836)"/><path class="c" d="M777.981,357.758a5.426,5.426,0,0,0,1.195,1.2,7.292,7.292,0,0,0,3.979.936c1.109.033,2.38-.03,3.076-.9a3.583,3.583,0,0,0,.581-1.371,60.805,60.805,0,0,0,1.661-9.054l3.164.011c1.369,5.864,1.257,11.959,1.138,17.981l-.173,8.781-2.039-.216c-4.841-.513-9.689-1.025-14.556-1.114a83.259,83.259,0,0,0-8.547.282l4.439-13.2a21.847,21.847,0,0,0,1.293-5.258c.195-2.616-.539-5.377.478-7.8a.949.949,0,0,1,.369-.5,1.049,1.049,0,0,1,.632-.049c.4.054,1.629,0,1.92.257.43.373.146.429-.006,1.03a12.574,12.574,0,0,0-.525,3.192A9.427,9.427,0,0,0,777.981,357.758Z" transform="translate(-688.722 -311.742)"/><path class="h" d="M952.665,352.794h0q.8-1.061,1.507-2.2c-.239-.511-.5-1.011-.711-1.533a15.413,15.413,0,0,1-.686-2.492q-.093-.43-.185-.86a56.52,56.52,0,0,1-1.428-9.447q-.018-.394-.023-.789v-.982c.014-.717.06-1.44.142-2.159.016-.141.034-.282.053-.423a.609.609,0,0,1,.012-.092l8.126-.3h0l.684-.025a2.5,2.5,0,0,0,1.354-.31,2.464,2.464,0,0,0,.717-2.151,31.922,31.922,0,0,0-.674-5.921,8.822,8.822,0,0,0-1.735-4.088c-.81-.925-1.984-1.6-2.406-2.748a12.414,12.414,0,0,0-.4-1.306,4.069,4.069,0,0,0-.856-1.024,14.258,14.258,0,0,1-2.736-3.79,11.974,11.974,0,0,0-1.641-2.725c-.031-.035-.062-.067-.094-.1a1.522,1.522,0,0,0-1.882-.4,2.406,2.406,0,0,0-.373.232h0a4.544,4.544,0,0,0-.709.674,16.135,16.135,0,0,0-1.927,2.748,15.284,15.284,0,0,0-.985,2.151,14.834,14.834,0,0,0-.532,1.792c-.1.451-.184.906-.249,1.362a33.136,33.136,0,0,0-.206,5.2c.036,1.6.106,3.2.251,4.787q.054.577.119,1.153.131,1.139.325,2.271c.051.288.1.576.163.863.014.076.03.153.045.228l.007.032a19.4,19.4,0,0,1,.367,2.021q.014.128.021.255a9.832,9.832,0,0,1-.01,1.172c-.027.461-.07.921-.092,1.383a2.232,2.232,0,0,1-.008.239c-.006.233,0,.466,0,.7a11.069,11.069,0,0,0,.2,1.66,10.734,10.734,0,0,0,1.034,2.921c.045.086.092.171.139.255.606,1.083,1.371,2.076,1.931,3.183a13.742,13.742,0,0,1,1.075,3.132q.119.537.227,1.075c.111.574.21,1.152.312,1.73.01.057.02.119.031.172.135.767.277,1.531.46,2.28.106.436.226.866.366,1.289Z" transform="translate(-844.877 -275.899)"/><path class="n" d="M833.953,570.226c0,.107-.007.215-.012.324a15.3,15.3,0,0,1-.145,1.567,10.2,10.2,0,0,1-.517,2.078,7,7,0,0,1-.617,1.268,5.832,5.832,0,0,1-.767.988,6.127,6.127,0,0,1-2.748,1.3,6.764,6.764,0,0,0-1.325.541c-.075.042-.149.087-.221.135l-1.25.828a3.739,3.739,0,0,0-1.055.9,1.909,1.909,0,0,0-.12.2,4.575,4.575,0,0,0-.368,1.1c-.65,2.708-1.3,5.418-1.747,8.167-.03.182-.058.364-.089.547l-.011.057a.3.3,0,0,0-.019-.039,71.906,71.906,0,0,1-9.93,5.075l-.742-6.214a7.522,7.522,0,0,1-.076-1.527c.07-.8.4-1.567.486-2.369a4.035,4.035,0,0,0-.427-2.279,2.493,2.493,0,0,1-.35-.845.526.526,0,0,1,.449-.614,1.1,1.1,0,0,0,.188-.986,2.882,2.882,0,0,0-.167-.546,2.3,2.3,0,0,1-.286-1.553.582.582,0,0,0,.06-.3.051.051,0,0,0,0-.019c-.041-.134-.2-.192-.282-.306-.155-.212,0-.5.1-.743a2.834,2.834,0,0,0,.16-.814c.013-.154.023-.31.039-.463a4.677,4.677,0,0,1,.111-.614,4.848,4.848,0,0,1,1.963-2.811c.465-.313.982-.541,1.457-.836a13.366,13.366,0,0,0,1.389-1.075q1.579-1.315,3.283-2.479a41.479,41.479,0,0,1,3.791-2.3q.418-.226.836-.44.455-.239.917-.453a4.483,4.483,0,0,1,3.191.019c.457.13.907.286,1.342.427a6.209,6.209,0,0,1,1.219.547,4.494,4.494,0,0,1,2.093,2.459.141.141,0,0,1,0,.02A6.256,6.256,0,0,1,833.953,570.226Z" transform="translate(-727.762 -502.75)"/><path class="g" d="M833.953,570.226c0,.107-.007.215-.012.324a15.3,15.3,0,0,1-.145,1.567,10.2,10.2,0,0,1-.517,2.078,7,7,0,0,1-.617,1.268,5.832,5.832,0,0,1-.767.988,6.127,6.127,0,0,1-2.748,1.3,6.764,6.764,0,0,0-1.325.541c-.075.042-.149.087-.221.135l-1.25.828a3.739,3.739,0,0,0-1.055.9,1.909,1.909,0,0,0-.12.2,4.575,4.575,0,0,0-.368,1.1c-.65,2.708-1.3,5.418-1.747,8.167-.03.182-.058.364-.089.547l-.011.057a.3.3,0,0,0-.019-.039,71.906,71.906,0,0,1-9.93,5.075l-.742-6.214a7.522,7.522,0,0,1-.076-1.527c.07-.8.4-1.567.486-2.369a4.035,4.035,0,0,0-.427-2.279,2.493,2.493,0,0,1-.35-.845.526.526,0,0,1,.449-.614,1.1,1.1,0,0,0,.188-.986,2.882,2.882,0,0,0-.167-.546,2.3,2.3,0,0,1-.286-1.553.582.582,0,0,0,.06-.3.051.051,0,0,0,0-.019c-.041-.134-.2-.192-.282-.306-.155-.212,0-.5.1-.743a2.834,2.834,0,0,0,.16-.814c.013-.154.023-.31.039-.463a4.677,4.677,0,0,1,.111-.614,4.848,4.848,0,0,1,1.963-2.811c.465-.313.982-.541,1.457-.836a13.366,13.366,0,0,0,1.389-1.075q1.579-1.315,3.283-2.479a41.479,41.479,0,0,1,3.791-2.3q.418-.226.836-.44.455-.239.917-.453a4.483,4.483,0,0,1,3.191.019c.457.13.907.286,1.342.427a6.209,6.209,0,0,1,1.219.547,4.494,4.494,0,0,1,2.093,2.459.141.141,0,0,1,0,.02A6.256,6.256,0,0,1,833.953,570.226Z" transform="translate(-727.762 -502.75)"/><path class="b" d="M898.393,446.546a.225.225,0,1,0-.4.2l-.12.059,3.563,7.3.644-.314-3.563-7.309Z" transform="translate(-803.548 -398.863)"/><ellipse class="l" cx="7.648" cy="7.648" rx="7.648" ry="7.648" transform="translate(91.652 24.737)"/><path class="h" d="M894.584,176.944a10.16,10.16,0,0,0-.27-1.8,10.59,10.59,0,0,0-2.684-5.222,10.461,10.461,0,0,0-.312-1,.176.176,0,0,0-.008-.024,11.219,11.219,0,0,0-1.8-3.2,2.529,2.529,0,0,0-1.744-1.128,1.413,1.413,0,0,1-.6-.065,1.076,1.076,0,0,1-.333-.342,3.13,3.13,0,0,0-3.03-1.134l-.074.016c-.042.008-.084.018-.12.029l-.151.044q.082.136.161.276.213.379.394.774.151.33.278.67a5.985,5.985,0,0,0-3.131,1.835l-2.144,1.945-.011.011-.062.06c-.016.016-.031.031-.045.048a.1.1,0,0,0-.016.017c-.018.019-.035.039-.051.06a.9.9,0,0,0-.08.12.446.446,0,0,0-.031.056.121.121,0,0,0-.008.018.449.449,0,0,0-.02.05.018.018,0,0,0,0,.007.281.281,0,0,0-.008.03.358.358,0,0,0,.02.253l1.414.016h.166c.007.189.013.379.02.568a8.068,8.068,0,0,0-.645.538,7.019,7.019,0,0,0-.63.664,9.171,9.171,0,0,0-2.008,5.533v.731c0,.119.011.239.02.358a.9.9,0,0,0,.12.443.414.414,0,0,0,.033.043.825.825,0,0,0,.253.186l.1.05h0c.051.025.1.049.148.076.451.255.717.746,1.127,1.061.024.018.048.036.072.051l.054.036.034.021.045.026a.961.961,0,0,0,.092.049h0l.057.029h.01c.048.022.1.042.145.06l.068.024.02.007c.019.006.039.013.06.018l.12.032.12.026c.047.008.094.017.142.023l.071.01.072.007q.171.016.344.018h0a8.607,8.607,0,0,0,1.084-.075l3.05-.358a6.571,6.571,0,0,1,2.08-.019,13.7,13.7,0,0,1,1.673.589c.127.044.253.085.381.119.047.013.094.027.142.039l.066.017.153.037c.055.013.11.026.165.037.078.017.154.031.232.045.053.011.106.019.16.029h.011l.153.024h.037l.113.016c.055.008.11.016.166.021q.183.023.366.039c.2.019.4.033.6.045l.2.012.2.01.6.026h.11a3.083,3.083,0,0,0,.743-.038c.043-.008.085-.018.127-.03s.076-.024.119-.038a2.045,2.045,0,0,0,1-.991c.048-.09.092-.179.133-.271s.078-.185.111-.278c.042-.12.078-.233.109-.353.01-.032.018-.065.025-.1s.024-.1.033-.149c.03-.137.053-.276.069-.416a1.265,1.265,0,0,1,.016-.134c.011-.119.019-.231.024-.348v-.268C894.592,177.2,894.584,177.067,894.584,176.944Zm-3.064-7.134c-.1-.091-.2-.178-.3-.261a1.232,1.232,0,0,1,.3.261Z" transform="translate(-785.189 -149.294)"/><path class="h" d="M716.013,304.861a8.11,8.11,0,0,0-2.68-.312,3.715,3.715,0,0,0-1.478.82,17.973,17.973,0,0,0-4.155,4.75,2.51,2.51,0,0,0-.384.9,2.383,2.383,0,0,0,.165,1.109c.817,2.415,2.566,4.432,3.361,6.854a14.747,14.747,0,0,1-.07,7.942,33.189,33.189,0,0,1-3.685,9.165,5.226,5.226,0,0,1-.848,1.162c-.435.418-1.019.717-1.277,1.264a5.661,5.661,0,0,0-.239.767c-.239.717-.817,1.331-.874,2.088a4.762,4.762,0,0,0,.4,1.673,4.611,4.611,0,0,1-.085,2.88c-.606,1.661-2.19,3.171-1.73,4.879a3.975,3.975,0,0,0,2.648-1.631,2.906,2.906,0,0,1,.544-.985c.575-.489,1.554-.047,2.164-.5a1.369,1.369,0,0,0,.272-1.58c-.206-.538-.559-1.011-.717-1.564-.275-1,.165-2.053.084-3.084-.038-.478-.185-.936-.2-1.411a3.314,3.314,0,0,1,1.171-2.42,9.729,9.729,0,0,1,2.347-1.453l3.126-1.554c1.134-.562,2.377-1.246,2.748-2.456a4.97,4.97,0,0,0,.149-1.409c.106-7.231,1.918-14.316,3.719-21.32a26.4,26.4,0,0,1,.98-3.217c.416-1.042,1.23-1.879,1.644-2.846C720.71,303.094,718.512,305.174,716.013,304.861Z" transform="translate(-631.391 -272.897)"/><path class="n" d="M774.207,562.077c.276,1.673.445,3.382.576,5.082a58.138,58.138,0,0,1-6.82,4.773c-.134.082-.269.164-.4.239l-.011.057a.3.3,0,0,0-.019-.039,1.8,1.8,0,0,0-.9-.887q-1.323-2.778-2.643-5.557a14.593,14.593,0,0,1-1.2-3.089.475.475,0,0,0-.014-.069c-.182-.836-.224-1.705-.344-2.552a7.376,7.376,0,0,0-.326-1.427c-.143-.412-.341-.812-.515-1.215a4.047,4.047,0,0,1-.4-1.537,1,1,0,0,0-.073-.5,1.3,1.3,0,0,0-.326-.315,1.244,1.244,0,0,1-.4-1.136c-.717.037-1.121.808-1.409,1.461a7.97,7.97,0,0,1-1.023,1.792,3.4,3.4,0,0,1-1.133.943c-.039.019-.079.038-.12.055a5.6,5.6,0,0,1-3.244.086,6.081,6.081,0,0,1-2.683-.976l-.081-.065a3.515,3.515,0,0,1-.6-.638,6.945,6.945,0,0,1-1.075-3.107c-.014-.1-.029-.206-.042-.308a11.494,11.494,0,0,1-.09-2.328c.014-.191.035-.382.06-.572.017-.12.035-.249.055-.373a.031.031,0,0,1,0-.011c.031-.2.065-.4.1-.6a5.493,5.493,0,0,1,.6-1.956,3.7,3.7,0,0,1,.88-.942c.129-.1.262-.2.4-.292.217-.151.441-.294.668-.429a11.543,11.543,0,0,1,1.792-.872c.148-.057.3-.111.449-.163a3.526,3.526,0,0,1,1.826-.145,9.6,9.6,0,0,0,1.635.1,41.2,41.2,0,0,0,4.209-.468,9.145,9.145,0,0,1,5.725.717c.081.047.16.1.239.147a7.08,7.08,0,0,1,2.054,2.171c.12.18.224.366.326.553a14.11,14.11,0,0,1,.642,1.326,1.651,1.651,0,0,1,.178.717.922.922,0,0,1-.019.141c-.032.17-.1.335-.119.507-.075.651.478,1.195.685,1.815a8.878,8.878,0,0,1,.195,1.262,6.565,6.565,0,0,0,.664,1.673,20.908,20.908,0,0,1,1.064,2.673c.208.637.386,1.283.543,1.936q.077.314.145.63C774.007,560.94,774.113,561.507,774.207,562.077Z" transform="translate(-672.352 -484.75)"/><path class="b" d="M602.377,450.6v.836l-.154,0-.172,0-1.922-.024-4.734-.062-1.329-.017-.344,0-1.994-.025-2.811-.037-5.963-.078-10.347-.134-3.734-.048-1.5-.019-1.379-.018-.859-.012-.814-.011-6.034-.078-1.673-.022-.364,0-.237-.611-1.72-4.435-.314-.81.239-.956,1.075.717.662.082,10.9,1.355,2.046.255,4.338.54,4.249.528,1.666.207,9.857,1.226,2.754.343,2.28.283,8.107,1.009Z" transform="translate(-487.781 -390.972)"/><path class="e" d="M555.98,444.03l2.151,5.616,46.007.956v-6.094Z" transform="translate(-489.542 -390.972)"/><path class="b" d="M575.98,496.03l.358,34.3,1.673-.239-.359-34.057Z" transform="translate(-507.152 -436.758)"/><path class="b" d="M1050.646,550.554h-.172a37.811,37.811,0,0,1-1.378,6.308l-.544-6.333-.023-.27,2.01-.232.067-.007Z" transform="translate(-936.205 -490.091)"/><path class="j" d="M733.924,455.3l-17.506.358-5.437-1.792,14.579-.837Z" transform="translate(-626.02 -398.897)"/><path class="l" d="M820.549,456.831a1.173,1.173,0,0,0-.478.341,1.262,1.262,0,0,0-.178.543l-.294,1.753a.776.776,0,0,0,.023.486c.076.147.3.224.41.1a1.573,1.573,0,0,0,.215.988.689.689,0,0,0,.9.232.583.583,0,0,0,.878.136c-.17.057-.182.317-.061.448a.78.78,0,0,0,.488.195,11.924,11.924,0,0,0,6.2-.78,10.844,10.844,0,0,0-.351-2.594,2.613,2.613,0,0,0-.644-1.594,6.927,6.927,0,0,0-4.439-.956A7.648,7.648,0,0,0,820.549,456.831Z" transform="translate(-734.605 -407.396)"/><path class="g" d="M881.488,451.76c-4.322.082-8.734.153-12.859-1.141a8.724,8.724,0,0,1-.079,4.645l20.21,1.673a33.973,33.973,0,0,0,5.245.27c.835-.2-7.008-2.785-6.692-3.585.871-2.2,3.789-3.493,1.687-3.575C886.347,449.942,884.161,451.71,881.488,451.76Z" transform="translate(-777.732 -402.061)"/><path class="h" d="M882.488,453.76c-4.322.082-8.734.153-12.859-1.141a8.722,8.722,0,0,1-.079,4.645l20.209,1.673a33.238,33.238,0,0,0,5.245.27c.835-.208.639-1.232.956-2.031.871-2.2-3.859-5.046-5.961-5.129C887.347,451.942,885.161,453.71,882.488,453.76Z" transform="translate(-778.612 -403.822)"/><path class="l" d="M860.295,463.831a1.17,1.17,0,0,1,.478.341,1.28,1.28,0,0,1,.179.543l.294,1.753a.784.784,0,0,1-.023.486c-.077.147-.3.223-.41.1a1.582,1.582,0,0,1-.215.988.69.69,0,0,1-.9.232.583.583,0,0,1-.878.136c.17.057.183.317.062.448a.784.784,0,0,1-.489.195,11.92,11.92,0,0,1-6.2-.78,10.78,10.78,0,0,1,.351-2.594,2.613,2.613,0,0,1,.644-1.594,6.925,6.925,0,0,1,4.439-.956A7.649,7.649,0,0,1,860.295,463.831Z" transform="translate(-763.291 -413.559)"/><path class="h" d="M670.666,367.117a7.651,7.651,0,0,0-1.05,1.63,7.925,7.925,0,0,0-.336,3.661,2.137,2.137,0,0,0,.239,1.022,1.726,1.726,0,0,0,.624.532,8.829,8.829,0,0,0,3.43.9q2.717.3,5.454.367c4.519.11,9.108-.259,13.51.765a3.384,3.384,0,0,1-.239-2.868,9.763,9.763,0,0,1,1.466-2.575c-2.015-.638-4.175.358-6.286.259-2.167-.1-4.172-1.354-6.341-1.353a5.769,5.769,0,0,1-1.393-.054,1.16,1.16,0,0,1-.933-.919,1.336,1.336,0,0,0,1.366-.907c.239-.543.282-1.156.514-1.7.577-1.359,2.137-1.988,3.107-3.107a.761.761,0,0,0,.054-1.154,16.519,16.519,0,0,0-3.032-2.509c-.351-.292-1.06-1.391-1.454-1.493-.731-.188-1.352.869-1.827,1.384Q673.937,362.9,670.666,367.117Z" transform="translate(-602.223 -320.652)"/><path class="o" d="M882.39,434.81a3.955,3.955,0,0,1,.8.792,1.364,1.364,0,0,1,.25,1.068,1.6,1.6,0,0,1,1-1.653Z" transform="translate(-789.918 -388.648)"/><g class="k" transform="translate(91.813 13.731)"><path d="M931.7,164.513a10.415,10.415,0,0,0-.485-1.093,2.928,2.928,0,0,0-.349.09,10.107,10.107,0,0,1,.553,1.055A2.006,2.006,0,0,1,931.7,164.513Z" transform="translate(-924.418 -163.42)"/><path d="M995.87,212c.032.026.063.056.094.084a.153.153,0,0,0-.008-.023Z" transform="translate(-981.651 -206.195)"/><path d="M892.236,211.029c.062-.049.12-.1.186-.148l-.019-.568-1.276-.013c-.207.19-.427.462-.3.717Z" transform="translate(-889.125 -204.698)"/><path d="M893.94,279.789a2.041,2.041,0,0,1-1,.991,2.719,2.719,0,0,1-1.095.1,12.8,12.8,0,0,1-3.731-.525,13.179,13.179,0,0,0-1.673-.59,6.535,6.535,0,0,0-2.08.02l-3.049.358a3.578,3.578,0,0,1-2.621-.368c-.411-.315-.676-.807-1.127-1.06a1.432,1.432,0,0,1-.539-.358.9.9,0,0,1-.12-.443c-.01-.125-.016-.251-.02-.376a10.117,10.117,0,0,0,.02,1.093.9.9,0,0,0,.12.443,1.432,1.432,0,0,0,.539.358c.451.253.717.744,1.127,1.06a3.554,3.554,0,0,0,2.621.368l3.049-.358a6.535,6.535,0,0,1,2.08-.02,13.53,13.53,0,0,1,1.673.59,12.66,12.66,0,0,0,3.731.525,2.741,2.741,0,0,0,1.095-.1,2.041,2.041,0,0,0,1-.991,5.073,5.073,0,0,0,.516-2.683A4.668,4.668,0,0,1,893.94,279.789Z" transform="translate(-876.877 -263.903)"/></g><path class="g" d="M937.56,179l1.673,1.553S937.8,179.956,937.56,179Z" transform="translate(-838.495 -163.407)"/></g></svg>