<svg xmlns="http://www.w3.org/2000/svg" width="295.265" height="264.44" viewBox="0 0 295.265 264.44"><defs><style>.a{fill:#f7b248;}.b{fill:#ccc;}.c{fill:#3f3d56;}.d{fill:#2f2e41;}.e{fill:#e6e6e6;}</style></defs><g transform="translate(0)"><path class="a" d="M749.98,641.98h-7.49a3.3,3.3,0,0,1-3.3-3.3V576.257a3.3,3.3,0,0,1,3.3-3.3h7.49a3.3,3.3,0,0,1,3.3,3.3v62.425A3.3,3.3,0,0,1,749.98,641.98Z" transform="translate(-520.925 -378.342)"/><path class="a" d="M733.478,538.579l-5.859-4.665a3.045,3.045,0,0,0-4.279.485l-38.884,48.835a3.045,3.045,0,0,0,.485,4.279l.159.127,18.915,30.013a3.045,3.045,0,0,0,4.2.953l6.336-3.993a3.045,3.045,0,0,0,.952-4.2l-15.609-24.767,34.068-42.787A3.045,3.045,0,0,0,733.478,538.579Z" transform="translate(-493.639 -358.785)"/><path class="b" d="M731.113,600.311H695.084A4.319,4.319,0,0,1,690.77,596v-8.627a4.319,4.319,0,0,1,4.313-4.313h36.029a4.319,4.319,0,0,1,4.313,4.313V596a4.319,4.319,0,0,1-4.313,4.313Z" transform="translate(-497.076 -383.317)"/><rect class="c" width="164.432" height="1.137" transform="translate(130.832 263.303)"/><circle class="a" cx="27.159" cy="27.159" r="27.159" transform="translate(194.186 67.32)"/><path class="d" d="M742.986,516.842H687.134a3.3,3.3,0,0,1-3.3-3.3L695,456.4a18.508,18.508,0,0,1,18.5-18.456h3.625a18.52,18.52,0,0,1,18.5,18.5L746.28,513.5a3.306,3.306,0,0,1-3.294,3.345Z" transform="translate(-493.66 -311.842)"/><path class="d" d="M696.745,376.726c-1.678-.047-3.767-.106-5.373-1.281a4.126,4.126,0,0,1-1.624-3.081,2.776,2.776,0,0,1,.944-2.28,3.582,3.582,0,0,1,3.389-.488l-1.37-10.01,1.006-.138,1.61,11.768-.839-.386a3.071,3.071,0,0,0-3.14.028,1.783,1.783,0,0,0-.585,1.469,3.12,3.12,0,0,0,1.208,2.3c1.25.914,2.915,1.032,4.8,1.085Z" transform="translate(-496.569 -273.18)"/><rect class="d" width="5.466" height="1.015" transform="translate(202.956 87.27)"/><rect class="a" width="13.579" height="68.514" rx="6" transform="translate(176.787 189.957) rotate(-129.804)"/><path class="d" d="M728.752,467.084l-19.78,18.8a3.311,3.311,0,0,1-4.571-.008l-8.949-8.564a3.311,3.311,0,0,1,.387-5.1L719.3,455.734a3.317,3.317,0,0,1,4.663.422l5.216,6.259a3.317,3.317,0,0,1-.424,4.668Z" transform="translate(-498.879 -320.228)"/><path class="d" d="M746.245,296.014a19.308,19.308,0,0,1,3.328-15.082,23.207,23.207,0,0,1,13.174-8.709c10.034-2.611,20.687,1.034,28.118,7.991,8.019,7.507,11.6,18.42,11.082,29.255-.522,10.985-5.249,21.3-12.343,29.593a66.164,66.164,0,0,1-11.832,10.792c-2.154,1.538-4.674,3.542-7.445,3.586-2.008.033-4.575-1.269-4.046-3.64a2.176,2.176,0,0,1,1.658-1.81c.961-.114.973-1.637,0-1.522a3.951,3.951,0,0,0-3.1,5.058c.707,2.456,3.556,3.626,5.921,3.413,3-.27,5.574-2.187,7.942-3.889a71,71,0,0,0,6.766-5.507c8.493-7.849,15.056-18.072,17.223-29.54,2.183-11.552.031-24.095-7.488-33.361-6.823-8.408-17.793-13.838-28.731-12.635a26.5,26.5,0,0,0-15.54,7.024,21.62,21.62,0,0,0-6.612,15.23,19.2,19.2,0,0,0,.454,4.16c.209.957,1.677.552,1.468-.4Z" transform="translate(-523.453 -229.043)"/><path class="d" d="M753.591,308.27a12.325,12.325,0,0,1,13.979-13.549c.97.122.961-1.4,0-1.522a13.819,13.819,0,0,0-15.5,15.071C752.162,309.237,753.685,309.246,753.591,308.27Z" transform="translate(-527.235 -240.494)"/><path class="d" d="M741,310.721a2.284,2.284,0,0,0-.718,4.452h0l7.228,2.387a2.284,2.284,0,1,0,1.432-4.337l-7.228-2.387A2.275,2.275,0,0,0,741,310.721Z" transform="translate(-520.689 -249.179)"/><path class="c" d="M388.237,347.547h-.113a79.06,79.06,0,1,1,54.571-21.862l15.9,17.828-.815.346c-13.182,5.59-26.539-2.03-32-5.846A78.906,78.906,0,0,1,388.237,347.547Zm-.112-156.832a77.781,77.781,0,1,0,37.4,145.994l.349-.192.324.231c4.956,3.526,17.672,11.065,30.264,6.273l-15.536-17.415.452-.423a77.777,77.777,0,0,0-53.252-134.468Z" transform="translate(-309.074 -189.446)"/><path class="a" d="M446.718,311.855c-16.223-.169-32.443-.459-48.665-.679q-8.112-.11-16.224-.193c-4.66-.049-4.672-7.295,0-7.246,16.222.169,32.443.459,48.665.679q8.112.11,16.224.193C451.377,304.658,451.389,311.9,446.718,311.855Z" transform="translate(-343.185 -245.739)"/><path class="a" d="M462.985,345.173l-65.565-.679-18.647-.193c-4.66-.048-4.672-7.294,0-7.246l65.565.679,18.647.193C467.645,337.976,467.656,345.222,462.985,345.173Z" transform="translate(-341.68 -262.15)"/><path class="a" d="M462.985,378.491l-65.565-.679-18.647-.193c-4.66-.048-4.672-7.294,0-7.246l65.565.679,18.647.193C467.645,371.293,467.656,378.54,462.985,378.491Z" transform="translate(-341.68 -278.56)"/><circle class="e" cx="4.567" cy="4.567" r="4.567" transform="translate(153.252 158.609)"/></g></svg>