<svg xmlns="http://www.w3.org/2000/svg" xmlns:xlink="http://www.w3.org/1999/xlink" width="335.859" height="280.099" viewBox="0 0 335.859 280.099"><defs><style>.a{fill:#fff;}.b,.t,.u,.v,.w{opacity:0.5;}.c{fill:url(#a);}.d{fill:#f2f2f2;}.e{fill:#e0e0e0;}.f,.i,.o{fill:#f7b248;}.f,.m{opacity:0.7;}.g{fill:#f5f5f5;}.h{clip-path:url(#d);}.i,.k{opacity:0.4;}.j{fill:url(#e);}.k{fill:#bdbdbd;}.l{fill:url(#h);}.m,.p{fill:#3ad29f;}.n{fill:url(#i);}.q,.v{fill:#f55f44;}.r,.u{fill:#fdd835;}.s,.w{fill:#47e6b1;}.t{fill:#4d8af0;}.x{fill:url(#k);}.y{fill:url(#l);}.z{opacity:0.2;}</style><linearGradient id="a" x1="0.5" y1="1" x2="0.5" gradientUnits="objectBoundingBox"><stop offset="0" stop-color="gray" stop-opacity="0.251"/><stop offset="0.54" stop-color="gray" stop-opacity="0.122"/><stop offset="1" stop-color="gray" stop-opacity="0.102"/></linearGradient><clipPath id="d"><rect class="a" width="55.214" height="37.22"/></clipPath><linearGradient id="e" x1="0.5" x2="0.5" y2="0" xlink:href="#a"/><linearGradient id="h" x1="0.511" y1="1.102" x2="0.511" y2="-0.241" xlink:href="#a"/><linearGradient id="i" x1="0.572" y1="0.676" x2="0.572" y2="0.102" xlink:href="#a"/><linearGradient id="k" x1="0.5" x2="0.5" y2="0" xlink:href="#a"/><linearGradient id="l" x1="0.5" x2="0.5" y2="0.001" xlink:href="#a"/></defs><g transform="translate(0 -0.072)"><g class="b" transform="translate(59.448 31.616)"><rect class="c" width="172.202" height="230.762"/></g><rect class="d" width="166.82" height="222.689" transform="translate(61.691 34.755)"/><rect class="e" width="57.4" height="1.793" transform="translate(74.768 44.173)"/><rect class="f" width="57.4" height="1.793" transform="translate(74.768 52.243)"/><rect class="e" width="57.4" height="1.793" transform="translate(140.509 44.173)"/><rect class="e" width="57.4" height="1.793" transform="translate(149.453 95.08)"/><rect class="e" width="57.4" height="1.793" transform="translate(150.795 100)"/><rect class="e" width="57.4" height="1.793" transform="translate(153.478 104.92)"/><rect class="e" width="57.4" height="1.793" transform="translate(149.453 174.272)"/><rect class="e" width="57.4" height="1.793" transform="translate(150.795 179.195)"/><rect class="e" width="57.4" height="1.793" transform="translate(153.478 184.115)"/><g class="b" transform="translate(75.212 76.688)"><rect class="c" width="60.989" height="61.883"/></g><rect class="g" width="60.025" height="59.192" transform="translate(75.596 78.032)"/><g class="b" transform="translate(77.709 81.627)"><rect class="c" width="55.984" height="38.566"/></g><rect class="a" width="55.214" height="37.22" transform="translate(78.094 82.075)"/><g class="h" transform="translate(78.094 82.075)"><path class="i" d="M197.723,267.951l13.9-21.529,5.829,9.419,12.553-13,10.764,13,9.419-19.281,24.216,38.566-78.477-2.691Z" transform="translate(-202.401 -232.072)"/><circle class="i" cx="4.037" cy="4.037" r="4.037" transform="translate(2.046 1.346)"/></g><g class="b" transform="translate(75.212 155.83)"><rect class="j" width="60.989" height="61.883"/></g><rect class="g" width="60.025" height="59.192" transform="translate(75.596 157.177)"/><g class="b" transform="translate(77.709 160.795)"><rect class="c" width="55.984" height="38.566"/></g><rect class="a" width="55.214" height="37.22" transform="translate(78.094 161.244)"/><g class="h" transform="translate(78.094 161.244)"><path class="k" d="M197.723,484.441l13.9-21.525,5.829,9.419,12.553-13,10.764,13,9.419-19.285,24.216,38.566-78.477-2.691Z" transform="translate(-202.401 -448.566)"/><circle class="k" cx="4.037" cy="4.037" r="4.037" transform="translate(2.046 1.346)"/></g><g class="b" transform="translate(84.248 20.183)"><rect class="l" width="230.934" height="172.294" transform="translate(0 226.405) rotate(-78.76)"/></g><rect class="a" width="222.861" height="166.912" transform="translate(87.406 242.186) rotate(-78.76)"/><rect class="e" width="118.388" height="1.793" transform="translate(141.09 36.173) rotate(11.24)"/><rect class="e" width="118.388" height="1.793" transform="translate(108.162 201.936) rotate(11.24)"/><rect class="e" width="91.482" height="1.793" transform="translate(106.198 212.039) rotate(11.24)"/><rect class="f" width="34.082" height="1.793" transform="translate(104.256 222.151) rotate(11.24)"/><rect class="f" width="59.192" height="1.793" transform="translate(139.189 46.185) rotate(11.24)"/><rect class="e" width="106.73" height="1.793" transform="translate(137.109 56.27) rotate(11.24)"/><rect class="m" width="26.009" height="1.793" transform="translate(135.219 66.372) rotate(11.24)"/><rect class="e" width="118.388" height="1.793" transform="translate(133.077 76.451) rotate(11.24)"/><g class="b" transform="translate(131.43 118.992)"><rect class="n" width="60.989" height="106.279" transform="translate(0 59.819) rotate(-78.76)"/></g><rect class="a" width="104.937" height="59.643" transform="translate(143.909 119.566) rotate(11.24)"/><rect class="e" width="118.388" height="1.793" transform="translate(131.073 86.542) rotate(11.24)"/><rect class="o" width="13.004" height="43.497" transform="translate(153.218 129.651) rotate(11.24)"/><rect class="p" width="13.004" height="29.147" transform="translate(173.241 148.246) rotate(11.24)"/><rect class="q" width="13.004" height="15.695" transform="translate(193.439 165.959) rotate(11.24)"/><rect class="r" width="13.004" height="31.838" transform="translate(219.398 154.676) rotate(11.24)"/><g class="b" transform="translate(44.032 235.922)"><rect class="s" width="1.346" height="7.622" transform="translate(3.135)"/><rect class="s" width="1.346" height="7.622" transform="translate(7.622 3.138) rotate(90)"/></g><path class="t" d="M690,70.33a1.646,1.646,0,0,1-.917-1.991.789.789,0,0,0,.037-.183h0a.825.825,0,0,0-1.466-.546h0a.786.786,0,0,0-.092.161,1.646,1.646,0,0,1-1.991.917.792.792,0,0,0-.183-.037h0a.825.825,0,0,0-.546,1.467h0a.791.791,0,0,0,.161.092,1.646,1.646,0,0,1,.917,1.991.789.789,0,0,0-.037.183h0a.825.825,0,0,0,1.466.546h0a.79.79,0,0,0,.092-.161,1.646,1.646,0,0,1,1.991-.917.791.791,0,0,0,.183.037h0a.825.825,0,0,0,.546-1.467h0A.789.789,0,0,0,690,70.33Z" transform="translate(-485.689 -67.23)"/><path class="u" d="M276.888,174.17a1.646,1.646,0,0,1-.917-1.991.792.792,0,0,0,.037-.183h0a.825.825,0,0,0-1.467-.546h0a.793.793,0,0,0-.092.161,1.646,1.646,0,0,1-1.991.917.792.792,0,0,0-.183-.037h0a.825.825,0,0,0-.546,1.467h0a.792.792,0,0,0,.161.092,1.646,1.646,0,0,1,.917,1.991.792.792,0,0,0-.037.183h0a.825.825,0,0,0,1.467.546h0a.791.791,0,0,0,.092-.161,1.646,1.646,0,0,1,1.991-.917.792.792,0,0,0,.183.037h0a.825.825,0,0,0,.546-1.467h0A.79.79,0,0,0,276.888,174.17Z" transform="translate(-223.58 -132.999)"/><path class="u" d="M244.188,479.23a1.646,1.646,0,0,1-.917-1.991.792.792,0,0,0,.037-.183h0a.825.825,0,0,0-1.467-.546h0a.8.8,0,0,0-.092.161,1.646,1.646,0,0,1-1.991.917.791.791,0,0,0-.183-.037h0a.825.825,0,0,0-.546,1.467h0a.793.793,0,0,0,.161.092,1.646,1.646,0,0,1,.917,1.991.8.8,0,0,0-.037.183h0a.825.825,0,0,0,1.467.546h0a.79.79,0,0,0,.092-.161,1.646,1.646,0,0,1,1.991-.917.791.791,0,0,0,.183.037h0a.825.825,0,0,0,.546-1.466h0A.79.79,0,0,0,244.188,479.23Z" transform="translate(-202.869 -326.56)"/><circle class="v" cx="2.691" cy="2.691" r="2.691" transform="translate(120.883 7.848)"/><circle class="v" cx="2.691" cy="2.691" r="2.691" transform="translate(0 113.484)"/><circle class="v" cx="2.691" cy="2.691" r="2.691" transform="translate(313.23 41.482)"/><circle class="t" cx="2.691" cy="2.691" r="2.691" transform="translate(297.982 121.473)"/><circle class="w" cx="2.691" cy="2.691" r="2.691" transform="translate(11.124 50.597)"/><circle class="w" cx="2.691" cy="2.691" r="2.691" transform="translate(309.392 234.056)"/><circle class="w" cx="2.691" cy="2.691" r="2.691" transform="translate(330.477 155.004)"/><rect class="c" width="68.369" height="56.12" transform="translate(199.036 219.776)"/><path class="x" d="M714.142,594.775a20,20,0,0,1,40,0v12.8h5.6v-12.8a25.6,25.6,0,0,0-51.2,0v12.8h5.6Z" transform="translate(-500.991 -385.582)"/><path class="g" d="M716.715,595.8a19.2,19.2,0,0,1,38.4,0v12.29h5.375V595.8a24.575,24.575,0,1,0-49.15,0v12.29h5.375Z" transform="translate(-502.763 -386.876)"/><rect class="o" width="66.815" height="54.529" transform="translate(199.734 220.289)"/><rect class="g" width="66.815" height="54.529" transform="translate(199.734 220.289)"/><rect class="o" width="66.815" height="33.022" transform="translate(199.734 231.039)"/><path class="y" d="M774.806,718.527a4.9,4.9,0,1,0-8.462,3.355v10.453a3.564,3.564,0,1,0,7.127,0V721.893A4.876,4.876,0,0,0,774.806,718.527Z" transform="translate(-536.735 -477.223)"/><path class="z" d="M775.3,722.074a4.224,4.224,0,1,0-7.3,2.893v9.012a3.072,3.072,0,0,0,6.145,0v-9.012A4.205,4.205,0,0,0,775.3,722.074Z" transform="translate(-537.9 -479.897)"/></g></svg>