<svg xmlns="http://www.w3.org/2000/svg" width="157.271" height="85.82" viewBox="0 0 157.271 85.82"><defs><style>.a,.c{fill:#f7b248;}.b{fill:#f2f2f2;}.c{opacity:0.3;}.d{fill:#2f2e41;}.e{fill:#ffb8b8;}.f{opacity:0.1;}.g{fill:#9f616a;}</style></defs><g transform="translate(0 0)"><path class="a" d="M975.251,658.6c0-4.99-2.532-9.036-5.656-9.036-1.963,0-3.692,1.6-4.706,4.025a2.836,2.836,0,0,0-1.081-.217,3.388,3.388,0,0,0-2.533,1.3c-.914-3.025-2.853-5.113-5.1-5.113-2.1,0-3.927,1.826-4.9,4.536a3.089,3.089,0,0,0-1.936-.728c-2.4,0-4.341,3.1-4.341,6.934a10.106,10.106,0,0,0,.684,3.734H974.11A12.853,12.853,0,0,0,975.251,658.6Z" transform="translate(-817.979 -578.501)"/><path class="b" d="M252.792,218.634C248.659,209,240.572,200.779,230.8,199.44a13.877,13.877,0,0,0-7.677.885c-3.146,1.44-5.464,4.348-7.808,7.03a96.3,96.3,0,0,1-16.547,15.025c-2.978,2.125-6.171,4.107-9.706,4.651-7.088,1.09-14.1-4.12-17.332-11.006-2.019-4.3-2.952-9.352-4.585-13.826-1.88,0-4.12,0-6.53.009-6.661.033-12.082.139-12.082.139s6.444-9.2,12.058-5.792a60.312,60.312,0,0,0,5.4,2.88,16.153,16.153,0,0,0-3.921-5.336c-3.357-2.9-7.9-3.715-12.2-3.5a22.491,22.491,0,0,0-12.735,4.374c-6.533,5.067-9.231,13.986-11.54,22.3l5.581,3.016c2.394-2.231,5.895-4.438,9.122-2.478a73.777,73.777,0,0,0,12.063,5.672s-5.378-.052-12.038-.019c-1.119.006-2.2.013-3.23.022l61.967,33.484c20.439.31,35.849-.881,55.271,0,1.013.046,3.291-5.677,3.3-7.183C257.684,239.169,256.924,228.27,252.792,218.634Zm-19.846,2.888c-6.661.033-12.082.139-12.082.139s6.444-9.2,12.058-5.792a73.781,73.781,0,0,0,12.063,5.672s-5.378-.052-12.038-.019Z" transform="translate(-115.42 -185.1)"/><path class="c" d="M845.838,557.289c0-3.629-2.246-6.57-5.018-6.57a4.848,4.848,0,0,0-4.176,2.927,3.007,3.007,0,0,0-.959-.158,3.267,3.267,0,0,0-2.247.948c-.811-2.2-2.531-3.717-4.521-3.717a4.971,4.971,0,0,0-4.351,3.3,3.12,3.12,0,0,0-1.717-.529c-2.127,0-3.851,2.257-3.851,5.042a6.2,6.2,0,0,0,.607,2.715h25.221A7.944,7.944,0,0,0,845.838,557.289Z" transform="translate(-711.528 -493.631)"/><path class="d" d="M226.55,587.547H82v-.31H226.4Z" transform="translate(-69.279 -501.742)"/><path class="d" d="M144.55,463.547H0v-.31H144.4Z" transform="translate(0 -395.794)"/><path class="e" d="M483.63,406.31s.975-7.151,2.6-5.2,0,4.876,0,4.876l-1.3,1.625-1.3-.975Z" transform="translate(-422.022 -365.219)"/><path class="a" d="M453.177,434.772s3.25-3.575,3.9-2.925,2.6.975,2.275,2.275-7.151,5.526-7.151,5.526Z" transform="translate(-395.256 -391.76)"/><path class="f" d="M453.177,434.772s3.25-3.575,3.9-2.925,2.6.975,2.275,2.275-7.151,5.526-7.151,5.526Z" transform="translate(-395.256 -391.76)"/><path class="e" d="M338.953,449.038v2.6s-.325,5.851,1.625,5.526.975-5.2.975-5.2l-.325-2.925Z" transform="translate(-298.36 -406.541)"/><path class="e" d="M262.154,570.557s-2.925,4.551-3.9,4.876-6.176,3.25-6.826,6.176l-4.551,5.851,2.275,2.925s10.4-11.051,13.327-12.027,5.851-5.851,5.851-5.851Z" transform="translate(-219.925 -511.748)"/><path class="e" d="M435.692,522.369s6.176.975,5.2,4.876-10.4,12.027-10.4,12.027l-.325,1.95-3.575.65-1.625-1.625.325-.975s3.9-3.575,4.226-4.876,3.9-6.5,5.526-6.826l-2.275-1.3Z" transform="translate(-372.186 -469.867)"/><path class="d" d="M231.921,670.456s1.3-1.95-.65-1.625-3.25.65-3.25,1.95,1.625,10.4,3.575,9.751.325-3.575.325-3.575.975-2.6,1.625-2.925.65-1.95,0-1.95S231.6,671.106,231.921,670.456Z" transform="translate(-201.954 -594.745)"/><path class="d" d="M416.77,629.479s0-1.625-1.3,0-1.95,2.925-.65,3.9a65.4,65.4,0,0,0,5.851,3.25s4.876.975,4.226-1.3c0,0-3.25-1.625-3.25-2.925s0-3.575-.975-2.925S416.77,630.454,416.77,629.479Z" transform="translate(-362.779 -560.918)"/><path class="d" d="M343.866,476.275s-4.551.65-4.226,7.151c0,0-5.851,5.851-4.226,7.8s5.2,5.526,6.5,4.551,5.2-8.451,5.2-8.451,9.1,3.25,10.726,1.625,3.25-5.526,3.25-5.526l-8.126-4.226Z" transform="translate(-295.545 -430.376)"/><circle class="e" cx="3.901" cy="3.901" r="3.901" transform="translate(56.322 21.889)"/><path class="e" d="M438.06,333.8s-2.275,3.575-2.925,3.9,4.551,3.575,4.551,3.575,0-4.226,1.625-5.2Z" transform="translate(-380.597 -307.966)"/><path class="a" d="M395.1,354.12s-5.2-1.625-6.176.975-3.25,7.476-2.925,10.726.975,2.6,0,3.575-1.625.325-1.3,1.625.65,1.3.325,1.95,3.9,2.925,7.476,3.25l3.575.325s0-5.851.65-7.151,1.95-3.9,1.95-4.876v-2.58a9.868,9.868,0,0,0-1.3-4.9h0S395.423,354.12,395.1,354.12Z" transform="translate(-337.625 -325.374)"/><path class="a" d="M347.086,365.232s-12.027.975-13.327,4.226-1.95,9.751-.65,9.751,2.925.65,3.25,0,1.625-7.151,1.95-7.151,10.076-.975,10.076-.975S352.612,365.882,347.086,365.232Z" transform="translate(-293.036 -335.035)"/><path class="d" d="M449.533,306.583s1.035-1.8,2.329-.236,3.4-1.309,3.076-1.921-1.464.028-3.42-.612-5.722-1.941-6.353,2.306.872,3.8.872,3.8.689-3.764,1.311-2.683l.622,1.081.54.133Z" transform="translate(-389.176 -281.707)"/><circle class="d" cx="4.759" cy="4.759" r="4.759" transform="translate(90.022 6.926)"/><path class="g" d="M699.909,246.578s.246,4.433-.246,4.433,3.078,2.093,3.078,2.093l2.216-1.231v-1.478s-2.955-.369-1.724-3.571S699.909,246.578,699.909,246.578Z" transform="translate(-606.674 -232.307)"/><path class="g" d="M572.823,411.517l-.369,3.694,1.231.369.985-.985.369-3.078Z" transform="translate(-489.178 -351.773)"/><path class="g" d="M689.124,419.645l.616,2.339,1.724,1.108,1.847-.985-2.093-3.448Z" transform="translate(-588.941 -357.897)"/><circle class="g" cx="3.571" cy="3.571" r="3.571" transform="translate(90.898 9.974)"/><path class="g" d="M681.7,287.844l-.862-.369a3.492,3.492,0,0,1-1.6-2.586,8.364,8.364,0,0,1,1.231-3.94l1.97-.616,2.315,1.884.025,3.041Z" transform="translate(-589.259 -262.237)"/><path class="g" d="M647.793,284.544l-.493-.246s-2.463-.123-2.709,2.832-1.108,7.88-1.108,7.88a15.367,15.367,0,0,0-1.847,7.141l-.985,3.2s-1.354,4.679.246,4.679,1.478-5.048,1.478-5.048,2.955-7.142,3.2-8.373,2.339-7.018,1.724-8.619A4.526,4.526,0,0,1,647.793,284.544Z" transform="translate(-555.904 -265.997)"/><path class="g" d="M700.163,335.89v1.354s.862.985.492,1.6a10.739,10.739,0,0,0-.739,1.847l1.724,2.709,5.787.492,1.151-7.71Z" transform="translate(-607.063 -309.761)"/><path class="g" d="M736.425,182.227l.985-.493a11.083,11.083,0,0,1,3.817-1.724l5.295-3.571,3.448-8.25s-.123-4.433.862-3.94.862,4.31.862,4.31-1.847,7.634-3.448,9.727-7.388,5.541-7.388,5.541-1.6,1.847-1.478,2.709S736.425,182.227,736.425,182.227Z" transform="translate(-638.569 -162.833)"/><path class="d" d="M642.922,365.482a1.536,1.536,0,0,0-2.216.616c-.862,1.478-2.463,1.847-3.448,6.28s-3.325,11.451-3.94,11.944-3.2,5.664-1.724,12.929h2.463l2.093-10.466s6.772-8.373,7.265-11.82l2.216,12.929s.123,4.925,1.97,7.265l1.97,4.679,2.586-1.231-2.955-11.82s1.478-11.944.493-15.268l-.142-4.358S645.507,367.329,642.922,365.482Z" transform="translate(-548.753 -335.883)"/><path class="d" d="M623.788,583.411h-1.477c-.246,0-2.216,1.6-1.354,2.463s2.216,2.463,2.216,2.463,4.8.611,4.925-.251-2.093-2.7-2.093-2.7l-.616-1.97S624.158,582.057,623.788,583.411Z" transform="translate(-539.329 -520.831)"/><path class="d" d="M749.986,590.666a23.511,23.511,0,0,1-2.463-.246c-.369-.123-1.108,3.2,0,3.448s5.664.616,5.664.616,3.571-.123,3.324-1.108-5.048-2.955-5.048-2.955S750.848,589.188,749.986,590.666Z" transform="translate(-647.302 -526.866)"/><path class="a" d="M691.815,275.517l-.616-.369-.739.616s2.216,1.478,1.724,2.832a26.356,26.356,0,0,1-2.586,4.186s1.847,2.093,1.847,2.832c0,0,4.8-1.724,8.373,0,0,0,0-2.463.492-2.955s.739-2.216-.492-3.694a26.982,26.982,0,0,1-2.34-3.448l-1.231-.739-.634.2s1.25,1.4.018,1.523S692.431,276.255,691.815,275.517Z" transform="translate(-598.341 -257.536)"/><path class="d" d="M721.967,178.347a2.6,2.6,0,0,1-1.613.845c-1.076.154-.231,1.844-.231,1.844a.971.971,0,0,1,.307-1.152C721.045,179.346,721.967,179.038,721.967,178.347Z" transform="translate(-623.807 -174.776)"/><circle class="d" cx="1.326" cy="1.326" r="1.326" transform="translate(94.818 5.287)"/><path class="a" d="M710.062,196.4a9.389,9.389,0,0,0-3.724-.926l.237-.906a7.277,7.277,0,0,0,3.724.926Z" transform="translate(-612.367 -188.482)"/><path class="d" d="M681.391,206.89a7.809,7.809,0,0,1-4.844,2.537c-3.229.461-.692,5.536-.692,5.536a2.916,2.916,0,0,1,.923-3.46C678.623,209.888,681.391,208.966,681.391,206.89Z" transform="translate(-585.6 -198.891)"/><path class="d" d="M717,206.1s.923,3.229,2.306,3.69.692,5.3-1.615,5.766c0,0,1.96-2.652.807-4.728S716.657,207.134,717,206.1Z" transform="translate(-621.371 -198.22)"/><rect class="d" width="8.496" height="0.985" transform="translate(107.775 2.463)"/><ellipse class="d" cx="0.739" cy="2.955" rx="0.739" ry="2.955" transform="translate(115.367 0)"/><ellipse class="d" cx="0.739" cy="2.955" rx="0.739" ry="2.955" transform="translate(107.397 0)"/><rect class="d" width="8.496" height="0.985" transform="translate(111.806 64.448)"/><ellipse class="d" cx="0.739" cy="2.955" rx="0.739" ry="2.955" transform="translate(119.409 61.901)"/><ellipse class="d" cx="0.739" cy="2.955" rx="0.739" ry="2.955" transform="translate(111.439 61.901)"/><path class="c" d="M107.838,557.289c0-3.629-2.247-6.57-5.018-6.57a4.848,4.848,0,0,0-4.176,2.927,3.006,3.006,0,0,0-.959-.158,3.267,3.267,0,0,0-2.247.948c-.811-2.2-2.531-3.717-4.521-3.717a4.971,4.971,0,0,0-4.351,3.3,3.12,3.12,0,0,0-1.717-.529c-2.127,0-3.851,2.257-3.851,5.042a6.2,6.2,0,0,0,.607,2.715h25.221A7.943,7.943,0,0,0,107.838,557.289Z" transform="translate(-77.741 -493.631)"/></g></svg>